<svg xmlns="http://www.w3.org/2000/svg" viewBox="0 0 88.59 88.59"><defs><style>.cls-1{fill:#c6c6c6;}.cls-2{fill:none;}.cls-3{fill:#141414;}.cls-4{fill:#fff;fill-rule:evenodd;}</style></defs><g id="Layer_2" data-name="Layer 2"><g id="OBJECTS"><path class="cls-1" d="M79.79,17.79c-.85-1.13-1.75-2.23-2.71-3.28-.47-.52-1-1-1.46-1.54A44.19,44.19,0,0,0,44.29,0h-.23a44.29,44.29,0,0,0,0,88.57h.23a44.19,44.19,0,0,0,31.33-13c.5-.51,1-1,1.46-1.54,1-1,1.86-2.15,2.71-3.28a44.32,44.32,0,0,0,0-53Z"/><path class="cls-2" d="M44.06,3a41.35,41.35,0,0,0,0,82.69Z"/><path class="cls-3" d="M78.59,21.17c-.75-1.1-1.54-2.16-2.38-3.18s-1.74-2-2.67-2.94A41.27,41.27,0,0,0,44.29,2.94h-.23A41.35,41.35,0,1,0,77.17,69.37c.49-.64,1-1.29,1.42-2a41.66,41.66,0,0,0,3-5.2,39.28,39.28,0,0,0,1.57-3.71,41.44,41.44,0,0,0-4.55-37.34Z"/><path class="cls-4" d="M66.22,36.28a6.48,6.48,0,0,0-6.47-6.48H29.37a6.48,6.48,0,0,0-6.48,6.48V53.65a6.48,6.48,0,0,0,6.48,6.48H59.75a6.48,6.48,0,0,0,6.47-6.48Zm-26,16V36L52.6,44.14Z"/></g></g></svg>