<svg xmlns="http://www.w3.org/2000/svg" viewBox="0 0 88.59 88.59"><defs><style>.cls-1{fill:#c6c6c6;}.cls-2{fill:none;}.cls-3{fill:#141414;}.cls-4{fill:#fff;}</style></defs><g id="Layer_2" data-name="Layer 2"><g id="OBJECTS"><path class="cls-1" d="M44.29,0h-.23a44.29,44.29,0,0,0,0,88.57h.23A44.3,44.3,0,1,0,44.29,0Z"/><path class="cls-2" d="M44.06,3a41.35,41.35,0,0,0,0,82.69Z"/><path class="cls-3" d="M44.29,2.94h-.23A41.36,41.36,0,1,0,81.57,62.22a39.28,39.28,0,0,0,1.57-3.71A41.38,41.38,0,0,0,44.29,2.94Z"/><path class="cls-4" d="M43.81,62.75a7.94,7.94,0,0,1-4.41-1.31,21,21,0,0,0-4.12-2.33,10.07,10.07,0,0,0-4.88,0c-.49.08-1.18.33-1.49-.23a18.84,18.84,0,0,1-.61-2.21c-.17-.46-1-.46-1.45-.55s-.79-.18-1.18-.28c-.88-.23-3.92-1-3-2.5a2.06,2.06,0,0,1,1.23-.73,18.09,18.09,0,0,0,2.25-.88,12.13,12.13,0,0,0,3.58-2.91,10.06,10.06,0,0,0,2.3-4c.38-1.64-1.18-2-2.4-2.5-.9-.33-2.6-1-2.79-2.09s1.43-2,2.35-1.75c.62.12,1.2.38,1.84.46a4.42,4.42,0,0,0,1,0c.28,0,.24,0,.32-.2.13-1.66-.13-3.33-.16-5a11.2,11.2,0,0,1,.63-4.38,11.6,11.6,0,0,1,10.08-7.12,13.12,13.12,0,0,1,8.39,1.87A10.61,10.61,0,0,1,56,31a27.44,27.44,0,0,1,.12,4.71c0,.79-.06,1.58-.07,2.37,0,.27,0,.53,0,.8,0,.12.54.11.62.11,1.15,0,2.28-.83,3.42-.53.93.25,2,1.26,1.35,2.26A4.88,4.88,0,0,1,59,42.33a4.48,4.48,0,0,0-2.43,1.39c-.36.48-.11,1.18.09,1.66a12.35,12.35,0,0,0,1,1.94,13.6,13.6,0,0,0,2.72,3.09,11,11,0,0,0,3.2,1.88,9.2,9.2,0,0,1,1.91.68,1,1,0,0,1,.43,1.08,1.42,1.42,0,0,1-.69.85,9,9,0,0,1-2.63,1,10.39,10.39,0,0,1-1.65.3c-.64.06-.82.65-1,1.19s-.27,1.64-1.1,1.68c-.65,0-1.33-.15-2-.19s-1.37,0-2.06,0c-.42,0-.84,0-1.26.1a5.56,5.56,0,0,0-1.89.85c-1.24.72-2.4,1.6-3.69,2.24A9.06,9.06,0,0,1,43.81,62.75Z"/></g></g></svg>