<svg width="64" height="58" viewBox="0 0 64 58" fill="none" xmlns="http://www.w3.org/2000/svg">
<path d="M45.5886 22.9356C45.0118 23.2413 44.5259 23.6793 44.0485 24.1099C39.0822 28.5922 36.2722 34.1559 35.6888 40.833C35.6598 41.1669 35.7564 41.649 35.1908 41.6255C34.6824 41.6049 34.3279 41.4098 34.3307 40.7814C34.3589 33.8005 35.4966 27.0484 38.3685 20.6358C40.5848 15.6864 43.7249 11.4141 47.7336 7.77595C48.4915 7.08846 49.3281 6.491 50.0981 5.8157C50.5371 5.42927 50.8644 5.4893 51.3052 5.82883C55.584 9.13031 58.6889 13.3012 60.6197 18.3416C61.8686 21.5831 62.4902 25.0324 62.4515 28.5059C62.3868 34.2619 60.751 39.5537 57.4908 44.3249C57.2048 44.7432 56.8784 44.9748 56.3709 45.0227C54.224 45.2234 52.0846 45.1221 49.9481 44.8904C49.3909 44.8304 48.8376 44.7319 48.2804 44.6747C47.8659 44.6325 47.6961 44.4215 47.6586 44.0135C47.0095 36.7999 47.6586 29.7824 50.8972 23.1822C52.2468 20.3826 54.1733 17.9 56.5501 15.8974C56.0652 15.919 55.7997 16.1047 55.5184 16.2651C51.7808 18.4411 49.0945 21.6047 47.0208 25.3376C44.2915 30.2532 42.9268 35.5928 42.1558 41.1134C42.0751 41.6921 42.0104 42.2736 41.9457 42.8551C41.8979 43.2894 41.6822 43.4179 41.2479 43.3457C40.1937 43.1656 40.1046 43.0859 40.0389 42.0804C39.585 35.1267 41.1832 28.7741 45.5576 23.2348C45.6158 23.1625 45.688 23.0856 45.5886 22.9356ZM28.6535 37.5193C28.7407 36.376 28.9086 35.2458 29.1009 34.1147C30.414 26.359 33.2821 19.2955 38.5082 13.3219C43.7143 7.36608 50.1469 3.37866 57.806 1.35963C57.9785 1.31367 58.2102 1.37089 58.2937 1.12797C58.1689 0.984464 58.0207 1.04824 57.8819 1.06231C54.5683 1.39809 51.3512 2.17844 48.1623 3.12668C47.6933 3.26736 47.3078 3.26643 46.8492 3.03288C43.212 1.19241 39.2185 0.163746 35.1448 0.0180015C31.071 -0.127743 27.0142 0.612907 23.2548 2.18875C18.5877 4.15276 14.7254 7.15974 11.6171 11.1515C11.2466 11.6271 11.2719 11.8869 11.7681 12.2545C12.6898 12.9363 13.5761 13.6648 14.4234 14.4371C21.0507 20.482 25.4336 27.9094 27.9576 36.4782C28.0973 36.9537 28.1451 37.4696 28.4265 37.8964C28.6666 37.8213 28.6441 37.6553 28.6535 37.5193ZM27.1406 19.2552C28.2783 21.2689 29.009 23.4299 29.4301 25.7015C29.4997 26.012 29.4871 26.3353 29.3935 26.6394C28.7632 28.5603 28.2586 30.5149 27.8103 32.5108C27.2269 24.2168 24.9506 16.6975 18.3298 11.0896C22.1162 12.9064 25.0716 15.6057 27.1406 19.2552ZM2.72841 8.05076C4.98866 9.83813 7.03164 11.8843 8.81552 14.1473C9.04906 14.4446 9.30418 14.71 9.06407 15.1846C6.66393 19.9164 5.5056 24.9015 5.92203 30.2345C6.16589 33.3503 6.78117 36.3582 7.98546 39.247C8.25558 39.8951 8.54821 39.9917 9.19069 39.7065C11.7756 38.5717 14.5181 38.129 17.3215 38.1515C18.9557 38.1532 20.587 38.2897 22.1987 38.5595C22.6292 38.6345 22.7924 38.5126 22.7043 38.0633C22.5364 37.2023 22.4097 36.3338 22.2306 35.4746C19.7545 23.5959 13.5436 14.2504 3.31086 7.64652C2.27165 6.97497 1.19116 6.37001 0 5.97233C0.899466 6.68703 1.83457 7.34076 2.72841 8.05076ZM60.8908 46.242C55.9301 48.1478 50.7884 48.6318 45.5501 48.1084C39.3299 47.4857 33.3834 45.7852 27.6358 43.3157C25.0097 42.1902 22.4435 40.7983 19.5322 40.4906C14.9739 40.0076 12.7267 42.8505 14.3483 47.1302C15.9193 51.2721 19.2039 53.6506 23.1648 55.2282C32.3376 58.8795 41.5218 58.751 50.6074 55.0172C55.5925 52.9678 59.9576 49.9402 63.8021 45.5226C62.353 45.3631 61.6589 45.9437 60.8908 46.242Z" fill="url(#paint0_linear)"/>
<defs>
<linearGradient id="paint0_linear" x1="67.8849" y1="-32.5959" x2="13.3213" y2="55.8669" gradientUnits="userSpaceOnUse">
<stop offset="0.11" stop-color="#A5CD39"/>
<stop offset="0.3" stop-color="#84C43F"/>
<stop offset="0.56" stop-color="#51B748"/>
<stop offset="0.66" stop-color="#379D43"/>
<stop offset="0.79" stop-color="#1B813D"/>
<stop offset="0.91" stop-color="#0A6F39"/>
<stop offset="1" stop-color="#046938"/>
</linearGradient>
</defs>
</svg>
