<svg width="86" height="80" viewBox="0 0 86 80" fill="none" xmlns="http://www.w3.org/2000/svg">
<g clip-path="url(#clip0)">
<path d="M56.7361 22.9336C56.1592 23.2394 55.6734 23.6774 55.196 24.1079C50.2297 28.5902 47.4197 34.154 46.8363 40.831C46.8072 41.1649 46.9038 41.647 46.3383 41.6236C45.8299 41.6029 45.4754 41.4079 45.4782 40.7794C45.5063 33.7985 46.644 27.0464 49.5159 20.6338C51.7323 15.6844 54.8724 11.4122 58.8811 7.774C59.6389 7.0865 60.4756 6.48905 61.2456 5.81374C61.6845 5.42732 62.0119 5.48735 62.4527 5.82687C66.7315 9.12836 69.8363 13.2993 71.7672 18.3397C73.016 21.5812 73.6377 25.0304 73.5989 28.5039C73.5342 34.26 71.8985 39.5517 68.6383 44.3229C68.3522 44.7412 68.0258 44.9729 67.5184 45.0207C65.3715 45.2214 63.2321 45.1201 61.0955 44.8885C60.5384 44.8285 59.985 44.73 59.4279 44.6728C59.0133 44.6306 58.8436 44.4195 58.806 44.0115C58.157 36.798 58.806 29.7804 62.0447 23.1803C63.3943 20.3806 65.3207 17.898 67.6975 15.8955C67.2126 15.917 66.9472 16.1027 66.6658 16.2631C62.9282 18.4391 60.242 21.6027 58.1683 25.3356C55.4389 30.2513 54.0742 35.5909 53.3033 41.1115C53.2226 41.6902 53.1579 42.2717 53.0932 42.8532C53.0453 43.2875 52.8296 43.4159 52.3954 43.3437C51.3411 43.1636 51.252 43.0839 51.1864 42.0785C50.7324 35.1247 52.3306 28.7722 56.7051 23.2328C56.7633 23.1606 56.8355 23.0837 56.7361 22.9336ZM39.801 37.5174C39.8882 36.374 40.0561 35.2438 40.2483 34.1127C41.5614 26.357 44.4296 19.2935 49.6557 13.3199C54.8618 7.36413 61.2944 3.37671 68.9534 1.35768C69.126 1.31172 69.3577 1.36893 69.4411 1.12601C69.3164 0.982511 69.1682 1.04629 69.0294 1.06036C65.7157 1.39613 62.4986 2.17648 59.3097 3.12472C58.8408 3.26541 58.4553 3.26447 57.9966 3.03093C54.3594 1.19046 50.3659 0.161793 46.2922 0.0160484C42.2185 -0.129696 38.1617 0.610954 34.4023 2.1868C29.7352 4.15081 25.8728 7.15778 22.7646 11.1496C22.3941 11.6251 22.4194 11.8849 22.9156 12.2526C23.8373 12.9343 24.7235 13.6628 25.5708 14.4351C32.1982 20.48 36.5811 27.9074 39.105 36.4763C39.2448 36.9518 39.2926 37.4676 39.574 37.8944C39.8141 37.8194 39.7916 37.6534 39.801 37.5174ZM38.2881 19.2532C39.4258 21.2669 40.1564 23.4279 40.5776 25.6996C40.6472 26.01 40.6346 26.3333 40.541 26.6375C39.9107 28.5583 39.4061 30.513 38.9578 32.5089C38.3744 24.2148 36.098 16.6955 29.4773 11.0877C33.2636 12.9044 36.219 15.6038 38.2881 19.2532ZM13.8759 8.04881C16.1361 9.83618 18.1791 11.8823 19.963 14.1453C20.1965 14.4426 20.4516 14.708 20.2115 15.1826C17.8114 19.9145 16.6531 24.8995 17.0695 30.2325C17.3134 33.3483 17.9286 36.3562 19.1329 39.245C19.403 39.8931 19.6957 39.9897 20.3382 39.7046C22.9231 38.5697 25.6655 38.127 28.469 38.1495C30.1032 38.1513 31.7344 38.2877 33.3462 38.5575C33.7767 38.6325 33.9399 38.5106 33.8517 38.0614C33.6838 37.2003 33.5572 36.3318 33.3781 35.4727C30.902 23.5939 24.691 14.2485 14.4583 7.64457C13.4191 6.97301 12.3386 6.36805 11.1475 5.97038C12.0469 6.68507 12.982 7.3388 13.8759 8.04881ZM72.0382 46.24C67.0776 48.1459 61.9359 48.6299 56.6976 48.1065C50.4773 47.4837 44.5309 45.7833 38.7833 43.3137C36.1571 42.1882 33.591 40.7963 30.6797 40.4887C26.1214 40.0057 23.8741 42.8485 25.4958 47.1282C27.0668 51.2701 30.3514 53.6487 34.3122 55.2262C43.4851 58.8776 52.6692 58.7491 61.7549 55.0152C66.7399 52.9659 71.105 49.9382 74.9496 45.5206C73.5005 45.3612 72.8064 45.9418 72.0382 46.24Z" fill="url(#paint0_linear)"/>
<path d="M15.1993 70.1947C15.3191 70.1962 15.4379 70.1733 15.5486 70.1273C15.6592 70.0814 15.7593 70.0134 15.8427 69.9274C15.9907 69.7784 16.0824 69.5828 16.1023 69.3738C16.1222 69.1648 16.069 68.9554 15.9518 68.7811C15.8347 68.6069 15.6608 68.4787 15.4597 68.4183C15.2586 68.3579 15.0428 68.369 14.8491 68.4498C14.6553 68.5306 14.4955 68.676 14.3969 68.8614C14.2983 69.0467 14.267 69.2605 14.3083 69.4664C14.3496 69.6722 14.4609 69.8574 14.6234 69.9903C14.7859 70.1233 14.9894 70.1959 15.1993 70.1957V70.1947Z" fill="#231F20"/>
<path d="M28.9819 75.9015C28.4855 75.7185 28.0305 75.4386 27.6435 75.078C27.2535 74.7253 26.9008 74.3334 26.5911 73.9084L25.7123 72.6891C25.4332 72.2968 25.0913 71.9533 24.7003 71.6724C24.3193 71.4015 23.8631 71.2566 23.3956 71.2578C22.6988 71.2578 22.1276 71.5036 21.698 71.9885C21.2778 72.4689 20.9907 73.051 20.8651 73.6767V73.7011V73.7255C20.863 73.7724 20.8706 73.8192 20.8876 73.8629C20.9046 73.9067 20.9305 73.9464 20.9637 73.9796C20.9968 74.0128 21.0366 74.0387 21.0803 74.0557C21.1241 74.0726 21.1709 74.0803 21.2178 74.0782H21.2469C21.4044 74.0594 21.5367 73.9318 21.6896 73.6523L22.0385 73.0071C22.1575 72.7862 22.3257 72.5956 22.5299 72.4499C22.7451 72.2856 23.0096 72.1989 23.2803 72.2042C23.5655 72.1979 23.8441 72.2911 24.0681 72.4678C24.3293 72.6797 24.5485 72.9386 24.7143 73.2312L25.3231 74.2901C25.5539 74.7091 25.8223 75.1062 26.125 75.4766C26.2968 75.6918 26.4867 75.892 26.6924 76.075H19.6824C19.1872 76.075 18.8026 75.9277 18.5109 75.6248C18.7858 75.169 18.9269 74.6451 18.918 74.1129C18.918 73.2031 18.6038 72.4762 17.9801 71.9556C17.3564 71.4351 16.5329 71.1819 15.488 71.1819C15.0237 71.1819 14.506 71.3394 13.9498 71.6508C13.37 71.9817 12.8343 72.3844 12.3554 72.8495C11.847 73.3363 11.4043 73.7874 11.0423 74.1926C10.8478 74.4089 10.6562 74.6278 10.4673 74.8491C10.4786 74.7003 10.4908 74.5246 10.5039 74.322L10.5977 72.4678H10.352C10.1006 72.4678 9.82016 72.569 9.4947 72.7773C9.1411 73.0042 8.96102 73.2828 8.96102 73.6054V74.6831C8.96102 75.4728 8.86067 75.7608 8.80064 75.8621C8.7181 76.0018 8.50988 76.0731 8.18349 76.0731H6.48397C6.19663 76.0765 5.91318 76.0064 5.66048 75.8696C5.45897 75.7666 5.28597 75.6155 5.15681 75.4297V71.0449H4.92796C4.6841 71.0449 4.41023 71.1462 4.08852 71.3554C3.73962 71.5824 3.56329 71.8609 3.56329 72.1826V78.0634C3.56329 78.3448 3.49388 78.5548 3.35225 78.6974C3.19147 78.8472 2.97821 78.9277 2.75855 78.9216C2.60512 78.9286 2.45275 78.8928 2.31855 78.8181C2.18435 78.7434 2.07364 78.6327 1.99883 78.4986L1.92192 78.3757L1.77748 78.3907C1.52799 78.4251 1.29189 78.5244 1.0928 78.6787C0.821742 78.8737 0.689495 79.0726 0.689495 79.2874C0.687953 79.3955 0.729058 79.5 0.803921 79.5781C1.04778 79.8595 1.46047 80.0002 2.0673 80.0002C2.99491 80.0002 3.74993 79.7254 4.31175 79.1823C4.87356 78.6393 5.16057 77.8411 5.16057 76.8131V76.7193C5.32262 76.8509 5.4955 76.9686 5.67736 77.0711C6.0143 77.2688 6.3955 77.3788 6.78598 77.3909H8.53333C9.03793 77.3909 9.45437 77.2596 9.77326 76.9988C9.89145 77.1262 10.0353 77.227 10.1954 77.2946C10.3555 77.3622 10.5281 77.395 10.7018 77.3909H14.5867C15.2502 77.392 15.9097 77.2875 16.5404 77.0814C17.051 76.9214 17.5231 76.658 17.9275 76.3076C18.1625 76.5754 18.4352 76.8076 18.737 76.997C19.1069 77.2405 19.537 77.3769 19.9797 77.3909H29.207C29.4471 77.3909 29.6675 77.2483 29.8635 76.9651C30.0436 76.7053 30.1308 76.4896 30.1308 76.3085V76.075H29.8973C29.584 76.0748 29.2735 76.016 28.9819 75.9015ZM11.2552 75.501C11.7438 74.9288 12.2006 74.4167 12.6124 73.9797C13.0593 73.513 13.5548 73.0954 14.0905 72.7341C14.643 72.3589 15.1222 72.1639 15.5152 72.1639C16.1014 72.1639 16.5385 72.3224 16.8499 72.6497C17.1613 72.977 17.3188 73.4413 17.3188 74.0322C17.3188 74.6887 17.0862 75.1765 16.6088 75.5272C16.1155 75.8902 15.4702 76.0741 14.6917 76.0741H10.7665C10.8847 75.9371 11.0441 75.7523 11.258 75.5029L11.2552 75.501Z" fill="#231F20"/>
<path d="M23.3675 70.3278C23.5797 70.3288 23.7857 70.2561 23.9503 70.1222C24.1149 69.9883 24.2279 69.8014 24.27 69.5934C24.3122 69.3854 24.2808 69.1693 24.1813 68.9819C24.0818 68.7944 23.9204 68.6473 23.7245 68.5657C23.5287 68.484 23.3105 68.4729 23.1074 68.5341C22.9042 68.5954 22.7286 68.7253 22.6105 68.9016C22.4925 69.0779 22.4392 69.2897 22.4599 69.5009C22.4807 69.7121 22.574 69.9095 22.7241 70.0595C22.8075 70.1456 22.9075 70.2138 23.0182 70.2599C23.1288 70.3061 23.2477 70.3291 23.3675 70.3278Z" fill="#231F20"/>
<path d="M32.6331 67.6772L32.7147 67.6078V67.5C32.7147 67.2946 32.5196 67.167 32.4558 67.1248C32.3304 67.0406 32.186 66.9891 32.0357 66.9747L31.97 66.9691L31.8574 67.0254C31.8247 67.0384 31.7903 67.0469 31.7552 67.0507C31.6964 67.0616 31.6368 67.0673 31.577 67.0676C31.381 67.0676 31.3238 66.9963 31.305 66.9738C31.2396 66.8885 31.2063 66.7829 31.2112 66.6755C31.2103 66.5649 31.243 66.4567 31.305 66.3651C31.3227 66.3341 31.3489 66.3089 31.3805 66.2922C31.412 66.2756 31.4477 66.2684 31.4832 66.2713C31.6549 66.2713 31.6839 66.3332 31.698 66.3651L31.7618 66.4992H31.909C32.1763 66.4992 32.3846 66.427 32.5262 66.2844L32.6284 66.1822L32.5825 66.0453C32.5337 65.8971 32.3949 65.777 32.151 65.6701C31.9411 65.5759 31.7133 65.5279 31.4832 65.5294C31.3099 65.5272 31.1378 65.5592 30.9769 65.6236C30.816 65.688 30.6693 65.7835 30.5453 65.9046C30.4203 66.0174 30.3204 66.1551 30.2519 66.3089C30.1834 66.4627 30.1479 66.6291 30.1476 66.7975C30.1474 66.8888 30.1565 66.98 30.1748 67.0695C30.0459 67.0571 29.9265 66.9961 29.8409 66.8988L29.4404 66.4992V67.288C29.4404 67.4887 29.5455 67.6697 29.7528 67.8264C29.9534 67.973 30.1974 68.0483 30.4459 68.0402H31.547C31.9412 68.0555 32.3273 67.9264 32.6331 67.6772Z" fill="#231F20"/>
<path d="M37.3864 68.4361C37.1547 68.0844 36.7758 67.9053 36.2609 67.9053C35.7253 67.9053 35.3229 68.1126 35.0659 68.5196C34.8296 68.8948 34.7105 69.3694 34.7105 69.9349V75.51C34.7115 75.5833 34.7078 75.6566 34.6992 75.7295C34.6871 75.7954 34.6689 75.8601 34.6448 75.9227C34.6274 75.9668 34.5939 76.0026 34.551 76.023C34.5216 76.0391 34.49 76.0507 34.4572 76.0577L32.0805 68.0854L31.8639 68.1398C31.6472 68.1942 31.4137 68.3358 31.152 68.5721C30.8706 68.8254 30.729 69.1011 30.729 69.39V69.4726L30.774 69.5279C30.8678 69.6948 31.364 70.9845 33.161 76.0756H32.9069C32.4323 76.0756 32.1077 75.9536 31.9427 75.7135C31.9267 75.6891 31.907 75.6572 31.8789 75.6103C31.6613 75.2727 31.5225 75.1414 31.3659 75.1198H31.3368C31.2899 75.1177 31.2431 75.1253 31.1993 75.1423C31.1556 75.1593 31.1158 75.1852 31.0827 75.2184C31.0495 75.2515 31.0236 75.2913 31.0066 75.335C30.9896 75.3788 30.982 75.4256 30.9841 75.4725V75.4978L30.9897 75.5231C31.0309 75.7011 31.0919 75.8738 31.1717 76.038C31.3615 76.423 31.6462 76.7532 31.9989 76.9975C32.3663 77.2588 32.8069 77.397 33.2576 77.3924H34.522C35.1119 77.3924 35.5677 77.1795 35.8744 76.7584C36.1643 76.3598 36.3115 75.8326 36.3115 75.1902V70.5474C36.3115 70.3317 36.3162 70.1647 36.3246 70.0522C36.3362 69.9128 36.355 69.7741 36.3809 69.6367C36.3913 69.5408 36.4291 69.45 36.4897 69.375C36.5128 69.3534 36.5402 69.337 36.5701 69.327C36.6001 69.3169 36.6318 69.3135 36.6632 69.3169C36.8133 69.3169 36.9606 69.3478 36.9765 69.7192L36.9924 70.101L37.725 69.6826V69.5438C37.719 69.15 37.6016 68.766 37.3864 68.4361Z" fill="#231F20"/>
<path d="M39.647 68.2148C39.2924 68.4418 39.1133 68.7204 39.1133 69.0439V77.4233L39.3759 77.3915C39.5798 77.3681 39.776 77.2997 39.9504 77.1914C40.1247 77.0831 40.2729 76.9374 40.3842 76.7649C40.6186 76.4207 40.7378 75.9536 40.7378 75.3768V67.9062H40.5042C40.2519 67.9062 39.9715 68.0066 39.647 68.2148Z" fill="#231F20"/>
<path d="M50.6686 78.1758C50.457 78.1752 50.2516 78.248 50.0877 78.3819C49.9237 78.5157 49.8112 78.7023 49.7695 78.9098C49.7277 79.1173 49.7592 79.3328 49.8586 79.5197C49.9579 79.7066 50.1191 79.8532 50.3145 79.9345C50.5099 80.0159 50.7274 80.0269 50.9301 79.9658C51.1327 79.9046 51.3079 79.7751 51.4257 79.5993C51.5435 79.4234 51.5966 79.2122 51.5761 79.0015C51.5555 78.7908 51.4625 78.5938 51.313 78.4441C51.2294 78.3579 51.1292 78.2897 51.0184 78.2436C50.9076 78.1974 50.7886 78.1744 50.6686 78.1758Z" fill="#231F20"/>
<path d="M65.2701 68.8307C65.2695 69.0424 65.3423 69.2477 65.4761 69.4117C65.61 69.5756 65.7965 69.6881 66.004 69.7299C66.2115 69.7717 66.4271 69.7402 66.6139 69.6408C66.8008 69.5414 66.9474 69.3803 67.0288 69.1849C67.1101 68.9895 67.1212 68.7719 67.06 68.5693C66.9989 68.3666 66.8693 68.1915 66.6935 68.0737C66.5177 67.9559 66.3064 67.9027 66.0958 67.9233C65.8851 67.9438 65.6881 68.0368 65.5383 68.1864C65.452 68.2698 65.3836 68.37 65.3375 68.4808C65.2914 68.5916 65.2684 68.7107 65.2701 68.8307Z" fill="#231F20"/>
<path d="M65.1313 68.0524C65.2458 68.0546 65.3595 68.0329 65.4651 67.9886C65.5707 67.9444 65.6659 67.8786 65.7447 67.7954C65.9015 67.6346 65.9893 67.4188 65.9893 67.1942C65.9893 66.9695 65.9015 66.7538 65.7447 66.593C65.6647 66.5113 65.5693 66.4464 65.464 66.4021C65.3587 66.3578 65.2455 66.335 65.1313 66.335C65.017 66.335 64.9039 66.3578 64.7985 66.4021C64.6932 66.4464 64.5978 66.5113 64.5179 66.593C64.3606 66.7535 64.2725 66.9694 64.2725 67.1942C64.2725 67.419 64.3606 67.6348 64.5179 67.7954C64.5966 67.8785 64.6919 67.9443 64.7975 67.9886C64.9031 68.0328 65.0168 68.0545 65.1313 68.0524Z" fill="#231F20"/>
<path d="M64.0931 69.7429C64.3053 69.7439 64.5112 69.6712 64.6758 69.5373C64.8404 69.4034 64.9534 69.2165 64.9956 69.0085C65.0377 68.8005 65.0064 68.5844 64.9069 68.3969C64.8074 68.2095 64.6459 68.0624 64.4501 67.9807C64.2542 67.8991 64.0361 67.8879 63.8329 67.9492C63.6298 68.0104 63.4542 68.1403 63.3361 68.3166C63.218 68.4929 63.1648 68.7048 63.1855 68.916C63.2062 69.1271 63.2996 69.3246 63.4497 69.4746C63.5331 69.5607 63.6331 69.6289 63.7437 69.675C63.8544 69.7212 63.9732 69.7442 64.0931 69.7429Z" fill="#231F20"/>
<path d="M81.9067 68.2021C81.5587 68.429 81.3815 68.7076 81.3815 69.0293V75.137C81.3815 75.968 80.9735 76.075 80.617 76.075H77.0651C76.8475 76.0696 76.6327 76.0234 76.432 75.939C76.9117 75.5542 77.3544 75.1256 77.7545 74.6587C78.2366 74.0959 78.5752 73.5445 78.7618 73.023L78.7787 72.9733L78.774 72.9217C78.7215 72.3796 78.3557 71.9247 77.687 71.5673C77.0567 71.2315 76.2801 71.0608 75.3881 71.0608C74.4962 71.0608 73.7205 71.2315 73.0902 71.5673C72.4205 71.9247 72.0585 72.3805 72.0032 72.9217L71.9985 72.9714L72.0144 73.0192C72.1917 73.5416 72.5265 74.0931 73.0096 74.6587C73.4098 75.1263 73.8525 75.5559 74.332 75.9418C74.1356 76.025 73.9253 76.0708 73.7121 76.0768H70.812C70.5296 76.079 70.251 76.0107 70.0017 75.878C69.8065 75.7783 69.6355 75.6372 69.5008 75.4644C69.5323 75.1615 69.5474 74.8572 69.5458 74.5527V70.6463H69.3123C69.0609 70.6463 68.7805 70.7476 68.455 70.9558C68.1005 71.1818 67.9213 71.4604 67.9213 71.784V74.684C67.9213 75.4738 67.821 75.7617 67.761 75.863C67.6784 76.0027 67.4702 76.074 67.1438 76.074C66.9163 76.0661 66.6928 76.0115 66.4873 75.9136C66.2761 75.8247 66.0911 75.6833 65.9498 75.5028V70.8451H65.7163C65.4649 70.8451 65.1845 70.9464 64.859 71.1546C64.5045 71.3816 64.3253 71.6602 64.3253 71.9837V74.8303C64.3253 75.0029 64.3253 75.1408 64.3188 75.2393C64.3111 75.3572 64.2948 75.4745 64.27 75.5901C64.2578 75.6844 64.2258 75.7752 64.1762 75.8564C64.1255 75.9204 64.0615 75.9726 63.9886 76.0093C63.8905 76.0564 63.7823 76.0786 63.6735 76.074C63.0817 76.074 62.6418 75.8649 62.3323 75.4362C62.3538 75.2299 62.3642 74.9391 62.3642 74.5508V71.0449H62.1231C61.8717 71.0449 61.5904 71.1462 61.2659 71.3544C60.9113 71.5814 60.7322 71.8599 60.7322 72.1826V74.684C60.7322 75.4738 60.6318 75.7617 60.5718 75.863C60.4883 76.0027 60.281 76.074 59.9546 76.074H58.2523C57.9661 76.0767 57.684 76.0064 57.4326 75.8696C57.2311 75.7666 57.0581 75.6155 56.9289 75.4297V71.0449H56.6954C56.4524 71.0449 56.1776 71.1462 55.8569 71.3553C55.508 71.5823 55.3316 71.8609 55.3316 72.1826V75.137C55.3316 75.968 54.9518 76.075 54.6197 76.075H47.4353C46.8031 76.075 46.3004 75.8761 45.899 75.4662C45.4975 75.0564 45.3006 74.5171 45.3006 73.8202C45.3058 73.5444 45.3862 73.2752 45.5332 73.0417C45.7114 72.7444 45.9083 72.7097 46.0387 72.7097C46.3013 72.7097 46.5077 72.8466 46.6756 73.1402L46.7553 73.2762L46.911 73.2528C47.1015 73.2258 47.2867 73.1692 47.4597 73.0849C47.741 72.9432 47.802 72.7632 47.802 72.6365V72.5953L47.787 72.5568C47.6988 72.3177 47.4775 72.1404 47.1304 72.0288C46.8651 71.9394 46.5878 71.891 46.3079 71.8853C45.9724 71.8775 45.6395 71.9453 45.3338 72.0836C45.0281 72.2219 44.7574 72.4272 44.5418 72.6844C44.0942 73.2027 43.8538 73.868 43.8665 74.5527C43.8576 74.9305 43.9273 75.3059 44.0711 75.6553C44.215 76.0047 44.4299 76.3204 44.7022 76.5824C45.2546 77.1217 45.974 77.3937 46.8406 77.3937H55.1431C55.8494 77.3937 56.3699 77.0832 56.6682 76.4895C56.874 76.6977 57.1057 76.8786 57.3575 77.0279C57.7175 77.2532 58.1308 77.3791 58.5553 77.3927H60.3045C60.8213 77.3927 61.2424 77.2605 61.5472 76.9988C61.7324 76.843 61.8845 76.6516 61.9946 76.4361C62.5846 77.072 63.2946 77.3937 64.1096 77.3937C64.5236 77.405 64.9274 77.2649 65.2455 76.9998C65.413 76.8606 65.5497 76.6881 65.6469 76.4933C65.8583 76.7169 66.1028 76.9067 66.3719 77.056C66.7526 77.2748 67.1831 77.3924 67.6221 77.3974C68.3678 77.3974 68.9146 77.0879 69.225 76.497C69.4344 76.7062 69.6691 76.8884 69.9238 77.0391C70.2826 77.26 70.6929 77.3832 71.114 77.3965H73.2365C73.8593 77.3965 74.5834 77.1508 75.3938 76.6659C76.1938 77.1508 76.9188 77.3965 77.551 77.3965H81.1957C81.7866 77.3965 82.2415 77.1836 82.5492 76.7625C82.839 76.3638 82.9862 75.8367 82.9862 75.1943V67.8916H82.7527C82.5023 67.8916 82.2284 67.9929 81.9067 68.2021ZM77.1946 72.9151C77.0117 73.3799 76.7587 73.8139 76.4442 74.2019C76.1327 74.6045 75.7765 74.9704 75.3825 75.2927C74.9854 74.9733 74.628 74.6074 74.318 74.2029C74.0079 73.8133 73.7584 73.3791 73.5779 72.9151C73.6214 72.7711 73.6937 72.6375 73.7905 72.5224C73.8872 72.4073 74.0064 72.3131 74.1407 72.2454C74.5279 72.0518 74.9548 71.951 75.3877 71.951C75.8205 71.951 76.2475 72.0518 76.6346 72.2454C76.7684 72.3134 76.887 72.4077 76.9833 72.5228C77.0795 72.6379 77.1514 72.7714 77.1946 72.9151Z" fill="#231F20"/>
<path d="M85.7664 67.9062C85.5151 67.9062 85.2346 68.0075 84.9092 68.2158C84.5546 68.4427 84.3755 68.7213 84.3755 69.0449V77.4243L84.6381 77.3924C84.842 77.369 85.0382 77.3007 85.2126 77.1923C85.3869 77.084 85.5351 76.9383 85.6464 76.7659C85.8808 76.4216 86 75.9545 86 75.3777V67.9062H85.7664Z" fill="#231F20"/>
</g>
<defs>
<linearGradient id="paint0_linear" x1="79.0323" y1="-32.5979" x2="24.4687" y2="55.865" gradientUnits="userSpaceOnUse">
<stop offset="0.11" stop-color="#A5CD39"/>
<stop offset="0.3" stop-color="#84C43F"/>
<stop offset="0.56" stop-color="#51B748"/>
<stop offset="0.66" stop-color="#379D43"/>
<stop offset="0.79" stop-color="#1B813D"/>
<stop offset="0.91" stop-color="#0A6F39"/>
<stop offset="1" stop-color="#046938"/>
</linearGradient>
<clipPath id="clip0">
<rect width="85.3105" height="80" fill="white" transform="translate(0.689453)"/>
</clipPath>
</defs>
</svg>
