<svg width="65" height="65" viewBox="0 0 65 65" fill="none" xmlns="http://www.w3.org/2000/svg">
<path d="M8.94238 49.4782V25.1042C9.11289 25.0913 9.28197 25.067 9.45247 25.067C10.9054 25.067 12.3578 25.067 13.8097 25.067H14.3614V24.4552C14.3614 21.3946 14.3614 18.3327 14.3743 15.2707C14.3796 14.9512 14.4717 14.6391 14.6408 14.368C15.7283 12.6916 16.8459 11.0352 17.9549 9.37456C18.038 9.24847 18.1312 9.13098 18.2415 8.97623C19.4651 10.8103 20.6687 12.5941 21.8451 14.3952C22.0065 14.6534 22.0951 14.9505 22.1016 15.2549C22.1202 18.3327 22.113 21.4089 22.1145 24.4867C22.1145 24.6658 22.1331 24.8449 22.1431 25.024H23.6605V8.07211H32.9524V25.0641C34.2219 25.0641 35.4384 25.0756 36.6534 25.0484C36.7967 25.0484 36.9816 24.8435 37.0475 24.6916C37.6206 23.3781 38.1765 22.0571 38.7153 20.7284C38.7898 20.5174 38.7898 20.2873 38.7153 20.0764C37.7496 17.5059 38.7268 14.762 41.1339 13.3879C41.2408 13.3441 41.3309 13.2671 41.391 13.1684C41.4511 13.0696 41.478 12.9543 41.4678 12.8392C41.4534 11.7774 41.4549 10.7157 41.4678 9.65396C41.4678 8.66531 42.0954 8.05205 43.0754 8.04346C43.4967 8.04346 43.9179 8.04346 44.3406 8.04346C45.4998 8.04346 46.1016 8.63379 46.1116 9.79438C46.1202 10.7974 46.1245 11.8004 46.1116 12.7933C46.0988 12.9217 46.1272 13.0509 46.1926 13.1621C46.258 13.2734 46.3571 13.361 46.4755 13.4123C47.6062 14.0556 48.4671 15.085 48.9003 16.3117C49.3335 17.5383 49.3099 18.88 48.834 20.0907C48.7638 20.2862 48.7638 20.5 48.834 20.6954C49.377 22.038 49.9559 23.3662 50.5047 24.7073C50.5381 24.8249 50.613 24.9264 50.7154 24.993C50.8179 25.0597 50.941 25.087 51.062 25.0698C52.8115 25.0569 54.5596 25.0698 56.3091 25.0698H56.9424V56.0435H15.5048C15.4491 55.9536 15.3863 55.8683 15.3171 55.7884C13.2796 53.7452 11.2397 51.7039 9.19743 49.6645C9.11752 49.5957 9.03224 49.5334 8.94238 49.4782H8.94238ZM51.3386 26.646C51.4174 26.8523 51.4819 27.0242 51.5492 27.1933C52.237 28.831 52.9348 30.4645 53.6139 32.1051C54.0939 33.2614 53.8862 34.5008 52.9434 35.21C52.3817 35.6313 52.2585 36.0697 52.3029 36.693C52.3444 37.2833 52.3101 37.8794 52.3129 38.474C52.3129 38.6374 52.3272 38.8021 52.3373 39.0128H53.8102V49.8149H41.4878V38.9927H50.7153V35.8734C49.4687 35.6298 48.8655 34.7272 48.47 33.611C48.2881 33.0966 48.0517 32.608 47.8396 32.1008L46.6446 29.2795C45.6416 29.4328 44.7031 29.6864 43.7703 29.6836C42.8376 29.6807 41.8847 29.4228 40.9047 29.2709C40.717 29.7108 40.5092 30.2495 40.2613 30.7682C40.0074 31.3201 39.8848 31.9234 39.9031 32.5306C39.9203 37.0612 39.9117 41.5919 39.9117 46.1225V46.73H12.0631V28.1705H34.9455C35.0858 28.1825 35.227 28.1801 35.3668 28.1633C35.4806 28.1462 35.5833 28.0856 35.6533 27.9943C35.8568 27.5644 36.0316 27.1188 36.2265 26.6531H10.5357V48.2889H16.7098V54.4329H55.3348V26.646H51.3386ZM32.1902 36.6758C32.0354 36.6916 31.9609 36.7059 31.885 36.7073C29.0107 36.7073 26.1364 36.7073 23.2622 36.7159C22.8996 36.7159 22.861 36.554 22.8624 36.2632C22.8624 34.2787 22.8624 32.2942 22.8624 30.3112V29.7495H21.325V32.8172C20.4036 32.7914 19.5755 32.8458 18.9135 33.5064C18.2515 34.1669 18.2171 35.0281 18.2143 35.935H13.6407V37.4753H22.1331V42.1034H26.0017V45.1424H38.3241V35.1584C37.9358 35.3734 37.5891 35.6284 37.1994 35.7602C36.8741 35.8691 36.8154 36.0282 36.8168 36.3334C36.824 37.8178 36.8512 39.3022 36.7939 40.7852C36.7529 41.5327 36.438 42.2389 35.9094 42.7691C35.3809 43.2993 34.6756 43.6162 33.9282 43.6595C32.2747 43.744 30.9106 42.6192 30.6427 40.9514C30.4106 39.5071 31.4107 37.994 32.8736 37.5785C33.6875 37.3478 34.4712 37.4725 35.2765 37.8651C35.2765 37.2418 35.2607 36.683 35.2765 36.1256C35.2918 35.9974 35.2675 35.8675 35.2068 35.7535C35.1461 35.6395 35.0519 35.5468 34.9369 35.488C34.4647 35.2027 34.0977 34.772 33.8911 34.2605C33.6844 33.749 33.6492 33.1842 33.7906 32.651C33.9339 32.0965 34.189 31.5721 34.3996 31.0362C34.5672 30.6063 34.7449 30.1922 34.9254 29.7466H32.1902V36.6758ZM31.3305 11.1427V9.63964H25.2409V25.034H31.3376V21.9835H29.8747V20.4074H31.3405V18.8943H28.3057V17.3182H31.3362V15.7894H29.8761V14.2132H31.3391V12.7073H29.6311C28.1983 12.7073 28.1983 12.7073 28.2885 11.2587C28.2885 11.2315 28.3172 11.2057 28.3545 11.1398L31.3305 11.1427ZM52.237 48.2574V40.6018H43.0511V48.2574H52.237ZM13.645 39.0429V45.1539H24.3812V43.6394H20.5383V39.0429H13.645ZM30.5782 35.1241V29.7595H24.4614V35.1241H30.5782ZM43.7087 21.9563C44.7336 21.9751 45.724 21.5864 46.4625 20.8756C47.2011 20.1647 47.6273 19.1898 47.6476 18.165C47.7006 16.0716 45.954 14.2763 43.8291 14.2376C42.8129 14.2333 41.836 14.6298 41.1104 15.3412C40.3847 16.0526 39.9688 17.0214 39.953 18.0374C39.9372 19.0535 40.3226 20.0348 41.0257 20.7685C41.7289 21.5021 42.6929 21.9289 43.7087 21.9563V21.9563ZM45.8035 23.2315C46.4125 24.6801 47.0329 26.1574 47.6562 27.6346C48.4901 29.6148 49.325 31.594 50.1608 33.5723C50.4474 34.2357 50.9804 34.5008 51.5764 34.2887C52.1997 34.0695 52.4476 33.3746 52.141 32.6424C51.2469 30.5027 50.3475 28.3649 49.4429 26.229C48.844 24.8105 48.2465 23.392 47.6605 22.0021L45.8035 23.2315ZM39.8917 21.9993L36.9701 28.927C36.4385 30.1894 35.8969 31.4474 35.3825 32.7169C35.0616 33.5064 35.4671 34.2472 36.2422 34.3403C36.7709 34.4048 37.1664 34.1282 37.4343 33.4949C38.3819 31.2425 39.3281 28.9901 40.2728 26.7377C40.7714 25.5527 41.2758 24.3678 41.7558 23.2215L39.8917 21.9993ZM13.6364 34.3661C14.6193 34.3661 15.5678 34.3747 16.5149 34.3546C16.5821 34.3376 16.6441 34.3046 16.6957 34.2585C16.7474 34.2123 16.7871 34.1544 16.8115 34.0895C17.2414 32.7226 18.1469 31.8343 19.5067 31.3958C19.6041 31.3643 19.7445 31.2525 19.7474 31.1795C19.7703 30.7052 19.7589 30.2295 19.7589 29.7466H13.6364V34.3661ZM15.9633 15.8252V25.0283H17.4248V15.8252H15.9633ZM20.5484 15.8367H19.0525V25.0326H20.5369L20.5484 15.8367ZM45.9884 27.6805C45.4425 26.378 44.8923 25.1014 44.385 23.8218C44.2417 23.445 43.9738 23.5439 43.7102 23.5124C43.4465 23.4808 43.2946 23.584 43.19 23.8433C42.7215 24.9896 42.2315 26.1359 41.7572 27.2922C41.7056 27.4154 41.6669 27.5458 41.6139 27.6934C42.3047 27.9845 43.0471 28.1334 43.7967 28.1312C44.5464 28.129 45.2879 27.9757 45.9769 27.6805H45.9884ZM33.709 42.0848C34.0112 42.0853 34.3068 41.9964 34.5586 41.8291C34.8103 41.6619 35.0069 41.4239 35.1235 41.145C35.2401 40.8662 35.2716 40.5591 35.2139 40.2624C35.1562 39.9658 35.012 39.6928 34.7994 39.478C34.5868 39.2632 34.3153 39.1162 34.0193 39.0554C33.7232 38.9947 33.4158 39.023 33.1358 39.1368C32.8558 39.2505 32.6157 39.4447 32.4459 39.6947C32.2761 39.9447 32.1841 40.2394 32.1816 40.5416C32.1773 40.7441 32.2138 40.9454 32.2889 41.1335C32.3639 41.3216 32.476 41.4927 32.6185 41.6366C32.761 41.7805 32.9309 41.8944 33.1182 41.9714C33.3056 42.0484 33.5065 42.0869 33.709 42.0848V42.0848ZM15.1136 49.8823H11.8081L15.1136 53.1778V49.8823ZM43.0439 9.63964V12.6987H44.5211V9.63964H43.0439ZM16.6138 14.2047H19.8506L18.2315 11.7789L16.6138 14.2047Z" fill="url(#paint0_linear)"/>
<path d="M18.2432 52.9056V48.3062H35.2337V52.9056H18.2432ZM21.2894 51.3581V49.8823H19.8322V51.3581H21.2894ZM24.3972 49.8823H22.9271V51.3438H24.3972V49.8823ZM27.4706 51.3509V49.8751H26.0378V51.3509H27.4706ZM29.1241 49.8737V51.3524H30.5656V49.8722L29.1241 49.8737ZM33.6691 51.3567V49.8823H32.2104V51.3581L33.6691 51.3567Z" fill="url(#paint1_linear)"/>
<path d="M53.8237 51.417V52.9172H36.8174V51.417H53.8237Z" fill="url(#paint2_linear)"/>
<path d="M43.7602 20.4251C43.1666 20.3922 42.6082 20.1331 42.1997 19.7012C41.7911 19.2694 41.5635 18.6974 41.5635 18.103C41.5635 17.5085 41.7911 16.9365 42.1997 16.5047C42.6082 16.0728 43.1666 15.8137 43.7602 15.7808C44.0687 15.7808 44.3741 15.8417 44.6589 15.9601C44.9438 16.0785 45.2024 16.252 45.42 16.4706C45.6376 16.6893 45.8098 16.9488 45.9268 17.2342C46.0438 17.5196 46.1032 17.8253 46.1017 18.1338C46.0986 18.438 46.0355 18.7386 45.916 19.0185C45.7966 19.2983 45.6232 19.5519 45.4058 19.7647C45.1883 19.9774 44.9311 20.1453 44.6487 20.2586C44.3664 20.372 44.0644 20.4285 43.7602 20.4251V20.4251ZM44.5383 18.0865C44.5261 17.8817 44.4352 17.6896 44.2845 17.5505C44.1339 17.4113 43.9352 17.3358 43.7301 17.3399C43.5322 17.3517 43.3467 17.4402 43.2129 17.5865C43.0792 17.7329 43.0077 17.9256 43.0136 18.1237C43.0132 18.2253 43.034 18.3259 43.0747 18.419C43.1154 18.5121 43.1751 18.5956 43.25 18.6643C43.3249 18.7329 43.4133 18.7852 43.5095 18.8177C43.6058 18.8503 43.7077 18.8623 43.8089 18.8531C44.0077 18.8479 44.1964 18.7644 44.334 18.6209C44.4717 18.4773 44.5471 18.2853 44.5441 18.0865H44.5383Z" fill="url(#paint3_linear)"/>
<defs>
<linearGradient id="paint0_linear" x1="77.5674" y1="-116.652" x2="69.9515" y2="78.2173" gradientUnits="userSpaceOnUse">
<stop offset="0.11" stop-color="#A5CD39"/>
<stop offset="0.3" stop-color="#84C43F"/>
<stop offset="0.56" stop-color="#51B748"/>
<stop offset="0.66" stop-color="#379D43"/>
<stop offset="0.79" stop-color="#1B813D"/>
<stop offset="0.91" stop-color="#0A6F39"/>
<stop offset="1" stop-color="#046938"/>
</linearGradient>
<linearGradient id="paint1_linear" x1="42.5344" y1="36.3577" x2="42.3365" y2="55.0567" gradientUnits="userSpaceOnUse">
<stop offset="0.11" stop-color="#A5CD39"/>
<stop offset="0.3" stop-color="#84C43F"/>
<stop offset="0.56" stop-color="#51B748"/>
<stop offset="0.66" stop-color="#379D43"/>
<stop offset="0.79" stop-color="#1B813D"/>
<stop offset="0.91" stop-color="#0A6F39"/>
<stop offset="1" stop-color="#046938"/>
</linearGradient>
<linearGradient id="paint2_linear" x1="61.1311" y1="47.5198" x2="61.1101" y2="53.6194" gradientUnits="userSpaceOnUse">
<stop offset="0.11" stop-color="#A5CD39"/>
<stop offset="0.3" stop-color="#84C43F"/>
<stop offset="0.56" stop-color="#51B748"/>
<stop offset="0.66" stop-color="#379D43"/>
<stop offset="0.79" stop-color="#1B813D"/>
<stop offset="0.91" stop-color="#0A6F39"/>
<stop offset="1" stop-color="#046938"/>
</linearGradient>
<linearGradient id="paint3_linear" x1="48.0518" y1="3.7151" x2="47.2977" y2="22.5695" gradientUnits="userSpaceOnUse">
<stop offset="0.11" stop-color="#A5CD39"/>
<stop offset="0.3" stop-color="#84C43F"/>
<stop offset="0.56" stop-color="#51B748"/>
<stop offset="0.66" stop-color="#379D43"/>
<stop offset="0.79" stop-color="#1B813D"/>
<stop offset="0.91" stop-color="#0A6F39"/>
<stop offset="1" stop-color="#046938"/>
</linearGradient>
</defs>
</svg>
