<svg width="89" height="90" viewBox="0 0 89 90" fill="none" xmlns="http://www.w3.org/2000/svg">
<g clip-path="url(#clip0)">
<path d="M44.2901 0.590196H44.0601C32.4302 0.764963 21.3358 5.50757 13.1734 13.7936C5.01092 22.0797 0.435547 33.244 0.435547 44.8752C0.435547 56.5064 5.01092 67.6707 13.1734 75.9568C21.3358 84.2428 32.4302 88.9854 44.0601 89.1602H44.2901C50.2026 89.3141 56.0862 88.2825 61.5937 86.1261C67.1011 83.9698 72.1211 80.7324 76.3574 76.605C80.5937 72.4775 83.9606 67.5435 86.2595 62.094C88.5584 56.6445 89.7428 50.7898 89.7428 44.8752C89.7428 38.9606 88.5584 33.1059 86.2595 27.6564C83.9606 22.2069 80.5937 17.2729 76.3574 13.1454C72.1211 9.01797 67.1011 5.7806 61.5937 3.62427C56.0862 1.46793 50.2026 0.436294 44.2901 0.590196V0.590196Z" fill="#7CAA6B"/>
<path d="M44.29 3.53013H44.06C33.206 3.69893 22.8537 8.12916 15.2377 15.8645C7.62174 23.5998 3.35303 34.0198 3.35303 44.8751C3.35303 55.7305 7.62174 66.1504 15.2377 73.8858C22.8537 81.6211 33.206 86.0513 44.06 86.2201H44.29C49.7749 86.3054 55.222 85.2988 60.3142 83.2588C65.4064 81.2188 70.0418 78.1862 73.9508 74.3376C77.8597 70.4889 80.964 65.9012 83.0829 60.8413C85.2019 55.7815 86.2931 50.3507 86.2931 44.8651C86.2931 39.3795 85.2019 33.9487 83.0829 28.8889C80.964 23.8291 77.8597 19.2413 73.9508 15.3927C70.0418 11.5441 65.4064 8.51149 60.3142 6.47149C55.222 4.43149 49.7749 3.42483 44.29 3.51013V3.53013Z" fill="url(#paint0_linear)"/>
<path d="M54.17 46.0401H47.62V67.1301H37.91V46.0401H33.29V37.7901H37.91V32.4401C37.91 28.6201 39.72 22.6401 47.71 22.6401H54.9V30.6401H49.68C49.39 30.6291 49.101 30.6814 48.8332 30.7933C48.5653 30.9052 48.3251 31.074 48.129 31.2881C47.933 31.5022 47.786 31.7564 47.6981 32.0331C47.6102 32.3097 47.5835 32.6022 47.62 32.8901V37.7901H55L54.17 46.0401Z" fill="white"/>
</g>
<defs>
<linearGradient id="paint0_linear" x1="121.931" y1="-211.387" x2="108.841" y2="124.441" gradientUnits="userSpaceOnUse">
<stop offset="0.11" stop-color="#A5CD39"/>
<stop offset="0.3" stop-color="#84C43F"/>
<stop offset="0.56" stop-color="#51B748"/>
<stop offset="0.66" stop-color="#379D43"/>
<stop offset="0.79" stop-color="#1B813D"/>
<stop offset="0.91" stop-color="#0A6F39"/>
<stop offset="1" stop-color="#046938"/>
</linearGradient>
<clipPath id="clip0">
<rect width="88.59" height="88.59" fill="white" transform="translate(0 0.590088)"/>
</clipPath>
</defs>
</svg>
