<svg width="49" height="48" viewBox="0 0 49 48" fill="none" xmlns="http://www.w3.org/2000/svg">
<path fill-rule="evenodd" clip-rule="evenodd" d="M21.5 13.0001C21.5 11.3441 22.844 10.0001 24.5 10.0001C26.156 10.0001 27.5 11.3441 27.5 13.0001C27.5 14.6561 26.156 16.0001 24.5 16.0001C22.844 16.0001 21.5 14.6561 21.5 13.0001ZM29.902 18.5005C29.074 17.0665 29.566 15.2305 31 14.4025C32.436 13.5745 34.27 14.0665 35.098 15.5005C35.926 16.9365 35.434 18.7705 34 19.5985C32.564 20.4265 30.73 19.9365 29.902 18.5005ZM18 14.4025C16.566 13.5745 14.73 14.0665 13.902 15.5005C13.074 16.9365 13.566 18.7705 15 19.5985C16.436 20.4265 18.27 19.9365 19.098 18.5005C19.926 17.0665 19.436 15.2305 18 14.4025ZM12.0142 26.6777C11.0862 25.3057 11.4482 23.4397 12.8222 22.5137C14.1962 21.5857 16.0602 21.9497 16.9862 23.3217C17.9142 24.6957 17.5502 26.5597 16.1782 27.4857C14.8042 28.4137 12.9402 28.0517 12.0142 26.6777ZM32.2618 30.0021H28.9618C26.2038 30.0021 23.9618 32.2441 23.9618 35.0021C23.9618 36.2141 24.4098 37.3881 25.2238 38.3081C25.4718 38.5881 25.5538 38.9181 25.4658 39.2841C25.3678 39.6941 24.8958 39.9601 24.2778 40.0001C19.7118 39.9381 15.3778 37.9161 12.3858 34.4541C9.35579 30.9441 8.02779 26.4461 8.64779 21.7901C9.66979 14.1241 16.5638 8.06607 24.3458 8.00007H24.4958C29.2098 8.00007 33.6518 9.80007 36.7098 12.9561C39.2858 15.6141 40.6298 19.0041 40.4898 22.5001C40.3318 26.4961 36.4858 30.0021 32.2618 30.0021ZM39.5798 10.1701C35.7338 6.20207 30.1298 3.98607 24.3118 4.00007H24.3098C14.4218 4.08407 5.98179 11.5041 4.68379 21.2621C3.91979 26.9821 5.62579 32.7441 9.35979 37.0681C13.0958 41.3961 18.5138 43.9221 24.2218 44.0001H24.2978C26.6978 44.0001 28.8138 42.4261 29.3518 40.2281C29.7498 38.5841 29.3358 36.9161 28.2178 35.6521C28.0538 35.4701 27.9618 35.2321 27.9618 35.0021C27.9618 34.4521 28.4098 34.0021 28.9618 34.0021H32.2618C38.6458 34.0021 44.2438 28.8061 44.4858 22.6581C44.6698 18.0581 42.9278 13.6241 39.5798 10.1701Z" fill="#609B48"/>
<mask id="mask0" mask-type="alpha" maskUnits="userSpaceOnUse" x="4" y="4" width="41" height="40">
<path fill-rule="evenodd" clip-rule="evenodd" d="M21.5 13.0001C21.5 11.3441 22.844 10.0001 24.5 10.0001C26.156 10.0001 27.5 11.3441 27.5 13.0001C27.5 14.6561 26.156 16.0001 24.5 16.0001C22.844 16.0001 21.5 14.6561 21.5 13.0001ZM29.902 18.5005C29.074 17.0665 29.566 15.2305 31 14.4025C32.436 13.5745 34.27 14.0665 35.098 15.5005C35.926 16.9365 35.434 18.7705 34 19.5985C32.564 20.4265 30.73 19.9365 29.902 18.5005ZM18 14.4025C16.566 13.5745 14.73 14.0665 13.902 15.5005C13.074 16.9365 13.566 18.7705 15 19.5985C16.436 20.4265 18.27 19.9365 19.098 18.5005C19.926 17.0665 19.436 15.2305 18 14.4025ZM12.0142 26.6777C11.0862 25.3057 11.4482 23.4397 12.8222 22.5137C14.1962 21.5857 16.0602 21.9497 16.9862 23.3217C17.9142 24.6957 17.5502 26.5597 16.1782 27.4857C14.8042 28.4137 12.9402 28.0517 12.0142 26.6777ZM32.2618 30.0021H28.9618C26.2038 30.0021 23.9618 32.2441 23.9618 35.0021C23.9618 36.2141 24.4098 37.3881 25.2238 38.3081C25.4718 38.5881 25.5538 38.9181 25.4658 39.2841C25.3678 39.6941 24.8958 39.9601 24.2778 40.0001C19.7118 39.9381 15.3778 37.9161 12.3858 34.4541C9.35579 30.9441 8.02779 26.4461 8.64779 21.7901C9.66979 14.1241 16.5638 8.06607 24.3458 8.00007H24.4958C29.2098 8.00007 33.6518 9.80007 36.7098 12.9561C39.2858 15.6141 40.6298 19.0041 40.4898 22.5001C40.3318 26.4961 36.4858 30.0021 32.2618 30.0021ZM39.5798 10.1701C35.7338 6.20207 30.1298 3.98607 24.3118 4.00007H24.3098C14.4218 4.08407 5.98179 11.5041 4.68379 21.2621C3.91979 26.9821 5.62579 32.7441 9.35979 37.0681C13.0958 41.3961 18.5138 43.9221 24.2218 44.0001H24.2978C26.6978 44.0001 28.8138 42.4261 29.3518 40.2281C29.7498 38.5841 29.3358 36.9161 28.2178 35.6521C28.0538 35.4701 27.9618 35.2321 27.9618 35.0021C27.9618 34.4521 28.4098 34.0021 28.9618 34.0021H32.2618C38.6458 34.0021 44.2438 28.8061 44.4858 22.6581C44.6698 18.0581 42.9278 13.6241 39.5798 10.1701Z" fill="white"/>
</mask>
<g mask="url(#mask0)">
</g>
</svg>
