<svg width="49" height="48" viewBox="0 0 49 48" fill="none" xmlns="http://www.w3.org/2000/svg">
<path fill-rule="evenodd" clip-rule="evenodd" d="M15.4904 19.0329C11.4264 23.4309 11.5124 30.4029 15.7484 34.7209C17.8164 36.8349 20.5644 38.0009 23.4924 38.0029H23.5024C26.4364 38.0029 29.1944 36.8369 31.2724 34.7209C35.5844 30.3249 35.5764 23.1749 31.2544 18.7849L25.2824 12.6829C24.6784 17.6469 22.8164 22.0029 19.5004 22.0029C18.4844 22.0029 16.8284 21.5509 15.4904 19.0329ZM23.5024 42.0029H23.4884C19.4764 41.9989 15.7124 40.4089 12.8904 37.5189C7.06242 31.5789 7.05442 21.9129 12.8724 15.9829L14.8384 13.9949C15.3464 13.4869 16.0844 13.2909 16.7824 13.4729C17.4764 13.6609 18.0164 14.2069 18.1964 14.9029C18.6564 16.6809 19.2044 17.5549 19.5064 17.8869C20.2164 17.1389 21.5004 14.1169 21.5004 9.00294C21.5004 8.70894 21.5004 8.43094 21.4844 8.15294C21.4464 7.56294 21.6724 6.98494 22.1004 6.57694C22.8944 5.82294 24.1664 5.82294 24.9284 6.60694L34.1084 15.9849C39.9484 21.9129 39.9584 31.5789 34.1284 37.5209C31.2904 40.4129 27.5184 42.0029 23.5024 42.0029Z" fill="#F26835"/>
<mask id="mask0" mask-type="alpha" maskUnits="userSpaceOnUse" x="8" y="6" width="31" height="37">
<path fill-rule="evenodd" clip-rule="evenodd" d="M15.4904 19.0329C11.4264 23.4309 11.5124 30.4029 15.7484 34.7209C17.8164 36.8349 20.5644 38.0009 23.4924 38.0029H23.5024C26.4364 38.0029 29.1944 36.8369 31.2724 34.7209C35.5844 30.3249 35.5764 23.1749 31.2544 18.7849L25.2824 12.6829C24.6784 17.6469 22.8164 22.0029 19.5004 22.0029C18.4844 22.0029 16.8284 21.5509 15.4904 19.0329ZM23.5024 42.0029H23.4884C19.4764 41.9989 15.7124 40.4089 12.8904 37.5189C7.06242 31.5789 7.05442 21.9129 12.8724 15.9829L14.8384 13.9949C15.3464 13.4869 16.0844 13.2909 16.7824 13.4729C17.4764 13.6609 18.0164 14.2069 18.1964 14.9029C18.6564 16.6809 19.2044 17.5549 19.5064 17.8869C20.2164 17.1389 21.5004 14.1169 21.5004 9.00294C21.5004 8.70894 21.5004 8.43094 21.4844 8.15294C21.4464 7.56294 21.6724 6.98494 22.1004 6.57694C22.8944 5.82294 24.1664 5.82294 24.9284 6.60694L34.1084 15.9849C39.9484 21.9129 39.9584 31.5789 34.1284 37.5209C31.2904 40.4129 27.5184 42.0029 23.5024 42.0029Z" fill="white"/>
</mask>
<g mask="url(#mask0)">
</g>
</svg>
