<svg width="49" height="48" viewBox="0 0 49 48" fill="none" xmlns="http://www.w3.org/2000/svg">
<path fill-rule="evenodd" clip-rule="evenodd" d="M29.9092 16.789L22.3412 26.727L19.0752 22.555C18.3952 21.683 17.1352 21.531 16.2672 22.213C15.3972 22.893 15.2432 24.151 15.9252 25.019L20.7872 31.233C21.1672 31.717 21.7472 31.999 22.3632 31.999H22.3772C22.9952 31.997 23.5792 31.705 23.9532 31.211L33.0912 19.211C33.7612 18.331 33.5912 17.079 32.7112 16.409C31.8292 15.739 30.5772 15.911 29.9092 16.789ZM24.5 40C15.678 40 8.5 32.822 8.5 24C8.5 15.178 15.678 8 24.5 8C33.322 8 40.5 15.178 40.5 24C40.5 32.822 33.322 40 24.5 40ZM24.5 4C13.454 4 4.5 12.956 4.5 24C4.5 35.044 13.454 44 24.5 44C35.546 44 44.5 35.044 44.5 24C44.5 12.956 35.546 4 24.5 4Z" fill="#E0BF59"/>
<mask id="mask0" mask-type="alpha" maskUnits="userSpaceOnUse" x="4" y="4" width="41" height="40">
<path fill-rule="evenodd" clip-rule="evenodd" d="M29.9092 16.789L22.3412 26.727L19.0752 22.555C18.3952 21.683 17.1352 21.531 16.2672 22.213C15.3972 22.893 15.2432 24.151 15.9252 25.019L20.7872 31.233C21.1672 31.717 21.7472 31.999 22.3632 31.999H22.3772C22.9952 31.997 23.5792 31.705 23.9532 31.211L33.0912 19.211C33.7612 18.331 33.5912 17.079 32.7112 16.409C31.8292 15.739 30.5772 15.911 29.9092 16.789ZM24.5 40C15.678 40 8.5 32.822 8.5 24C8.5 15.178 15.678 8 24.5 8C33.322 8 40.5 15.178 40.5 24C40.5 32.822 33.322 40 24.5 40ZM24.5 4C13.454 4 4.5 12.956 4.5 24C4.5 35.044 13.454 44 24.5 44C35.546 44 44.5 35.044 44.5 24C44.5 12.956 35.546 4 24.5 4Z" fill="white"/>
</mask>
<g mask="url(#mask0)">
</g>
</svg>
