<svg width="64" height="65" viewBox="0 0 64 65" fill="none" xmlns="http://www.w3.org/2000/svg">
<path d="M10.7413 53.1369C10.5595 53.1369 10.3851 53.0647 10.2565 52.9361C10.1279 52.8075 10.0557 52.6331 10.0557 52.4513V31.0947C10.055 31.0043 10.0723 30.9146 10.1065 30.8309C10.1407 30.7471 10.1911 30.671 10.2548 30.6068C10.3185 30.5426 10.3943 30.4917 10.4778 30.4569C10.5613 30.4222 10.6509 30.4043 10.7413 30.4043H24.8261C24.9162 30.4043 25.0053 30.422 25.0885 30.4565C25.1717 30.4909 25.2473 30.5414 25.3109 30.6051C25.3746 30.6688 25.4251 30.7444 25.4596 30.8275C25.494 30.9107 25.5117 30.9999 25.5117 31.0899C25.5117 31.18 25.494 31.2691 25.4596 31.3523C25.4251 31.4355 25.3746 31.5111 25.3109 31.5747C25.2473 31.6384 25.1717 31.6889 25.0885 31.7234C25.0053 31.7578 24.9162 31.7756 24.8261 31.7756H11.4269V52.4513C11.4269 52.6331 11.3547 52.8075 11.2261 52.9361C11.0975 53.0647 10.9231 53.1369 10.7413 53.1369V53.1369Z" fill="url(#paint0_linear)"/>
<path d="M32.8175 53.1369C32.6356 53.1369 32.4612 53.0647 32.3327 52.9361C32.2041 52.8075 32.1318 52.6331 32.1318 52.4513V11.6378C32.1318 11.4559 32.2041 11.2815 32.3327 11.153C32.4612 11.0244 32.6356 10.9521 32.8175 10.9521C32.9993 10.9521 33.1737 11.0244 33.3023 11.153C33.4309 11.2815 33.5031 11.4559 33.5031 11.6378V52.4513C33.5031 52.6331 33.4309 52.8075 33.3023 52.9361C33.1737 53.0647 32.9993 53.1369 32.8175 53.1369V53.1369Z" fill="url(#paint1_linear)"/>
<path d="M46.0518 53.1369C45.87 53.1369 45.6956 53.0646 45.567 52.936C45.4384 52.8075 45.3662 52.6331 45.3662 52.4512V26.3121C45.3662 26.1303 45.4384 25.9559 45.567 25.8273C45.6956 25.6987 45.87 25.6265 46.0518 25.6265C46.2337 25.6265 46.4081 25.6987 46.5367 25.8273C46.6652 25.9559 46.7375 26.1303 46.7375 26.3121V52.4512C46.7375 52.5413 46.7197 52.6304 46.6853 52.7136C46.6508 52.7968 46.6003 52.8724 46.5367 52.936C46.473 52.9997 46.3974 53.0502 46.3142 53.0847C46.231 53.1191 46.1419 53.1369 46.0518 53.1369V53.1369Z" fill="url(#paint2_linear)"/>
<path d="M14.5164 34.4137H13.0587C12.8768 34.4137 12.7024 34.3415 12.5739 34.2129C12.4453 34.0843 12.373 33.9099 12.373 33.7281C12.373 33.5463 12.4453 33.3719 12.5739 33.2433C12.7024 33.1147 12.8768 33.0425 13.0587 33.0425H14.5164C14.6982 33.0425 14.8726 33.1147 15.0012 33.2433C15.1298 33.3719 15.202 33.5463 15.202 33.7281C15.202 33.9099 15.1298 34.0843 15.0012 34.2129C14.8726 34.3415 14.6982 34.4137 14.5164 34.4137V34.4137Z" fill="url(#paint3_linear)"/>
<path d="M18.5135 34.4137H17.0557C16.8739 34.4137 16.6995 34.3415 16.5709 34.2129C16.4424 34.0843 16.3701 33.9099 16.3701 33.7281C16.3701 33.5463 16.4424 33.3719 16.5709 33.2433C16.6995 33.1147 16.8739 33.0425 17.0557 33.0425H18.5135C18.6953 33.0425 18.8697 33.1147 18.9983 33.2433C19.1268 33.3719 19.1991 33.5463 19.1991 33.7281C19.1991 33.9099 19.1268 34.0843 18.9983 34.2129C18.8697 34.3415 18.6953 34.4137 18.5135 34.4137V34.4137Z" fill="url(#paint4_linear)"/>
<path d="M22.5083 34.4137H21.0518C20.87 34.4137 20.6956 34.3415 20.567 34.2129C20.4384 34.0843 20.3662 33.9099 20.3662 33.7281C20.3662 33.5463 20.4384 33.3719 20.567 33.2433C20.6956 33.1147 20.87 33.0425 21.0518 33.0425H22.5083C22.6902 33.0425 22.8646 33.1147 22.9932 33.2433C23.1217 33.3719 23.194 33.5463 23.194 33.7281C23.194 33.9099 23.1217 34.0843 22.9932 34.2129C22.8646 34.3415 22.6902 34.4137 22.5083 34.4137V34.4137Z" fill="url(#paint5_linear)"/>
<path d="M14.5164 37.632H13.0587C12.8768 37.632 12.7024 37.5598 12.5739 37.4312C12.4453 37.3026 12.373 37.1282 12.373 36.9464C12.373 36.7645 12.4453 36.5901 12.5739 36.4616C12.7024 36.333 12.8768 36.2607 13.0587 36.2607H14.5164C14.6982 36.2607 14.8726 36.333 15.0012 36.4616C15.1298 36.5901 15.202 36.7645 15.202 36.9464C15.202 37.1282 15.1298 37.3026 15.0012 37.4312C14.8726 37.5598 14.6982 37.632 14.5164 37.632V37.632Z" fill="url(#paint6_linear)"/>
<path d="M18.5135 37.632H17.0557C16.8739 37.632 16.6995 37.5598 16.5709 37.4312C16.4424 37.3026 16.3701 37.1282 16.3701 36.9464C16.3701 36.7645 16.4424 36.5901 16.5709 36.4616C16.6995 36.333 16.8739 36.2607 17.0557 36.2607H18.5135C18.6953 36.2607 18.8697 36.333 18.9983 36.4616C19.1268 36.5901 19.1991 36.7645 19.1991 36.9464C19.1991 37.1282 19.1268 37.3026 18.9983 37.4312C18.8697 37.5598 18.6953 37.632 18.5135 37.632V37.632Z" fill="url(#paint7_linear)"/>
<path d="M22.5083 37.632H21.0518C20.87 37.632 20.6956 37.5598 20.567 37.4312C20.4384 37.3026 20.3662 37.1282 20.3662 36.9464C20.3662 36.7645 20.4384 36.5901 20.567 36.4616C20.6956 36.333 20.87 36.2607 21.0518 36.2607H22.5083C22.6902 36.2607 22.8646 36.333 22.9932 36.4616C23.1217 36.5901 23.194 36.7645 23.194 36.9464C23.194 37.1282 23.1217 37.3026 22.9932 37.4312C22.8646 37.5598 22.6902 37.632 22.5083 37.632V37.632Z" fill="url(#paint8_linear)"/>
<path d="M14.5164 40.8507H13.0587C12.8768 40.8507 12.7024 40.7785 12.5739 40.6499C12.4453 40.5214 12.373 40.347 12.373 40.1651C12.373 39.9833 12.4453 39.8089 12.5739 39.6803C12.7024 39.5517 12.8768 39.4795 13.0587 39.4795H14.5164C14.6982 39.4795 14.8726 39.5517 15.0012 39.6803C15.1298 39.8089 15.202 39.9833 15.202 40.1651C15.202 40.347 15.1298 40.5214 15.0012 40.6499C14.8726 40.7785 14.6982 40.8507 14.5164 40.8507V40.8507Z" fill="url(#paint9_linear)"/>
<path d="M18.5135 40.8507H17.0557C16.8739 40.8507 16.6995 40.7785 16.5709 40.6499C16.4424 40.5214 16.3701 40.347 16.3701 40.1651C16.3701 39.9833 16.4424 39.8089 16.5709 39.6803C16.6995 39.5517 16.8739 39.4795 17.0557 39.4795H18.5135C18.6953 39.4795 18.8697 39.5517 18.9983 39.6803C19.1268 39.8089 19.1991 39.9833 19.1991 40.1651C19.1991 40.347 19.1268 40.5214 18.9983 40.6499C18.8697 40.7785 18.6953 40.8507 18.5135 40.8507V40.8507Z" fill="url(#paint10_linear)"/>
<path d="M22.5083 40.8507H21.0518C20.87 40.8507 20.6956 40.7785 20.567 40.6499C20.4384 40.5214 20.3662 40.347 20.3662 40.1651C20.3662 39.9833 20.4384 39.8089 20.567 39.6803C20.6956 39.5517 20.87 39.4795 21.0518 39.4795H22.5083C22.6902 39.4795 22.8646 39.5517 22.9932 39.6803C23.1217 39.8089 23.194 39.9833 23.194 40.1651C23.194 40.347 23.1217 40.5214 22.9932 40.6499C22.8646 40.7785 22.6902 40.8507 22.5083 40.8507V40.8507Z" fill="url(#paint11_linear)"/>
<path d="M14.5164 44.0675H13.0587C12.8768 44.0675 12.7024 43.9953 12.5739 43.8667C12.4453 43.7382 12.373 43.5638 12.373 43.3819C12.373 43.2001 12.4453 43.0257 12.5739 42.8971C12.7024 42.7685 12.8768 42.6963 13.0587 42.6963H14.5164C14.6982 42.6963 14.8726 42.7685 15.0012 42.8971C15.1298 43.0257 15.202 43.2001 15.202 43.3819C15.202 43.5638 15.1298 43.7382 15.0012 43.8667C14.8726 43.9953 14.6982 44.0675 14.5164 44.0675V44.0675Z" fill="url(#paint12_linear)"/>
<path d="M18.5135 44.0675H17.0557C16.8739 44.0675 16.6995 43.9953 16.5709 43.8667C16.4424 43.7382 16.3701 43.5638 16.3701 43.3819C16.3701 43.2001 16.4424 43.0257 16.5709 42.8971C16.6995 42.7685 16.8739 42.6963 17.0557 42.6963H18.5135C18.6953 42.6963 18.8697 42.7685 18.9983 42.8971C19.1268 43.0257 19.1991 43.2001 19.1991 43.3819C19.1991 43.5638 19.1268 43.7382 18.9983 43.8667C18.8697 43.9953 18.6953 44.0675 18.5135 44.0675V44.0675Z" fill="url(#paint13_linear)"/>
<path d="M22.5083 44.0675H21.0518C20.87 44.0675 20.6956 43.9953 20.567 43.8667C20.4384 43.7382 20.3662 43.5638 20.3662 43.3819C20.3662 43.2001 20.4384 43.0257 20.567 42.8971C20.6956 42.7685 20.87 42.6963 21.0518 42.6963H22.5083C22.6902 42.6963 22.8646 42.7685 22.9932 42.8971C23.1217 43.0257 23.194 43.2001 23.194 43.3819C23.194 43.5638 23.1217 43.7382 22.9932 43.8667C22.8646 43.9953 22.6902 44.0675 22.5083 44.0675V44.0675Z" fill="url(#paint14_linear)"/>
<path d="M14.5164 47.2853H13.0587C12.8768 47.2853 12.7024 47.2131 12.5739 47.0845C12.4453 46.9559 12.373 46.7815 12.373 46.5997C12.373 46.4178 12.4453 46.2435 12.5739 46.1149C12.7024 45.9863 12.8768 45.9141 13.0587 45.9141H14.5164C14.6982 45.9141 14.8726 45.9863 15.0012 46.1149C15.1298 46.2435 15.202 46.4178 15.202 46.5997C15.202 46.7815 15.1298 46.9559 15.0012 47.0845C14.8726 47.2131 14.6982 47.2853 14.5164 47.2853V47.2853Z" fill="url(#paint15_linear)"/>
<path d="M18.5135 47.2853H17.0557C16.8739 47.2853 16.6995 47.2131 16.5709 47.0845C16.4424 46.9559 16.3701 46.7815 16.3701 46.5997C16.3701 46.4178 16.4424 46.2435 16.5709 46.1149C16.6995 45.9863 16.8739 45.9141 17.0557 45.9141H18.5135C18.6953 45.9141 18.8697 45.9863 18.9983 46.1149C19.1268 46.2435 19.1991 46.4178 19.1991 46.5997C19.1991 46.7815 19.1268 46.9559 18.9983 47.0845C18.8697 47.2131 18.6953 47.2853 18.5135 47.2853V47.2853Z" fill="url(#paint16_linear)"/>
<path d="M22.5083 47.2853H21.0518C20.87 47.2853 20.6956 47.2131 20.567 47.0845C20.4384 46.9559 20.3662 46.7815 20.3662 46.5997C20.3662 46.4178 20.4384 46.2435 20.567 46.1149C20.6956 45.9863 20.87 45.9141 21.0518 45.9141H22.5083C22.6902 45.9141 22.8646 45.9863 22.9932 46.1149C23.1217 46.2435 23.194 46.4178 23.194 46.5997C23.194 46.7815 23.1217 46.9559 22.9932 47.0845C22.8646 47.2131 22.6902 47.2853 22.5083 47.2853V47.2853Z" fill="url(#paint17_linear)"/>
<path d="M14.5164 50.5036H13.0587C12.8768 50.5036 12.7024 50.4313 12.5739 50.3028C12.4453 50.1742 12.373 49.9998 12.373 49.818C12.373 49.6361 12.4453 49.4617 12.5739 49.3331C12.7024 49.2046 12.8768 49.1323 13.0587 49.1323H14.5164C14.6982 49.1323 14.8726 49.2046 15.0012 49.3331C15.1298 49.4617 15.202 49.6361 15.202 49.818C15.202 49.9998 15.1298 50.1742 15.0012 50.3028C14.8726 50.4313 14.6982 50.5036 14.5164 50.5036V50.5036Z" fill="url(#paint18_linear)"/>
<path d="M18.5135 50.5036H17.0557C16.8739 50.5036 16.6995 50.4313 16.5709 50.3028C16.4424 50.1742 16.3701 49.9998 16.3701 49.818C16.3701 49.6361 16.4424 49.4617 16.5709 49.3331C16.6995 49.2046 16.8739 49.1323 17.0557 49.1323H18.5135C18.6953 49.1323 18.8697 49.2046 18.9983 49.3331C19.1268 49.4617 19.1991 49.6361 19.1991 49.818C19.1991 49.9998 19.1268 50.1742 18.9983 50.3028C18.8697 50.4313 18.6953 50.5036 18.5135 50.5036V50.5036Z" fill="url(#paint19_linear)"/>
<path d="M22.5083 50.5036H21.0518C20.87 50.5036 20.6956 50.4313 20.567 50.3028C20.4384 50.1742 20.3662 49.9998 20.3662 49.818C20.3662 49.6361 20.4384 49.4617 20.567 49.3331C20.6956 49.2046 20.87 49.1323 21.0518 49.1323H22.5083C22.6902 49.1323 22.8646 49.2046 22.9932 49.3331C23.1217 49.4617 23.194 49.6361 23.194 49.818C23.194 49.9998 23.1217 50.1742 22.9932 50.3028C22.8646 50.4313 22.6902 50.5036 22.5083 50.5036V50.5036Z" fill="url(#paint20_linear)"/>
<path d="M30.4014 18.3512C30.2196 18.3512 30.0452 18.279 29.9166 18.1504C29.7881 18.0218 29.7158 17.8474 29.7158 17.6656V16.3712C29.7158 16.1893 29.7881 16.0149 29.9166 15.8864C30.0452 15.7578 30.2196 15.6855 30.4014 15.6855C30.5833 15.6855 30.7577 15.7578 30.8863 15.8864C31.0148 16.0149 31.0871 16.1893 31.0871 16.3712V17.6656C31.0871 17.8474 31.0148 18.0218 30.8863 18.1504C30.7577 18.279 30.5833 18.3512 30.4014 18.3512V18.3512Z" fill="url(#paint21_linear)"/>
<path d="M27.2745 19.1486C27.0927 19.1486 26.9183 19.0763 26.7897 18.9478C26.6611 18.8192 26.5889 18.6448 26.5889 18.463V17.1685C26.5889 17.0785 26.6066 16.9893 26.6411 16.9062C26.6755 16.823 26.726 16.7474 26.7897 16.6837C26.8533 16.6201 26.9289 16.5696 27.0121 16.5351C27.0953 16.5006 27.1845 16.4829 27.2745 16.4829C27.3645 16.4829 27.4537 16.5006 27.5369 16.5351C27.6201 16.5696 27.6956 16.6201 27.7593 16.6837C27.823 16.7474 27.8735 16.823 27.9079 16.9062C27.9424 16.9893 27.9601 17.0785 27.9601 17.1685V18.463C27.9601 18.6448 27.8879 18.8192 27.7593 18.9478C27.6307 19.0763 27.4563 19.1486 27.2745 19.1486V19.1486Z" fill="url(#paint22_linear)"/>
<path d="M30.4015 23.5082C30.2196 23.5082 30.0452 23.436 29.9166 23.3074C29.7881 23.1788 29.7158 23.0044 29.7158 22.8226V21.5294C29.7158 21.3475 29.7881 21.1731 29.9166 21.0446C30.0452 20.916 30.2196 20.8438 30.4015 20.8438C30.5833 20.8438 30.7577 20.916 30.8863 21.0446C31.0148 21.1731 31.0871 21.3475 31.0871 21.5294V22.8226C31.0872 22.9127 31.0696 23.0019 31.0352 23.0852C31.0008 23.1684 30.9503 23.2441 30.8866 23.3078C30.8229 23.3715 30.7473 23.4219 30.664 23.4563C30.5808 23.4907 30.4915 23.5084 30.4015 23.5082V23.5082Z" fill="url(#paint23_linear)"/>
<path d="M27.2745 24.3061C27.0927 24.3061 26.9183 24.2338 26.7897 24.1053C26.6611 23.9767 26.5889 23.8023 26.5889 23.6204V22.3272C26.5889 22.2372 26.6066 22.148 26.6411 22.0649C26.6755 21.9817 26.726 21.9061 26.7897 21.8424C26.8534 21.7788 26.9289 21.7282 27.0121 21.6938C27.0953 21.6593 27.1845 21.6416 27.2745 21.6416C27.3645 21.6416 27.4537 21.6593 27.5369 21.6938C27.6201 21.7282 27.6956 21.7788 27.7593 21.8424C27.823 21.9061 27.8735 21.9817 27.9079 22.0649C27.9424 22.148 27.9601 22.2372 27.9601 22.3272V23.6204C27.9603 23.7105 27.9427 23.7998 27.9083 23.883C27.8739 23.9663 27.8234 24.0419 27.7597 24.1056C27.696 24.1693 27.6203 24.2198 27.5371 24.2542C27.4538 24.2886 27.3646 24.3062 27.2745 24.3061V24.3061Z" fill="url(#paint24_linear)"/>
<path d="M30.4015 28.6694C30.2196 28.6694 30.0452 28.5972 29.9166 28.4686C29.7881 28.34 29.7158 28.1657 29.7158 27.9838V26.6822C29.7158 26.5004 29.7881 26.326 29.9166 26.1974C30.0452 26.0688 30.2196 25.9966 30.4015 25.9966C30.5833 25.9966 30.7577 26.0688 30.8863 26.1974C31.0148 26.326 31.0871 26.5004 31.0871 26.6822V27.979C31.0877 28.0695 31.0704 28.1591 31.0363 28.2429C31.0021 28.3266 30.9517 28.4028 30.888 28.4669C30.8242 28.5311 30.7484 28.582 30.6649 28.6168C30.5814 28.6516 30.4919 28.6694 30.4015 28.6694V28.6694Z" fill="url(#paint25_linear)"/>
<path d="M27.2745 29.464C27.0927 29.464 26.9183 29.3918 26.7897 29.2632C26.6611 29.1346 26.5889 28.9602 26.5889 28.7784V27.484C26.5889 27.3939 26.6066 27.3048 26.6411 27.2216C26.6755 27.1384 26.726 27.0628 26.7897 26.9992C26.8533 26.9355 26.9289 26.885 27.0121 26.8505C27.0953 26.8161 27.1845 26.7983 27.2745 26.7983C27.3645 26.7983 27.4537 26.8161 27.5369 26.8505C27.6201 26.885 27.6956 26.9355 27.7593 26.9992C27.823 27.0628 27.8735 27.1384 27.9079 27.2216C27.9424 27.3048 27.9601 27.3939 27.9601 27.484V28.7784C27.9601 28.9602 27.8879 29.1346 27.7593 29.2632C27.6307 29.3918 27.4563 29.464 27.2745 29.464V29.464Z" fill="url(#paint26_linear)"/>
<path d="M30.4014 33.8241C30.2196 33.8241 30.0452 33.7519 29.9166 33.6233C29.7881 33.4947 29.7158 33.3203 29.7158 33.1385V31.8453C29.7158 31.6635 29.7881 31.4891 29.9166 31.3605C30.0452 31.2319 30.2196 31.1597 30.4014 31.1597C30.5833 31.1597 30.7577 31.2319 30.8863 31.3605C31.0148 31.4891 31.0871 31.6635 31.0871 31.8453V33.1397C31.0868 33.3213 31.0144 33.4954 30.8858 33.6237C30.7573 33.7521 30.5831 33.8241 30.4014 33.8241V33.8241Z" fill="url(#paint27_linear)"/>
<path d="M27.2745 34.6212C27.0927 34.6212 26.9183 34.549 26.7897 34.4204C26.6611 34.2918 26.5889 34.1174 26.5889 33.9356V32.6412C26.5889 32.5512 26.6066 32.462 26.6411 32.3788C26.6755 32.2956 26.726 32.22 26.7897 32.1564C26.8533 32.0927 26.9289 32.0422 27.0121 32.0078C27.0953 31.9733 27.1845 31.9556 27.2745 31.9556C27.3645 31.9556 27.4537 31.9733 27.5369 32.0078C27.6201 32.0422 27.6956 32.0927 27.7593 32.1564C27.823 32.22 27.8735 32.2956 27.9079 32.3788C27.9424 32.462 27.9601 32.5512 27.9601 32.6412V33.9356C27.9601 34.1174 27.8879 34.2918 27.7593 34.4204C27.6307 34.549 27.4563 34.6212 27.2745 34.6212V34.6212Z" fill="url(#paint28_linear)"/>
<path d="M30.4014 38.9812C30.2196 38.9812 30.0452 38.909 29.9166 38.7804C29.7881 38.6518 29.7158 38.4774 29.7158 38.2956V37.0084C29.7158 36.8265 29.7881 36.6521 29.9166 36.5236C30.0452 36.395 30.2196 36.3228 30.4014 36.3228C30.5833 36.3228 30.7577 36.395 30.8863 36.5236C31.0148 36.6521 31.0871 36.8265 31.0871 37.0084V38.3016C31.0858 38.4825 31.013 38.6555 30.8845 38.7829C30.756 38.9102 30.5823 38.9815 30.4014 38.9812V38.9812Z" fill="url(#paint29_linear)"/>
<path d="M27.2745 39.777C27.0927 39.777 26.9183 39.7048 26.7897 39.5762C26.6611 39.4476 26.5889 39.2732 26.5889 39.0914V37.7994C26.5889 37.7094 26.6066 37.6202 26.6411 37.537C26.6755 37.4538 26.726 37.3783 26.7897 37.3146C26.8534 37.2509 26.9289 37.2004 27.0121 37.166C27.0953 37.1315 27.1845 37.1138 27.2745 37.1138C27.3645 37.1138 27.4537 37.1315 27.5369 37.166C27.6201 37.2004 27.6956 37.2509 27.7593 37.3146C27.823 37.3783 27.8735 37.4538 27.9079 37.537C27.9424 37.6202 27.9601 37.7094 27.9601 37.7994V39.0914C27.9603 39.1815 27.9427 39.2707 27.9083 39.354C27.8739 39.4372 27.8234 39.5129 27.7597 39.5766C27.696 39.6403 27.6203 39.6908 27.5371 39.7252C27.4538 39.7596 27.3646 39.7772 27.2745 39.777Z" fill="url(#paint30_linear)"/>
<path d="M30.4014 44.1393C30.2196 44.1393 30.0452 44.0671 29.9166 43.9385C29.7881 43.8099 29.7158 43.6355 29.7158 43.4537V42.1593C29.7158 41.9774 29.7881 41.803 29.9166 41.6745C30.0452 41.5459 30.2196 41.4736 30.4014 41.4736C30.5833 41.4736 30.7577 41.5459 30.8863 41.6745C31.0148 41.803 31.0871 41.9774 31.0871 42.1593V43.4537C31.0871 43.6355 31.0148 43.8099 30.8863 43.9385C30.7577 44.0671 30.5833 44.1393 30.4014 44.1393V44.1393Z" fill="url(#paint31_linear)"/>
<path d="M27.2745 44.9335C27.0927 44.9335 26.9183 44.8613 26.7897 44.7327C26.6611 44.6042 26.5889 44.4298 26.5889 44.2479V42.9571C26.5889 42.8671 26.6066 42.7779 26.6411 42.6947C26.6755 42.6116 26.726 42.536 26.7897 42.4723C26.8533 42.4086 26.9289 42.3581 27.0121 42.3237C27.0953 42.2892 27.1845 42.2715 27.2745 42.2715C27.3645 42.2715 27.4537 42.2892 27.5369 42.3237C27.6201 42.3581 27.6956 42.4086 27.7593 42.4723C27.823 42.536 27.8735 42.6116 27.9079 42.6947C27.9424 42.7779 27.9601 42.8671 27.9601 42.9571V44.2515C27.9592 44.4327 27.8865 44.6062 27.758 44.734C27.6296 44.8618 27.4557 44.9336 27.2745 44.9335Z" fill="url(#paint32_linear)"/>
<path d="M30.4014 49.2968C30.2196 49.2968 30.0452 49.2246 29.9166 49.096C29.7881 48.9674 29.7158 48.793 29.7158 48.6112V47.3204C29.7158 47.1386 29.7881 46.9642 29.9166 46.8356C30.0452 46.707 30.2196 46.6348 30.4014 46.6348C30.5833 46.6348 30.7577 46.707 30.8863 46.8356C31.0148 46.9642 31.0871 47.1386 31.0871 47.3204V48.6148C31.0864 48.7961 31.0139 48.9698 30.8853 49.0976C30.7568 49.2255 30.5828 49.2972 30.4014 49.2968V49.2968Z" fill="url(#paint33_linear)"/>
<path d="M27.2745 50.0968C27.0927 50.0968 26.9183 50.0245 26.7897 49.896C26.6611 49.7674 26.5889 49.593 26.5889 49.4112V48.1143C26.5889 48.0243 26.6066 47.9351 26.6411 47.852C26.6755 47.7688 26.726 47.6932 26.7897 47.6295C26.8534 47.5659 26.9289 47.5154 27.0121 47.4809C27.0953 47.4464 27.1845 47.4287 27.2745 47.4287C27.3645 47.4287 27.4537 47.4464 27.5369 47.4809C27.6201 47.5154 27.6956 47.5659 27.7593 47.6295C27.823 47.6932 27.8735 47.7688 27.9079 47.852C27.9424 47.9351 27.9601 48.0243 27.9601 48.1143V49.4087C27.9603 49.4988 27.9427 49.588 27.9084 49.6712C27.8741 49.7545 27.8237 49.8301 27.7602 49.8939C27.6966 49.9577 27.6211 50.0083 27.538 50.0429C27.4549 50.0775 27.3657 50.0954 27.2757 50.0956L27.2745 50.0968Z" fill="url(#paint34_linear)"/>
<path d="M35.1368 17.6982C34.955 17.6982 34.7806 17.6259 34.652 17.4973C34.5234 17.3688 34.4512 17.1944 34.4512 17.0125V15.7193C34.4512 15.5375 34.5234 15.3631 34.652 15.2345C34.7806 15.1059 34.955 15.0337 35.1368 15.0337C35.3186 15.0337 35.493 15.1059 35.6216 15.2345C35.7502 15.3631 35.8224 15.5375 35.8224 15.7193V17.0125C35.8224 17.1944 35.7502 17.3688 35.6216 17.4973C35.493 17.6259 35.3186 17.6982 35.1368 17.6982V17.6982Z" fill="url(#paint35_linear)"/>
<path d="M37.4483 18.5722C37.2665 18.5722 37.0921 18.4999 36.9635 18.3714C36.8349 18.2428 36.7627 18.0684 36.7627 17.8866V16.5957C36.7627 16.4133 36.8352 16.2383 36.9642 16.1092C37.0932 15.9802 37.2682 15.9077 37.4507 15.9077C37.6332 15.9077 37.8082 15.9802 37.9372 16.1092C38.0663 16.2383 38.1388 16.4133 38.1388 16.5957V17.8878C38.1386 17.9781 38.1206 18.0675 38.0858 18.1509C38.0509 18.2342 38 18.3099 37.9358 18.3735C37.8717 18.4371 37.7956 18.4874 37.7119 18.5215C37.6282 18.5556 37.5387 18.5728 37.4483 18.5722V18.5722Z" fill="url(#paint36_linear)"/>
<path d="M39.7624 19.4463C39.6721 19.4463 39.5826 19.4285 39.4992 19.3938C39.4158 19.3591 39.34 19.3083 39.2763 19.2442C39.2126 19.1802 39.1622 19.1042 39.1279 19.0206C39.0937 18.937 39.0763 18.8474 39.0768 18.7571V17.4675C39.0729 17.375 39.0878 17.2826 39.1205 17.196C39.1533 17.1093 39.2032 17.0302 39.2673 16.9634C39.3314 16.8965 39.4084 16.8434 39.4935 16.807C39.5787 16.7707 39.6704 16.752 39.763 16.752C39.8556 16.752 39.9473 16.7707 40.0325 16.807C40.1176 16.8434 40.1946 16.8965 40.2587 16.9634C40.3228 17.0302 40.3727 17.1093 40.4055 17.196C40.4382 17.2826 40.4531 17.375 40.4492 17.4675V18.7571C40.4495 18.8475 40.432 18.9371 40.3976 19.0207C40.3633 19.1043 40.3127 19.1803 40.2489 19.2443C40.1851 19.3083 40.1093 19.3592 40.0258 19.3938C39.9423 19.4285 39.8528 19.4463 39.7624 19.4463V19.4463Z" fill="url(#paint37_linear)"/>
<path d="M35.1368 22.8395C34.955 22.8395 34.7806 22.7673 34.652 22.6387C34.5234 22.5101 34.4512 22.3357 34.4512 22.1539V20.8595C34.4512 20.6776 34.5234 20.5032 34.652 20.3746C34.7806 20.2461 34.955 20.1738 35.1368 20.1738C35.3186 20.1738 35.493 20.2461 35.6216 20.3746C35.7502 20.5032 35.8224 20.6776 35.8224 20.8595V22.1551C35.8221 22.3367 35.7497 22.5108 35.6212 22.6391C35.4926 22.7674 35.3184 22.8395 35.1368 22.8395V22.8395Z" fill="url(#paint38_linear)"/>
<path d="M37.4483 23.7113C37.2665 23.7113 37.0921 23.6391 36.9635 23.5105C36.8349 23.3819 36.7627 23.2076 36.7627 23.0257V21.7325C36.7627 21.5507 36.8349 21.3763 36.9635 21.2477C37.0921 21.1191 37.2665 21.0469 37.4483 21.0469C37.6302 21.0469 37.8046 21.1191 37.9331 21.2477C38.0617 21.3763 38.134 21.5507 38.134 21.7325V23.0257C38.134 23.2076 38.0617 23.3819 37.9331 23.5105C37.8046 23.6391 37.6302 23.7113 37.4483 23.7113V23.7113Z" fill="url(#paint39_linear)"/>
<path d="M39.7628 24.5857C39.5809 24.5857 39.4065 24.5134 39.278 24.3849C39.1494 24.2563 39.0771 24.0819 39.0771 23.9001V22.6068C39.0846 22.4298 39.1601 22.2625 39.288 22.1399C39.4159 22.0172 39.5862 21.9487 39.7634 21.9487C39.9406 21.9487 40.1109 22.0172 40.2388 22.1399C40.3667 22.2625 40.4422 22.4298 40.4496 22.6068V23.9001C40.4493 24.082 40.3768 24.2564 40.248 24.3849C40.1192 24.5135 39.9447 24.5857 39.7628 24.5857V24.5857Z" fill="url(#paint40_linear)"/>
<path d="M35.1368 27.9776C35.0467 27.9778 34.9575 27.9602 34.8742 27.9258C34.791 27.8914 34.7153 27.8409 34.6516 27.7772C34.5879 27.7135 34.5374 27.6378 34.503 27.5546C34.4686 27.4713 34.451 27.3821 34.4512 27.292V25.9952C34.4512 25.8134 34.5234 25.639 34.652 25.5104C34.7806 25.3818 34.955 25.3096 35.1368 25.3096C35.3186 25.3096 35.493 25.3818 35.6216 25.5104C35.7502 25.639 35.8224 25.8134 35.8224 25.9952V27.2884C35.8229 27.3785 35.8056 27.4679 35.7715 27.5513C35.7374 27.6348 35.6872 27.7107 35.6237 27.7747C35.5603 27.8387 35.4848 27.8896 35.4017 27.9244C35.3185 27.9592 35.2293 27.9773 35.1392 27.9776H35.1368Z" fill="url(#paint41_linear)"/>
<path d="M37.4483 28.8517C37.3583 28.8517 37.2691 28.834 37.186 28.7995C37.1028 28.7651 37.0272 28.7146 36.9635 28.6509C36.8998 28.5872 36.8493 28.5116 36.8149 28.4285C36.7804 28.3453 36.7627 28.2561 36.7627 28.1661V26.8717C36.7627 26.6898 36.8349 26.5154 36.9635 26.3869C37.0921 26.2583 37.2665 26.186 37.4483 26.186C37.6302 26.186 37.8046 26.2583 37.9331 26.3869C38.0617 26.5154 38.134 26.6898 38.134 26.8717V28.1661C38.134 28.3479 38.0617 28.5223 37.9331 28.6509C37.8046 28.7795 37.6302 28.8517 37.4483 28.8517V28.8517Z" fill="url(#paint42_linear)"/>
<path d="M39.7628 29.7248C39.5809 29.7248 39.4065 29.6526 39.278 29.524C39.1494 29.3954 39.0771 29.2211 39.0771 29.0392V27.746C39.0846 27.569 39.1601 27.4017 39.288 27.279C39.4159 27.1564 39.5862 27.0879 39.7634 27.0879C39.9406 27.0879 40.1109 27.1564 40.2388 27.279C40.3667 27.4017 40.4422 27.569 40.4496 27.746V29.0392C40.4493 29.2212 40.3768 29.3956 40.248 29.5241C40.1192 29.6526 39.9447 29.7248 39.7628 29.7248V29.7248Z" fill="url(#paint43_linear)"/>
<path d="M35.1368 33.1178C35.0468 33.1178 34.9576 33.1001 34.8744 33.0656C34.7912 33.0312 34.7157 32.9807 34.652 32.917C34.5883 32.8533 34.5378 32.7777 34.5034 32.6946C34.4689 32.6114 34.4512 32.5222 34.4512 32.4322V31.1378C34.4512 30.9559 34.5234 30.7815 34.652 30.653C34.7806 30.5244 34.955 30.4521 35.1368 30.4521C35.3186 30.4521 35.493 30.5244 35.6216 30.653C35.7502 30.7815 35.8224 30.9559 35.8224 31.1378V32.4322C35.8224 32.614 35.7502 32.7884 35.6216 32.917C35.493 33.0456 35.3186 33.1178 35.1368 33.1178V33.1178Z" fill="url(#paint44_linear)"/>
<path d="M37.4483 33.9908C37.2665 33.9908 37.0921 33.9186 36.9635 33.79C36.8349 33.6615 36.7627 33.4871 36.7627 33.3052V32.0108C36.7627 31.829 36.8349 31.6546 36.9635 31.526C37.0921 31.3974 37.2665 31.3252 37.4483 31.3252C37.6302 31.3252 37.8046 31.3974 37.9331 31.526C38.0617 31.6546 38.134 31.829 38.134 32.0108V33.3052C38.134 33.4871 38.0617 33.6615 37.9331 33.79C37.8046 33.9186 37.6302 33.9908 37.4483 33.9908V33.9908Z" fill="url(#paint45_linear)"/>
<path d="M39.7628 34.8652C39.5809 34.8652 39.4065 34.793 39.278 34.6644C39.1494 34.5358 39.0771 34.3614 39.0771 34.1796V32.8852C39.0846 32.7081 39.1601 32.5408 39.288 32.4182C39.4159 32.2955 39.5862 32.2271 39.7634 32.2271C39.9406 32.2271 40.1109 32.2955 40.2388 32.4182C40.3667 32.5408 40.4422 32.7081 40.4496 32.8852V34.1796C40.4493 34.3615 40.3768 34.5359 40.248 34.6645C40.1192 34.793 39.9447 34.8652 39.7628 34.8652Z" fill="url(#paint46_linear)"/>
<path d="M35.1368 38.2573C34.955 38.2573 34.7806 38.185 34.652 38.0565C34.5234 37.9279 34.4512 37.7535 34.4512 37.5717V36.2808C34.4512 36.099 34.5234 35.9246 34.652 35.796C34.7806 35.6675 34.955 35.5952 35.1368 35.5952C35.3186 35.5952 35.493 35.6675 35.6216 35.796C35.7502 35.9246 35.8224 36.099 35.8224 36.2808V37.5753C35.8215 37.7565 35.7488 37.9299 35.6203 38.0577C35.4919 38.1855 35.318 38.2573 35.1368 38.2573V38.2573Z" fill="url(#paint47_linear)"/>
<path d="M37.4483 39.1303C37.2665 39.1303 37.0921 39.0581 36.9635 38.9295C36.8349 38.8009 36.7627 38.6265 36.7627 38.4447V37.1515C36.7627 36.9696 36.8349 36.7952 36.9635 36.6666C37.0921 36.5381 37.2665 36.4658 37.4483 36.4658C37.6302 36.4658 37.8046 36.5381 37.9331 36.6666C38.0617 36.7952 38.134 36.9696 38.134 37.1515V38.4495C38.1327 38.6305 38.0599 38.8036 37.9315 38.9312C37.803 39.0587 37.6293 39.1303 37.4483 39.1303Z" fill="url(#paint48_linear)"/>
<path d="M39.7628 40.0104C39.5809 40.0104 39.4065 39.9381 39.278 39.8096C39.1494 39.681 39.0771 39.5066 39.0771 39.3247V38.0243C39.0846 37.8473 39.1601 37.68 39.288 37.5573C39.4159 37.4347 39.5862 37.3662 39.7634 37.3662C39.9406 37.3662 40.1109 37.4347 40.2388 37.5573C40.3667 37.68 40.4422 37.8473 40.4496 38.0243V39.3187C40.4503 39.4093 40.433 39.4992 40.3987 39.5831C40.3645 39.6669 40.314 39.7432 40.2502 39.8075C40.1863 39.8718 40.1104 39.9228 40.0267 39.9576C39.9431 39.9924 39.8534 40.0104 39.7628 40.0104V40.0104Z" fill="url(#paint49_linear)"/>
<path d="M35.1368 43.3966C34.955 43.3966 34.7806 43.3244 34.652 43.1958C34.5234 43.0672 34.4512 42.8928 34.4512 42.711V41.4166C34.4512 41.2347 34.5234 41.0604 34.652 40.9318C34.7806 40.8032 34.955 40.731 35.1368 40.731C35.3186 40.731 35.493 40.8032 35.6216 40.9318C35.7502 41.0604 35.8224 41.2347 35.8224 41.4166V42.711C35.8224 42.8928 35.7502 43.0672 35.6216 43.1958C35.493 43.3244 35.3186 43.3966 35.1368 43.3966V43.3966Z" fill="url(#paint50_linear)"/>
<path d="M37.4483 44.2697C37.2665 44.2697 37.0921 44.1974 36.9635 44.0689C36.8349 43.9403 36.7627 43.7659 36.7627 43.584V42.292C36.7627 42.1096 36.8352 41.9346 36.9642 41.8055C37.0932 41.6765 37.2682 41.604 37.4507 41.604C37.6332 41.604 37.8082 41.6765 37.9372 41.8055C38.0663 41.9346 38.1388 42.1096 38.1388 42.292V43.5852C38.1386 43.6756 38.1206 43.765 38.0858 43.8484C38.0509 43.9317 38 44.0074 37.9358 44.071C37.8717 44.1346 37.7956 44.1849 37.7119 44.219C37.6282 44.2531 37.5387 44.2703 37.4483 44.2697V44.2697Z" fill="url(#paint51_linear)"/>
<path d="M39.7628 45.1435C39.5809 45.1435 39.4065 45.0713 39.278 44.9427C39.1494 44.8141 39.0771 44.6397 39.0771 44.4579V43.1635C39.0846 42.9865 39.1601 42.8191 39.288 42.6965C39.4159 42.5738 39.5862 42.5054 39.7634 42.5054C39.9406 42.5054 40.1109 42.5738 40.2388 42.6965C40.3667 42.8191 40.4422 42.9865 40.4496 43.1635V44.4531C40.4501 44.5436 40.4327 44.6333 40.3984 44.717C40.364 44.8008 40.3135 44.8769 40.2497 44.9411C40.1859 45.0052 40.11 45.0562 40.0264 45.0909C39.9429 45.1256 39.8533 45.1435 39.7628 45.1435V45.1435Z" fill="url(#paint52_linear)"/>
<path d="M35.1368 48.5358C34.955 48.5358 34.7806 48.4635 34.652 48.335C34.5234 48.2064 34.4512 48.032 34.4512 47.8502V46.5557C34.4512 46.3739 34.5234 46.1995 34.652 46.0709C34.7806 45.9424 34.955 45.8701 35.1368 45.8701C35.3186 45.8701 35.493 45.9424 35.6216 46.0709C35.7502 46.1995 35.8224 46.3739 35.8224 46.5557V47.8502C35.8224 47.9402 35.8047 48.0293 35.7702 48.1125C35.7358 48.1957 35.6853 48.2713 35.6216 48.335C35.5579 48.3986 35.4824 48.4491 35.3992 48.4836C35.316 48.518 35.2268 48.5358 35.1368 48.5358V48.5358Z" fill="url(#paint53_linear)"/>
<path d="M37.4483 49.4098C37.2665 49.4098 37.0921 49.3376 36.9635 49.209C36.8349 49.0804 36.7627 48.906 36.7627 48.7242V47.4298C36.7627 47.2479 36.8349 47.0735 36.9635 46.945C37.0921 46.8164 37.2665 46.7441 37.4483 46.7441C37.6302 46.7441 37.8046 46.8164 37.9331 46.945C38.0617 47.0735 38.134 47.2479 38.134 47.4298V48.7242C38.134 48.906 38.0617 49.0804 37.9331 49.209C37.8046 49.3376 37.6302 49.4098 37.4483 49.4098V49.4098Z" fill="url(#paint54_linear)"/>
<path d="M39.7628 50.2827C39.5809 50.2827 39.4065 50.2105 39.278 50.0819C39.1494 49.9533 39.0771 49.7789 39.0771 49.5971V48.3027C39.0846 48.1256 39.1601 47.9583 39.288 47.8357C39.4159 47.713 39.5862 47.6445 39.7634 47.6445C39.9406 47.6445 40.1109 47.713 40.2388 47.8357C40.3667 47.9583 40.4422 48.1256 40.4496 48.3027V49.5971C40.4493 49.779 40.3768 49.9534 40.248 50.0819C40.1192 50.2105 39.9447 50.2827 39.7628 50.2827V50.2827Z" fill="url(#paint55_linear)"/>
<path d="M48.4356 32.2692C48.2538 32.2692 48.0794 32.1969 47.9508 32.0684C47.8222 31.9398 47.75 31.7654 47.75 31.5835V30.8907C47.75 30.7089 47.8222 30.5345 47.9508 30.4059C48.0794 30.2773 48.2538 30.2051 48.4356 30.2051C48.6175 30.2051 48.7919 30.2773 48.9204 30.4059C49.049 30.5345 49.1213 30.7089 49.1213 30.8907V31.5835C49.1213 31.7654 49.049 31.9398 48.9204 32.0684C48.7919 32.1969 48.6175 32.2692 48.4356 32.2692V32.2692Z" fill="url(#paint56_linear)"/>
<path d="M50.7472 33.722C50.5653 33.722 50.3909 33.6498 50.2623 33.5212C50.1338 33.3926 50.0615 33.2182 50.0615 33.0364V32.3424C50.0615 32.1605 50.1338 31.9861 50.2623 31.8576C50.3909 31.729 50.5653 31.6567 50.7472 31.6567C50.929 31.6567 51.1034 31.729 51.232 31.8576C51.3605 31.9861 51.4328 32.1605 51.4328 32.3424V33.0364C51.4328 33.2182 51.3605 33.3926 51.232 33.5212C51.1034 33.6498 50.929 33.722 50.7472 33.722V33.722Z" fill="url(#paint57_linear)"/>
<path d="M48.4356 35.6553C48.3449 35.656 48.255 35.6386 48.1711 35.6043C48.0872 35.57 48.011 35.5194 47.9468 35.4554C47.8826 35.3914 47.8317 35.3153 47.7971 35.2315C47.7625 35.1478 47.7448 35.058 47.7451 34.9673V34.2745C47.7451 34.0927 47.8174 33.9183 47.9459 33.7897C48.0745 33.6611 48.2489 33.5889 48.4308 33.5889C48.6126 33.5889 48.787 33.6611 48.9156 33.7897C49.0441 33.9183 49.1164 34.0927 49.1164 34.2745V34.9673C49.1161 35.149 49.0437 35.323 48.9151 35.4514C48.7866 35.5797 48.6124 35.6517 48.4308 35.6517L48.4356 35.6553Z" fill="url(#paint58_linear)"/>
<path d="M50.7472 37.1081C50.5653 37.1081 50.3909 37.0358 50.2623 36.9073C50.1338 36.7787 50.0615 36.6043 50.0615 36.4224V35.732C50.0615 35.5502 50.1338 35.3758 50.2623 35.2472C50.3909 35.1186 50.5653 35.0464 50.7472 35.0464C50.929 35.0464 51.1034 35.1186 51.232 35.2472C51.3605 35.3758 51.4328 35.5502 51.4328 35.732V36.4248C51.4318 36.6062 51.3592 36.7798 51.2308 36.9078C51.1023 37.0358 50.9285 37.1078 50.7472 37.1081V37.1081Z" fill="url(#paint59_linear)"/>
<path d="M48.4356 39.0423C48.2538 39.0423 48.0794 38.9701 47.9508 38.8415C47.8222 38.7129 47.75 38.5385 47.75 38.3567V37.6627C47.75 37.4808 47.8222 37.3064 47.9508 37.1779C48.0794 37.0493 48.2538 36.9771 48.4356 36.9771C48.6175 36.9771 48.7919 37.0493 48.9204 37.1779C49.049 37.3064 49.1213 37.4808 49.1213 37.6627V38.3567C49.1213 38.5385 49.049 38.7129 48.9204 38.8415C48.7919 38.9701 48.6175 39.0423 48.4356 39.0423V39.0423Z" fill="url(#paint60_linear)"/>
<path d="M50.7472 40.4908C50.6571 40.4908 50.568 40.4731 50.4848 40.4387C50.4016 40.4042 50.326 40.3537 50.2623 40.29C50.1987 40.2264 50.1482 40.1508 50.1137 40.0676C50.0793 39.9844 50.0615 39.8953 50.0615 39.8052V39.1124C50.0615 38.9305 50.1338 38.7562 50.2623 38.6276C50.3909 38.499 50.5653 38.4268 50.7472 38.4268C50.929 38.4268 51.1034 38.499 51.232 38.6276C51.3605 38.7562 51.4328 38.9305 51.4328 39.1124V39.8052C51.4328 39.8953 51.415 39.9844 51.3806 40.0676C51.3461 40.1508 51.2956 40.2264 51.232 40.29C51.1683 40.3537 51.0927 40.4042 51.0095 40.4387C50.9263 40.4731 50.8372 40.4908 50.7472 40.4908V40.4908Z" fill="url(#paint61_linear)"/>
<path d="M48.4356 42.4288C48.2538 42.4288 48.0794 42.3566 47.9508 42.228C47.8222 42.0994 47.75 41.925 47.75 41.7432V41.0504C47.75 40.8685 47.8222 40.6941 47.9508 40.5656C48.0794 40.437 48.2538 40.3647 48.4356 40.3647C48.6175 40.3647 48.7919 40.437 48.9204 40.5656C49.049 40.6941 49.1213 40.8685 49.1213 41.0504V41.7432C49.1213 41.925 49.049 42.0994 48.9204 42.228C48.7919 42.3566 48.6175 42.4288 48.4356 42.4288V42.4288Z" fill="url(#paint62_linear)"/>
<path d="M50.7472 43.8805C50.5653 43.8805 50.3909 43.8083 50.2623 43.6797C50.1338 43.5511 50.0615 43.3767 50.0615 43.1949V42.502C50.0615 42.3202 50.1338 42.1458 50.2623 42.0172C50.3909 41.8886 50.5653 41.8164 50.7472 41.8164C50.929 41.8164 51.1034 41.8886 51.232 42.0172C51.3605 42.1458 51.4328 42.3202 51.4328 42.502V43.1949C51.4328 43.3767 51.3605 43.5511 51.232 43.6797C51.1034 43.8083 50.929 43.8805 50.7472 43.8805V43.8805Z" fill="url(#paint63_linear)"/>
<path d="M48.4356 45.8122C48.2538 45.8122 48.0794 45.7399 47.9508 45.6114C47.8222 45.4828 47.75 45.3084 47.75 45.1265V44.4361C47.75 44.2543 47.8222 44.0799 47.9508 43.9513C48.0794 43.8227 48.2538 43.7505 48.4356 43.7505C48.6175 43.7505 48.7919 43.8227 48.9204 43.9513C49.049 44.0799 49.1213 44.2543 49.1213 44.4361V45.1265C49.1213 45.3084 49.049 45.4828 48.9204 45.6114C48.7919 45.7399 48.6175 45.8122 48.4356 45.8122V45.8122Z" fill="url(#paint64_linear)"/>
<path d="M50.7472 47.2678C50.657 47.2678 50.5678 47.25 50.4845 47.2155C50.4012 47.1809 50.3256 47.1303 50.2619 47.0665C50.1982 47.0027 50.1478 46.927 50.1134 46.8437C50.079 46.7604 50.0614 46.6711 50.0615 46.581V45.8941C50.0615 45.7123 50.1338 45.5379 50.2623 45.4093C50.3909 45.2807 50.5653 45.2085 50.7472 45.2085C50.929 45.2085 51.1034 45.2807 51.232 45.4093C51.3605 45.5379 51.4328 45.7123 51.4328 45.8941V46.587C51.4312 46.7679 51.3583 46.9408 51.2299 47.0683C51.1016 47.1958 50.9281 47.2675 50.7472 47.2678V47.2678Z" fill="url(#paint65_linear)"/>
<path d="M48.4356 49.202C48.2537 49.2017 48.0793 49.1292 47.9507 49.0004C47.8222 48.8716 47.75 48.6971 47.75 48.5152V47.8223C47.75 47.6405 47.8222 47.4661 47.9508 47.3375C48.0794 47.209 48.2538 47.1367 48.4356 47.1367C48.6175 47.1367 48.7919 47.209 48.9204 47.3375C49.049 47.4661 49.1213 47.6405 49.1213 47.8223V48.5152C49.1214 48.6053 49.1038 48.6946 49.0694 48.7779C49.035 48.8612 48.9846 48.937 48.9209 49.0008C48.8572 49.0646 48.7816 49.1152 48.6983 49.1497C48.615 49.1842 48.5258 49.202 48.4356 49.202V49.202Z" fill="url(#paint66_linear)"/>
<path d="M50.7472 50.6537C50.657 50.6537 50.5678 50.6359 50.4845 50.6014C50.4012 50.5668 50.3256 50.5162 50.2619 50.4524C50.1982 50.3886 50.1478 50.3129 50.1134 50.2296C50.079 50.1463 50.0614 50.057 50.0615 49.9668V49.274C50.0615 49.0922 50.1338 48.9178 50.2623 48.7892C50.3909 48.6606 50.5653 48.5884 50.7472 48.5884C50.929 48.5884 51.1034 48.6606 51.232 48.7892C51.3605 48.9178 51.4328 49.0922 51.4328 49.274V49.9668C51.4328 50.1488 51.3606 50.3233 51.232 50.4521C51.1035 50.5809 50.9291 50.6534 50.7472 50.6537Z" fill="url(#paint67_linear)"/>
<path d="M53.2575 53.1369C53.0757 53.1369 52.9013 53.0646 52.7727 52.936C52.6441 52.8075 52.5719 52.6331 52.5719 52.4512V30.899L45.8669 26.9977H42.1866C42.0048 26.9977 41.8304 26.9255 41.7018 26.7969C41.5732 26.6683 41.501 26.4939 41.501 26.3121C41.501 26.1303 41.5732 25.9559 41.7018 25.8273C41.8304 25.6987 42.0048 25.6265 42.1866 25.6265H46.0518C46.1725 25.6271 46.2909 25.6594 46.3952 25.7201L53.5997 29.9119C53.7039 29.9721 53.7905 30.0585 53.8507 30.1626C53.911 30.2667 53.9429 30.3848 53.9432 30.5051V52.4476C53.9438 52.6294 53.8724 52.804 53.7445 52.9331C53.6167 53.0623 53.4429 53.1356 53.2611 53.1369H53.2575Z" fill="url(#paint68_linear)"/>
<path d="M42.1867 53.1369C42.0049 53.1369 41.8305 53.0647 41.7019 52.9361C41.5733 52.8075 41.5011 52.6331 41.5011 52.4513V16.0253L32.81 12.3786L25.5131 15.2496V52.4513C25.5057 52.6283 25.4301 52.7956 25.3023 52.9183C25.1744 53.0409 25.004 53.1094 24.8269 53.1094C24.6497 53.1094 24.4793 53.0409 24.3515 52.9183C24.2236 52.7956 24.148 52.6283 24.1406 52.4513V14.7825C24.1403 14.6453 24.181 14.5111 24.2576 14.3972C24.3343 14.2834 24.4432 14.1951 24.5705 14.1437L32.5675 11.0002C32.733 10.9329 32.9183 10.9329 33.0838 11.0002L42.4497 14.9314C42.5742 14.9839 42.6805 15.0719 42.7552 15.1844C42.83 15.297 42.8699 15.4291 42.8699 15.5642V52.4513C42.8699 52.6331 42.7977 52.8075 42.6691 52.9361C42.5405 53.0647 42.3661 53.1369 42.1843 53.1369H42.1867Z" fill="url(#paint69_linear)"/>
<path d="M55.3096 53.1261H8.68563C8.50379 53.1261 8.3294 53.0539 8.20082 52.9253C8.07224 52.7967 8 52.6223 8 52.4405C8 52.2587 8.07224 52.0843 8.20082 51.9557C8.3294 51.8271 8.50379 51.7549 8.68563 51.7549H55.3096C55.4914 51.7549 55.6658 51.8271 55.7944 51.9557C55.923 52.0843 55.9952 52.2587 55.9952 52.4405C55.9952 52.6223 55.923 52.7967 55.7944 52.9253C55.6658 53.0539 55.4914 53.1261 55.3096 53.1261V53.1261Z" fill="url(#paint70_linear)"/>
<defs>
<linearGradient id="paint0_linear" x1="-44.713" y1="84.0778" x2="4.02656" y2="7.26596" gradientUnits="userSpaceOnUse">
<stop offset="0.11" stop-color="#A5CD39"/>
<stop offset="0.3" stop-color="#84C43F"/>
<stop offset="0.56" stop-color="#51B748"/>
<stop offset="0.66" stop-color="#379D43"/>
<stop offset="0.79" stop-color="#1B813D"/>
<stop offset="0.91" stop-color="#0A6F39"/>
<stop offset="1" stop-color="#046938"/>
</linearGradient>
<linearGradient id="paint1_linear" x1="34.0923" y1="-98.6365" x2="-50.2336" y2="-28.5" gradientUnits="userSpaceOnUse">
<stop offset="0.11" stop-color="#A5CD39"/>
<stop offset="0.3" stop-color="#84C43F"/>
<stop offset="0.56" stop-color="#51B748"/>
<stop offset="0.66" stop-color="#379D43"/>
<stop offset="0.79" stop-color="#1B813D"/>
<stop offset="0.91" stop-color="#0A6F39"/>
<stop offset="1" stop-color="#046938"/>
</linearGradient>
<linearGradient id="paint2_linear" x1="47.3267" y1="-45.8408" x2="-6.98689" y2="23.43" gradientUnits="userSpaceOnUse">
<stop offset="0.11" stop-color="#A5CD39"/>
<stop offset="0.3" stop-color="#84C43F"/>
<stop offset="0.56" stop-color="#51B748"/>
<stop offset="0.66" stop-color="#379D43"/>
<stop offset="0.79" stop-color="#1B813D"/>
<stop offset="0.91" stop-color="#0A6F39"/>
<stop offset="1" stop-color="#046938"/>
</linearGradient>
<linearGradient id="paint3_linear" x1="16.4176" y1="29.4802" x2="16.312" y2="35.0537" gradientUnits="userSpaceOnUse">
<stop offset="0.11" stop-color="#A5CD39"/>
<stop offset="0.3" stop-color="#84C43F"/>
<stop offset="0.56" stop-color="#51B748"/>
<stop offset="0.66" stop-color="#379D43"/>
<stop offset="0.79" stop-color="#1B813D"/>
<stop offset="0.91" stop-color="#0A6F39"/>
<stop offset="1" stop-color="#046938"/>
</linearGradient>
<linearGradient id="paint4_linear" x1="20.4147" y1="29.4802" x2="20.3091" y2="35.0537" gradientUnits="userSpaceOnUse">
<stop offset="0.11" stop-color="#A5CD39"/>
<stop offset="0.3" stop-color="#84C43F"/>
<stop offset="0.56" stop-color="#51B748"/>
<stop offset="0.66" stop-color="#379D43"/>
<stop offset="0.79" stop-color="#1B813D"/>
<stop offset="0.91" stop-color="#0A6F39"/>
<stop offset="1" stop-color="#046938"/>
</linearGradient>
<linearGradient id="paint5_linear" x1="24.409" y1="29.4802" x2="24.3034" y2="35.0537" gradientUnits="userSpaceOnUse">
<stop offset="0.11" stop-color="#A5CD39"/>
<stop offset="0.3" stop-color="#84C43F"/>
<stop offset="0.56" stop-color="#51B748"/>
<stop offset="0.66" stop-color="#379D43"/>
<stop offset="0.79" stop-color="#1B813D"/>
<stop offset="0.91" stop-color="#0A6F39"/>
<stop offset="1" stop-color="#046938"/>
</linearGradient>
<linearGradient id="paint6_linear" x1="16.4176" y1="32.6984" x2="16.312" y2="38.272" gradientUnits="userSpaceOnUse">
<stop offset="0.11" stop-color="#A5CD39"/>
<stop offset="0.3" stop-color="#84C43F"/>
<stop offset="0.56" stop-color="#51B748"/>
<stop offset="0.66" stop-color="#379D43"/>
<stop offset="0.79" stop-color="#1B813D"/>
<stop offset="0.91" stop-color="#0A6F39"/>
<stop offset="1" stop-color="#046938"/>
</linearGradient>
<linearGradient id="paint7_linear" x1="20.4147" y1="32.6984" x2="20.3091" y2="38.272" gradientUnits="userSpaceOnUse">
<stop offset="0.11" stop-color="#A5CD39"/>
<stop offset="0.3" stop-color="#84C43F"/>
<stop offset="0.56" stop-color="#51B748"/>
<stop offset="0.66" stop-color="#379D43"/>
<stop offset="0.79" stop-color="#1B813D"/>
<stop offset="0.91" stop-color="#0A6F39"/>
<stop offset="1" stop-color="#046938"/>
</linearGradient>
<linearGradient id="paint8_linear" x1="24.409" y1="32.6984" x2="24.3034" y2="38.272" gradientUnits="userSpaceOnUse">
<stop offset="0.11" stop-color="#A5CD39"/>
<stop offset="0.3" stop-color="#84C43F"/>
<stop offset="0.56" stop-color="#51B748"/>
<stop offset="0.66" stop-color="#379D43"/>
<stop offset="0.79" stop-color="#1B813D"/>
<stop offset="0.91" stop-color="#0A6F39"/>
<stop offset="1" stop-color="#046938"/>
</linearGradient>
<linearGradient id="paint9_linear" x1="16.4176" y1="35.9172" x2="16.312" y2="41.4907" gradientUnits="userSpaceOnUse">
<stop offset="0.11" stop-color="#A5CD39"/>
<stop offset="0.3" stop-color="#84C43F"/>
<stop offset="0.56" stop-color="#51B748"/>
<stop offset="0.66" stop-color="#379D43"/>
<stop offset="0.79" stop-color="#1B813D"/>
<stop offset="0.91" stop-color="#0A6F39"/>
<stop offset="1" stop-color="#046938"/>
</linearGradient>
<linearGradient id="paint10_linear" x1="20.4147" y1="35.9172" x2="20.3091" y2="41.4907" gradientUnits="userSpaceOnUse">
<stop offset="0.11" stop-color="#A5CD39"/>
<stop offset="0.3" stop-color="#84C43F"/>
<stop offset="0.56" stop-color="#51B748"/>
<stop offset="0.66" stop-color="#379D43"/>
<stop offset="0.79" stop-color="#1B813D"/>
<stop offset="0.91" stop-color="#0A6F39"/>
<stop offset="1" stop-color="#046938"/>
</linearGradient>
<linearGradient id="paint11_linear" x1="24.409" y1="35.9172" x2="24.3034" y2="41.4907" gradientUnits="userSpaceOnUse">
<stop offset="0.11" stop-color="#A5CD39"/>
<stop offset="0.3" stop-color="#84C43F"/>
<stop offset="0.56" stop-color="#51B748"/>
<stop offset="0.66" stop-color="#379D43"/>
<stop offset="0.79" stop-color="#1B813D"/>
<stop offset="0.91" stop-color="#0A6F39"/>
<stop offset="1" stop-color="#046938"/>
</linearGradient>
<linearGradient id="paint12_linear" x1="16.4176" y1="39.134" x2="16.312" y2="44.7075" gradientUnits="userSpaceOnUse">
<stop offset="0.11" stop-color="#A5CD39"/>
<stop offset="0.3" stop-color="#84C43F"/>
<stop offset="0.56" stop-color="#51B748"/>
<stop offset="0.66" stop-color="#379D43"/>
<stop offset="0.79" stop-color="#1B813D"/>
<stop offset="0.91" stop-color="#0A6F39"/>
<stop offset="1" stop-color="#046938"/>
</linearGradient>
<linearGradient id="paint13_linear" x1="20.4147" y1="39.134" x2="20.3091" y2="44.7075" gradientUnits="userSpaceOnUse">
<stop offset="0.11" stop-color="#A5CD39"/>
<stop offset="0.3" stop-color="#84C43F"/>
<stop offset="0.56" stop-color="#51B748"/>
<stop offset="0.66" stop-color="#379D43"/>
<stop offset="0.79" stop-color="#1B813D"/>
<stop offset="0.91" stop-color="#0A6F39"/>
<stop offset="1" stop-color="#046938"/>
</linearGradient>
<linearGradient id="paint14_linear" x1="24.409" y1="39.134" x2="24.3034" y2="44.7075" gradientUnits="userSpaceOnUse">
<stop offset="0.11" stop-color="#A5CD39"/>
<stop offset="0.3" stop-color="#84C43F"/>
<stop offset="0.56" stop-color="#51B748"/>
<stop offset="0.66" stop-color="#379D43"/>
<stop offset="0.79" stop-color="#1B813D"/>
<stop offset="0.91" stop-color="#0A6F39"/>
<stop offset="1" stop-color="#046938"/>
</linearGradient>
<linearGradient id="paint15_linear" x1="16.4176" y1="42.3518" x2="16.312" y2="47.9253" gradientUnits="userSpaceOnUse">
<stop offset="0.11" stop-color="#A5CD39"/>
<stop offset="0.3" stop-color="#84C43F"/>
<stop offset="0.56" stop-color="#51B748"/>
<stop offset="0.66" stop-color="#379D43"/>
<stop offset="0.79" stop-color="#1B813D"/>
<stop offset="0.91" stop-color="#0A6F39"/>
<stop offset="1" stop-color="#046938"/>
</linearGradient>
<linearGradient id="paint16_linear" x1="20.4147" y1="42.3518" x2="20.3091" y2="47.9253" gradientUnits="userSpaceOnUse">
<stop offset="0.11" stop-color="#A5CD39"/>
<stop offset="0.3" stop-color="#84C43F"/>
<stop offset="0.56" stop-color="#51B748"/>
<stop offset="0.66" stop-color="#379D43"/>
<stop offset="0.79" stop-color="#1B813D"/>
<stop offset="0.91" stop-color="#0A6F39"/>
<stop offset="1" stop-color="#046938"/>
</linearGradient>
<linearGradient id="paint17_linear" x1="24.409" y1="42.3518" x2="24.3034" y2="47.9253" gradientUnits="userSpaceOnUse">
<stop offset="0.11" stop-color="#A5CD39"/>
<stop offset="0.3" stop-color="#84C43F"/>
<stop offset="0.56" stop-color="#51B748"/>
<stop offset="0.66" stop-color="#379D43"/>
<stop offset="0.79" stop-color="#1B813D"/>
<stop offset="0.91" stop-color="#0A6F39"/>
<stop offset="1" stop-color="#046938"/>
</linearGradient>
<linearGradient id="paint18_linear" x1="16.4176" y1="45.57" x2="16.312" y2="51.1435" gradientUnits="userSpaceOnUse">
<stop offset="0.11" stop-color="#A5CD39"/>
<stop offset="0.3" stop-color="#84C43F"/>
<stop offset="0.56" stop-color="#51B748"/>
<stop offset="0.66" stop-color="#379D43"/>
<stop offset="0.79" stop-color="#1B813D"/>
<stop offset="0.91" stop-color="#0A6F39"/>
<stop offset="1" stop-color="#046938"/>
</linearGradient>
<linearGradient id="paint19_linear" x1="20.4147" y1="45.57" x2="20.3091" y2="51.1435" gradientUnits="userSpaceOnUse">
<stop offset="0.11" stop-color="#A5CD39"/>
<stop offset="0.3" stop-color="#84C43F"/>
<stop offset="0.56" stop-color="#51B748"/>
<stop offset="0.66" stop-color="#379D43"/>
<stop offset="0.79" stop-color="#1B813D"/>
<stop offset="0.91" stop-color="#0A6F39"/>
<stop offset="1" stop-color="#046938"/>
</linearGradient>
<linearGradient id="paint20_linear" x1="24.409" y1="45.57" x2="24.3034" y2="51.1435" gradientUnits="userSpaceOnUse">
<stop offset="0.11" stop-color="#A5CD39"/>
<stop offset="0.3" stop-color="#84C43F"/>
<stop offset="0.56" stop-color="#51B748"/>
<stop offset="0.66" stop-color="#379D43"/>
<stop offset="0.79" stop-color="#1B813D"/>
<stop offset="0.91" stop-color="#0A6F39"/>
<stop offset="1" stop-color="#046938"/>
</linearGradient>
<linearGradient id="paint21_linear" x1="31.6763" y1="8.76061" x2="30.8576" y2="19.537" gradientUnits="userSpaceOnUse">
<stop offset="0.11" stop-color="#A5CD39"/>
<stop offset="0.3" stop-color="#84C43F"/>
<stop offset="0.56" stop-color="#51B748"/>
<stop offset="0.66" stop-color="#379D43"/>
<stop offset="0.79" stop-color="#1B813D"/>
<stop offset="0.91" stop-color="#0A6F39"/>
<stop offset="1" stop-color="#046938"/>
</linearGradient>
<linearGradient id="paint22_linear" x1="28.5493" y1="9.55796" x2="27.7306" y2="20.3343" gradientUnits="userSpaceOnUse">
<stop offset="0.11" stop-color="#A5CD39"/>
<stop offset="0.3" stop-color="#84C43F"/>
<stop offset="0.56" stop-color="#51B748"/>
<stop offset="0.66" stop-color="#379D43"/>
<stop offset="0.79" stop-color="#1B813D"/>
<stop offset="0.91" stop-color="#0A6F39"/>
<stop offset="1" stop-color="#046938"/>
</linearGradient>
<linearGradient id="paint23_linear" x1="31.6763" y1="13.9219" x2="30.8583" y2="24.6935" gradientUnits="userSpaceOnUse">
<stop offset="0.11" stop-color="#A5CD39"/>
<stop offset="0.3" stop-color="#84C43F"/>
<stop offset="0.56" stop-color="#51B748"/>
<stop offset="0.66" stop-color="#379D43"/>
<stop offset="0.79" stop-color="#1B813D"/>
<stop offset="0.91" stop-color="#0A6F39"/>
<stop offset="1" stop-color="#046938"/>
</linearGradient>
<linearGradient id="paint24_linear" x1="28.5493" y1="14.7198" x2="27.7314" y2="25.4913" gradientUnits="userSpaceOnUse">
<stop offset="0.11" stop-color="#A5CD39"/>
<stop offset="0.3" stop-color="#84C43F"/>
<stop offset="0.56" stop-color="#51B748"/>
<stop offset="0.66" stop-color="#379D43"/>
<stop offset="0.79" stop-color="#1B813D"/>
<stop offset="0.91" stop-color="#0A6F39"/>
<stop offset="1" stop-color="#046938"/>
</linearGradient>
<linearGradient id="paint25_linear" x1="31.6763" y1="19.053" x2="30.8532" y2="29.8581" gradientUnits="userSpaceOnUse">
<stop offset="0.11" stop-color="#A5CD39"/>
<stop offset="0.3" stop-color="#84C43F"/>
<stop offset="0.56" stop-color="#51B748"/>
<stop offset="0.66" stop-color="#379D43"/>
<stop offset="0.79" stop-color="#1B813D"/>
<stop offset="0.91" stop-color="#0A6F39"/>
<stop offset="1" stop-color="#046938"/>
</linearGradient>
<linearGradient id="paint26_linear" x1="28.5493" y1="19.8734" x2="27.7306" y2="30.6497" gradientUnits="userSpaceOnUse">
<stop offset="0.11" stop-color="#A5CD39"/>
<stop offset="0.3" stop-color="#84C43F"/>
<stop offset="0.56" stop-color="#51B748"/>
<stop offset="0.66" stop-color="#379D43"/>
<stop offset="0.79" stop-color="#1B813D"/>
<stop offset="0.91" stop-color="#0A6F39"/>
<stop offset="1" stop-color="#046938"/>
</linearGradient>
<linearGradient id="paint27_linear" x1="31.6763" y1="24.2379" x2="30.8583" y2="35.0094" gradientUnits="userSpaceOnUse">
<stop offset="0.11" stop-color="#A5CD39"/>
<stop offset="0.3" stop-color="#84C43F"/>
<stop offset="0.56" stop-color="#51B748"/>
<stop offset="0.66" stop-color="#379D43"/>
<stop offset="0.79" stop-color="#1B813D"/>
<stop offset="0.91" stop-color="#0A6F39"/>
<stop offset="1" stop-color="#046938"/>
</linearGradient>
<linearGradient id="paint28_linear" x1="28.5493" y1="25.0306" x2="27.7306" y2="35.807" gradientUnits="userSpaceOnUse">
<stop offset="0.11" stop-color="#A5CD39"/>
<stop offset="0.3" stop-color="#84C43F"/>
<stop offset="0.56" stop-color="#51B748"/>
<stop offset="0.66" stop-color="#379D43"/>
<stop offset="0.79" stop-color="#1B813D"/>
<stop offset="0.91" stop-color="#0A6F39"/>
<stop offset="1" stop-color="#046938"/>
</linearGradient>
<linearGradient id="paint29_linear" x1="31.6763" y1="29.4165" x2="30.862" y2="40.1641" gradientUnits="userSpaceOnUse">
<stop offset="0.11" stop-color="#A5CD39"/>
<stop offset="0.3" stop-color="#84C43F"/>
<stop offset="0.56" stop-color="#51B748"/>
<stop offset="0.66" stop-color="#379D43"/>
<stop offset="0.79" stop-color="#1B813D"/>
<stop offset="0.91" stop-color="#0A6F39"/>
<stop offset="1" stop-color="#046938"/>
</linearGradient>
<linearGradient id="paint30_linear" x1="28.5493" y1="30.1951" x2="27.7321" y2="40.9618" gradientUnits="userSpaceOnUse">
<stop offset="0.11" stop-color="#A5CD39"/>
<stop offset="0.3" stop-color="#84C43F"/>
<stop offset="0.56" stop-color="#51B748"/>
<stop offset="0.66" stop-color="#379D43"/>
<stop offset="0.79" stop-color="#1B813D"/>
<stop offset="0.91" stop-color="#0A6F39"/>
<stop offset="1" stop-color="#046938"/>
</linearGradient>
<linearGradient id="paint31_linear" x1="31.6763" y1="34.5487" x2="30.8575" y2="45.3251" gradientUnits="userSpaceOnUse">
<stop offset="0.11" stop-color="#A5CD39"/>
<stop offset="0.3" stop-color="#84C43F"/>
<stop offset="0.56" stop-color="#51B748"/>
<stop offset="0.66" stop-color="#379D43"/>
<stop offset="0.79" stop-color="#1B813D"/>
<stop offset="0.91" stop-color="#0A6F39"/>
<stop offset="1" stop-color="#046938"/>
</linearGradient>
<linearGradient id="paint32_linear" x1="28.5493" y1="35.3559" x2="27.7328" y2="46.1179" gradientUnits="userSpaceOnUse">
<stop offset="0.11" stop-color="#A5CD39"/>
<stop offset="0.3" stop-color="#84C43F"/>
<stop offset="0.56" stop-color="#51B748"/>
<stop offset="0.66" stop-color="#379D43"/>
<stop offset="0.79" stop-color="#1B813D"/>
<stop offset="0.91" stop-color="#0A6F39"/>
<stop offset="1" stop-color="#046938"/>
</linearGradient>
<linearGradient id="paint33_linear" x1="31.6763" y1="39.7192" x2="30.8598" y2="50.4811" gradientUnits="userSpaceOnUse">
<stop offset="0.11" stop-color="#A5CD39"/>
<stop offset="0.3" stop-color="#84C43F"/>
<stop offset="0.56" stop-color="#51B748"/>
<stop offset="0.66" stop-color="#379D43"/>
<stop offset="0.79" stop-color="#1B813D"/>
<stop offset="0.91" stop-color="#0A6F39"/>
<stop offset="1" stop-color="#046938"/>
</linearGradient>
<linearGradient id="paint34_linear" x1="28.5493" y1="40.4975" x2="27.7292" y2="51.2835" gradientUnits="userSpaceOnUse">
<stop offset="0.11" stop-color="#A5CD39"/>
<stop offset="0.3" stop-color="#84C43F"/>
<stop offset="0.56" stop-color="#51B748"/>
<stop offset="0.66" stop-color="#379D43"/>
<stop offset="0.79" stop-color="#1B813D"/>
<stop offset="0.91" stop-color="#0A6F39"/>
<stop offset="1" stop-color="#046938"/>
</linearGradient>
<linearGradient id="paint35_linear" x1="36.4116" y1="8.11187" x2="35.5937" y2="18.8834" gradientUnits="userSpaceOnUse">
<stop offset="0.11" stop-color="#A5CD39"/>
<stop offset="0.3" stop-color="#84C43F"/>
<stop offset="0.56" stop-color="#51B748"/>
<stop offset="0.66" stop-color="#379D43"/>
<stop offset="0.79" stop-color="#1B813D"/>
<stop offset="0.91" stop-color="#0A6F39"/>
<stop offset="1" stop-color="#046938"/>
</linearGradient>
<linearGradient id="paint36_linear" x1="38.73" y1="8.98585" x2="37.9149" y2="19.7579" gradientUnits="userSpaceOnUse">
<stop offset="0.11" stop-color="#A5CD39"/>
<stop offset="0.3" stop-color="#84C43F"/>
<stop offset="0.56" stop-color="#51B748"/>
<stop offset="0.66" stop-color="#379D43"/>
<stop offset="0.79" stop-color="#1B813D"/>
<stop offset="0.91" stop-color="#0A6F39"/>
<stop offset="1" stop-color="#046938"/>
</linearGradient>
<linearGradient id="paint37_linear" x1="41.0401" y1="9.75244" x2="40.2051" y2="20.6437" gradientUnits="userSpaceOnUse">
<stop offset="0.11" stop-color="#A5CD39"/>
<stop offset="0.3" stop-color="#84C43F"/>
<stop offset="0.56" stop-color="#51B748"/>
<stop offset="0.66" stop-color="#379D43"/>
<stop offset="0.79" stop-color="#1B813D"/>
<stop offset="0.91" stop-color="#0A6F39"/>
<stop offset="1" stop-color="#046938"/>
</linearGradient>
<linearGradient id="paint38_linear" x1="36.4116" y1="13.2489" x2="35.5929" y2="24.0252" gradientUnits="userSpaceOnUse">
<stop offset="0.11" stop-color="#A5CD39"/>
<stop offset="0.3" stop-color="#84C43F"/>
<stop offset="0.56" stop-color="#51B748"/>
<stop offset="0.66" stop-color="#379D43"/>
<stop offset="0.79" stop-color="#1B813D"/>
<stop offset="0.91" stop-color="#0A6F39"/>
<stop offset="1" stop-color="#046938"/>
</linearGradient>
<linearGradient id="paint39_linear" x1="38.7232" y1="14.1251" x2="37.9052" y2="24.8966" gradientUnits="userSpaceOnUse">
<stop offset="0.11" stop-color="#A5CD39"/>
<stop offset="0.3" stop-color="#84C43F"/>
<stop offset="0.56" stop-color="#51B748"/>
<stop offset="0.66" stop-color="#379D43"/>
<stop offset="0.79" stop-color="#1B813D"/>
<stop offset="0.91" stop-color="#0A6F39"/>
<stop offset="1" stop-color="#046938"/>
</linearGradient>
<linearGradient id="paint40_linear" x1="41.0393" y1="15.0984" x2="40.2387" y2="25.7601" gradientUnits="userSpaceOnUse">
<stop offset="0.11" stop-color="#A5CD39"/>
<stop offset="0.3" stop-color="#84C43F"/>
<stop offset="0.56" stop-color="#51B748"/>
<stop offset="0.66" stop-color="#379D43"/>
<stop offset="0.79" stop-color="#1B813D"/>
<stop offset="0.91" stop-color="#0A6F39"/>
<stop offset="1" stop-color="#046938"/>
</linearGradient>
<linearGradient id="paint41_linear" x1="36.4117" y1="18.3784" x2="35.5915" y2="29.1643" gradientUnits="userSpaceOnUse">
<stop offset="0.11" stop-color="#A5CD39"/>
<stop offset="0.3" stop-color="#84C43F"/>
<stop offset="0.56" stop-color="#51B748"/>
<stop offset="0.66" stop-color="#379D43"/>
<stop offset="0.79" stop-color="#1B813D"/>
<stop offset="0.91" stop-color="#0A6F39"/>
<stop offset="1" stop-color="#046938"/>
</linearGradient>
<linearGradient id="paint42_linear" x1="38.7232" y1="19.2611" x2="37.9045" y2="30.0375" gradientUnits="userSpaceOnUse">
<stop offset="0.11" stop-color="#A5CD39"/>
<stop offset="0.3" stop-color="#84C43F"/>
<stop offset="0.56" stop-color="#51B748"/>
<stop offset="0.66" stop-color="#379D43"/>
<stop offset="0.79" stop-color="#1B813D"/>
<stop offset="0.91" stop-color="#0A6F39"/>
<stop offset="1" stop-color="#046938"/>
</linearGradient>
<linearGradient id="paint43_linear" x1="41.0393" y1="20.2375" x2="40.2387" y2="30.8992" gradientUnits="userSpaceOnUse">
<stop offset="0.11" stop-color="#A5CD39"/>
<stop offset="0.3" stop-color="#84C43F"/>
<stop offset="0.56" stop-color="#51B748"/>
<stop offset="0.66" stop-color="#379D43"/>
<stop offset="0.79" stop-color="#1B813D"/>
<stop offset="0.91" stop-color="#0A6F39"/>
<stop offset="1" stop-color="#046938"/>
</linearGradient>
<linearGradient id="paint44_linear" x1="36.4116" y1="23.5272" x2="35.5929" y2="34.3036" gradientUnits="userSpaceOnUse">
<stop offset="0.11" stop-color="#A5CD39"/>
<stop offset="0.3" stop-color="#84C43F"/>
<stop offset="0.56" stop-color="#51B748"/>
<stop offset="0.66" stop-color="#379D43"/>
<stop offset="0.79" stop-color="#1B813D"/>
<stop offset="0.91" stop-color="#0A6F39"/>
<stop offset="1" stop-color="#046938"/>
</linearGradient>
<linearGradient id="paint45_linear" x1="38.7232" y1="24.4003" x2="37.9045" y2="35.1766" gradientUnits="userSpaceOnUse">
<stop offset="0.11" stop-color="#A5CD39"/>
<stop offset="0.3" stop-color="#84C43F"/>
<stop offset="0.56" stop-color="#51B748"/>
<stop offset="0.66" stop-color="#379D43"/>
<stop offset="0.79" stop-color="#1B813D"/>
<stop offset="0.91" stop-color="#0A6F39"/>
<stop offset="1" stop-color="#046938"/>
</linearGradient>
<linearGradient id="paint46_linear" x1="41.0393" y1="25.3736" x2="40.238" y2="36.0401" gradientUnits="userSpaceOnUse">
<stop offset="0.11" stop-color="#A5CD39"/>
<stop offset="0.3" stop-color="#84C43F"/>
<stop offset="0.56" stop-color="#51B748"/>
<stop offset="0.66" stop-color="#379D43"/>
<stop offset="0.79" stop-color="#1B813D"/>
<stop offset="0.91" stop-color="#0A6F39"/>
<stop offset="1" stop-color="#046938"/>
</linearGradient>
<linearGradient id="paint47_linear" x1="36.4116" y1="28.6796" x2="35.5951" y2="39.4416" gradientUnits="userSpaceOnUse">
<stop offset="0.11" stop-color="#A5CD39"/>
<stop offset="0.3" stop-color="#84C43F"/>
<stop offset="0.56" stop-color="#51B748"/>
<stop offset="0.66" stop-color="#379D43"/>
<stop offset="0.79" stop-color="#1B813D"/>
<stop offset="0.91" stop-color="#0A6F39"/>
<stop offset="1" stop-color="#046938"/>
</linearGradient>
<linearGradient id="paint48_linear" x1="38.7232" y1="29.544" x2="37.9052" y2="40.3156" gradientUnits="userSpaceOnUse">
<stop offset="0.11" stop-color="#A5CD39"/>
<stop offset="0.3" stop-color="#84C43F"/>
<stop offset="0.56" stop-color="#51B748"/>
<stop offset="0.66" stop-color="#379D43"/>
<stop offset="0.79" stop-color="#1B813D"/>
<stop offset="0.91" stop-color="#0A6F39"/>
<stop offset="1" stop-color="#046938"/>
</linearGradient>
<linearGradient id="paint49_linear" x1="41.0394" y1="30.4971" x2="40.2345" y2="41.1876" gradientUnits="userSpaceOnUse">
<stop offset="0.11" stop-color="#A5CD39"/>
<stop offset="0.3" stop-color="#84C43F"/>
<stop offset="0.56" stop-color="#51B748"/>
<stop offset="0.66" stop-color="#379D43"/>
<stop offset="0.79" stop-color="#1B813D"/>
<stop offset="0.91" stop-color="#0A6F39"/>
<stop offset="1" stop-color="#046938"/>
</linearGradient>
<linearGradient id="paint50_linear" x1="36.4116" y1="33.806" x2="35.5929" y2="44.5824" gradientUnits="userSpaceOnUse">
<stop offset="0.11" stop-color="#A5CD39"/>
<stop offset="0.3" stop-color="#84C43F"/>
<stop offset="0.56" stop-color="#51B748"/>
<stop offset="0.66" stop-color="#379D43"/>
<stop offset="0.79" stop-color="#1B813D"/>
<stop offset="0.91" stop-color="#0A6F39"/>
<stop offset="1" stop-color="#046938"/>
</linearGradient>
<linearGradient id="paint51_linear" x1="38.73" y1="34.679" x2="37.9141" y2="45.4559" gradientUnits="userSpaceOnUse">
<stop offset="0.11" stop-color="#A5CD39"/>
<stop offset="0.3" stop-color="#84C43F"/>
<stop offset="0.56" stop-color="#51B748"/>
<stop offset="0.66" stop-color="#379D43"/>
<stop offset="0.79" stop-color="#1B813D"/>
<stop offset="0.91" stop-color="#0A6F39"/>
<stop offset="1" stop-color="#046938"/>
</linearGradient>
<linearGradient id="paint52_linear" x1="41.0393" y1="35.6519" x2="40.238" y2="46.3184" gradientUnits="userSpaceOnUse">
<stop offset="0.11" stop-color="#A5CD39"/>
<stop offset="0.3" stop-color="#84C43F"/>
<stop offset="0.56" stop-color="#51B748"/>
<stop offset="0.66" stop-color="#379D43"/>
<stop offset="0.79" stop-color="#1B813D"/>
<stop offset="0.91" stop-color="#0A6F39"/>
<stop offset="1" stop-color="#046938"/>
</linearGradient>
<linearGradient id="paint53_linear" x1="36.4116" y1="38.9452" x2="35.5929" y2="49.7215" gradientUnits="userSpaceOnUse">
<stop offset="0.11" stop-color="#A5CD39"/>
<stop offset="0.3" stop-color="#84C43F"/>
<stop offset="0.56" stop-color="#51B748"/>
<stop offset="0.66" stop-color="#379D43"/>
<stop offset="0.79" stop-color="#1B813D"/>
<stop offset="0.91" stop-color="#0A6F39"/>
<stop offset="1" stop-color="#046938"/>
</linearGradient>
<linearGradient id="paint54_linear" x1="38.7232" y1="39.8192" x2="37.9045" y2="50.5956" gradientUnits="userSpaceOnUse">
<stop offset="0.11" stop-color="#A5CD39"/>
<stop offset="0.3" stop-color="#84C43F"/>
<stop offset="0.56" stop-color="#51B748"/>
<stop offset="0.66" stop-color="#379D43"/>
<stop offset="0.79" stop-color="#1B813D"/>
<stop offset="0.91" stop-color="#0A6F39"/>
<stop offset="1" stop-color="#046938"/>
</linearGradient>
<linearGradient id="paint55_linear" x1="41.0393" y1="40.7911" x2="40.238" y2="51.4576" gradientUnits="userSpaceOnUse">
<stop offset="0.11" stop-color="#A5CD39"/>
<stop offset="0.3" stop-color="#84C43F"/>
<stop offset="0.56" stop-color="#51B748"/>
<stop offset="0.66" stop-color="#379D43"/>
<stop offset="0.79" stop-color="#1B813D"/>
<stop offset="0.91" stop-color="#0A6F39"/>
<stop offset="1" stop-color="#046938"/>
</linearGradient>
<linearGradient id="paint56_linear" x1="49.7105" y1="24.8429" x2="49.2184" y2="33.2065" gradientUnits="userSpaceOnUse">
<stop offset="0.11" stop-color="#A5CD39"/>
<stop offset="0.3" stop-color="#84C43F"/>
<stop offset="0.56" stop-color="#51B748"/>
<stop offset="0.66" stop-color="#379D43"/>
<stop offset="0.79" stop-color="#1B813D"/>
<stop offset="0.91" stop-color="#0A6F39"/>
<stop offset="1" stop-color="#046938"/>
</linearGradient>
<linearGradient id="paint57_linear" x1="52.022" y1="26.2915" x2="51.5294" y2="34.6599" gradientUnits="userSpaceOnUse">
<stop offset="0.11" stop-color="#A5CD39"/>
<stop offset="0.3" stop-color="#84C43F"/>
<stop offset="0.56" stop-color="#51B748"/>
<stop offset="0.66" stop-color="#379D43"/>
<stop offset="0.79" stop-color="#1B813D"/>
<stop offset="0.91" stop-color="#0A6F39"/>
<stop offset="1" stop-color="#046938"/>
</linearGradient>
<linearGradient id="paint58_linear" x1="49.7056" y1="28.2205" x2="49.2124" y2="36.5938" gradientUnits="userSpaceOnUse">
<stop offset="0.11" stop-color="#A5CD39"/>
<stop offset="0.3" stop-color="#84C43F"/>
<stop offset="0.56" stop-color="#51B748"/>
<stop offset="0.66" stop-color="#379D43"/>
<stop offset="0.79" stop-color="#1B813D"/>
<stop offset="0.91" stop-color="#0A6F39"/>
<stop offset="1" stop-color="#046938"/>
</linearGradient>
<linearGradient id="paint59_linear" x1="52.022" y1="29.6905" x2="51.5311" y2="38.0444" gradientUnits="userSpaceOnUse">
<stop offset="0.11" stop-color="#A5CD39"/>
<stop offset="0.3" stop-color="#84C43F"/>
<stop offset="0.56" stop-color="#51B748"/>
<stop offset="0.66" stop-color="#379D43"/>
<stop offset="0.79" stop-color="#1B813D"/>
<stop offset="0.91" stop-color="#0A6F39"/>
<stop offset="1" stop-color="#046938"/>
</linearGradient>
<linearGradient id="paint60_linear" x1="49.7105" y1="31.6118" x2="49.2179" y2="39.9802" gradientUnits="userSpaceOnUse">
<stop offset="0.11" stop-color="#A5CD39"/>
<stop offset="0.3" stop-color="#84C43F"/>
<stop offset="0.56" stop-color="#51B748"/>
<stop offset="0.66" stop-color="#379D43"/>
<stop offset="0.79" stop-color="#1B813D"/>
<stop offset="0.91" stop-color="#0A6F39"/>
<stop offset="1" stop-color="#046938"/>
</linearGradient>
<linearGradient id="paint61_linear" x1="52.022" y1="33.0646" x2="51.53" y2="41.4282" gradientUnits="userSpaceOnUse">
<stop offset="0.11" stop-color="#A5CD39"/>
<stop offset="0.3" stop-color="#84C43F"/>
<stop offset="0.56" stop-color="#51B748"/>
<stop offset="0.66" stop-color="#379D43"/>
<stop offset="0.79" stop-color="#1B813D"/>
<stop offset="0.91" stop-color="#0A6F39"/>
<stop offset="1" stop-color="#046938"/>
</linearGradient>
<linearGradient id="paint62_linear" x1="49.7105" y1="35.0026" x2="49.2184" y2="43.3662" gradientUnits="userSpaceOnUse">
<stop offset="0.11" stop-color="#A5CD39"/>
<stop offset="0.3" stop-color="#84C43F"/>
<stop offset="0.56" stop-color="#51B748"/>
<stop offset="0.66" stop-color="#379D43"/>
<stop offset="0.79" stop-color="#1B813D"/>
<stop offset="0.91" stop-color="#0A6F39"/>
<stop offset="1" stop-color="#046938"/>
</linearGradient>
<linearGradient id="paint63_linear" x1="52.022" y1="36.4543" x2="51.53" y2="44.8179" gradientUnits="userSpaceOnUse">
<stop offset="0.11" stop-color="#A5CD39"/>
<stop offset="0.3" stop-color="#84C43F"/>
<stop offset="0.56" stop-color="#51B748"/>
<stop offset="0.66" stop-color="#379D43"/>
<stop offset="0.79" stop-color="#1B813D"/>
<stop offset="0.91" stop-color="#0A6F39"/>
<stop offset="1" stop-color="#046938"/>
</linearGradient>
<linearGradient id="paint64_linear" x1="49.7105" y1="38.3946" x2="49.2196" y2="46.7485" gradientUnits="userSpaceOnUse">
<stop offset="0.11" stop-color="#A5CD39"/>
<stop offset="0.3" stop-color="#84C43F"/>
<stop offset="0.56" stop-color="#51B748"/>
<stop offset="0.66" stop-color="#379D43"/>
<stop offset="0.79" stop-color="#1B813D"/>
<stop offset="0.91" stop-color="#0A6F39"/>
<stop offset="1" stop-color="#046938"/>
</linearGradient>
<linearGradient id="paint65_linear" x1="52.022" y1="39.8588" x2="51.5323" y2="48.2031" gradientUnits="userSpaceOnUse">
<stop offset="0.11" stop-color="#A5CD39"/>
<stop offset="0.3" stop-color="#84C43F"/>
<stop offset="0.56" stop-color="#51B748"/>
<stop offset="0.66" stop-color="#379D43"/>
<stop offset="0.79" stop-color="#1B813D"/>
<stop offset="0.91" stop-color="#0A6F39"/>
<stop offset="1" stop-color="#046938"/>
</linearGradient>
<linearGradient id="paint66_linear" x1="49.7105" y1="41.7715" x2="49.2179" y2="50.1399" gradientUnits="userSpaceOnUse">
<stop offset="0.11" stop-color="#A5CD39"/>
<stop offset="0.3" stop-color="#84C43F"/>
<stop offset="0.56" stop-color="#51B748"/>
<stop offset="0.66" stop-color="#379D43"/>
<stop offset="0.79" stop-color="#1B813D"/>
<stop offset="0.91" stop-color="#0A6F39"/>
<stop offset="1" stop-color="#046938"/>
</linearGradient>
<linearGradient id="paint67_linear" x1="52.022" y1="43.2231" x2="51.5294" y2="51.5916" gradientUnits="userSpaceOnUse">
<stop offset="0.11" stop-color="#A5CD39"/>
<stop offset="0.3" stop-color="#84C43F"/>
<stop offset="0.56" stop-color="#51B748"/>
<stop offset="0.66" stop-color="#379D43"/>
<stop offset="0.79" stop-color="#1B813D"/>
<stop offset="0.91" stop-color="#0A6F39"/>
<stop offset="1" stop-color="#046938"/>
</linearGradient>
<linearGradient id="paint68_linear" x1="59.2894" y1="-45.8408" x2="49.6951" y2="65.1869" gradientUnits="userSpaceOnUse">
<stop offset="0.11" stop-color="#A5CD39"/>
<stop offset="0.3" stop-color="#84C43F"/>
<stop offset="0.56" stop-color="#51B748"/>
<stop offset="0.66" stop-color="#379D43"/>
<stop offset="0.79" stop-color="#1B813D"/>
<stop offset="0.91" stop-color="#0A6F39"/>
<stop offset="1" stop-color="#046938"/>
</linearGradient>
<linearGradient id="paint69_linear" x1="50.9177" y1="-98.6453" x2="35.9335" y2="71.568" gradientUnits="userSpaceOnUse">
<stop offset="0.11" stop-color="#A5CD39"/>
<stop offset="0.3" stop-color="#84C43F"/>
<stop offset="0.56" stop-color="#51B748"/>
<stop offset="0.66" stop-color="#379D43"/>
<stop offset="0.79" stop-color="#1B813D"/>
<stop offset="0.91" stop-color="#0A6F39"/>
<stop offset="1" stop-color="#046938"/>
</linearGradient>
<linearGradient id="paint70_linear" x1="76.6181" y1="48.1926" x2="76.6119" y2="53.7681" gradientUnits="userSpaceOnUse">
<stop offset="0.11" stop-color="#A5CD39"/>
<stop offset="0.3" stop-color="#84C43F"/>
<stop offset="0.56" stop-color="#51B748"/>
<stop offset="0.66" stop-color="#379D43"/>
<stop offset="0.79" stop-color="#1B813D"/>
<stop offset="0.91" stop-color="#0A6F39"/>
<stop offset="1" stop-color="#046938"/>
</linearGradient>
</defs>
</svg>
