<svg width="89" height="90" viewBox="0 0 89 90" fill="none" xmlns="http://www.w3.org/2000/svg">
<g clip-path="url(#clip0)">
<path d="M70.8001 9.39015C63.1503 3.66186 53.8468 0.573555 44.2901 0.590154H44.0601C32.4302 0.764921 21.3358 5.50753 13.1734 13.7936C5.01092 22.0796 0.435547 33.244 0.435547 44.8752C0.435547 56.5063 5.01092 67.6707 13.1734 75.9567C21.3358 84.2428 32.4302 88.9854 44.0601 89.1602H44.2901C53.5896 89.1539 62.6513 86.2212 70.1911 80.7777C77.731 75.3343 83.3666 67.656 86.2994 58.8311C89.2322 50.0062 89.3135 40.4821 86.5316 31.6084C83.7498 22.7347 78.246 14.9615 70.8001 9.39015V9.39015Z" fill="#7CAA6B"/>
<path d="M44.29 3.53013H44.06C33.206 3.69893 22.8537 8.12916 15.2377 15.8645C7.62174 23.5998 3.35303 34.0198 3.35303 44.8751C3.35303 55.7305 7.62174 66.1504 15.2377 73.8858C22.8537 81.6211 33.206 86.0513 44.06 86.2201H44.29C49.7749 86.3054 55.222 85.2988 60.3142 83.2588C65.4064 81.2188 70.0418 78.1862 73.9508 74.3376C77.8597 70.4889 80.964 65.9012 83.0829 60.8413C85.2019 55.7815 86.2931 50.3507 86.2931 44.8651C86.2931 39.3795 85.2019 33.9487 83.0829 28.8889C80.964 23.8291 77.8597 19.2413 73.9508 15.3927C70.0418 11.5441 65.4064 8.51149 60.3142 6.47149C55.222 4.43149 49.7749 3.42483 44.29 3.51013V3.53013Z" fill="url(#paint0_linear)"/>
<path d="M54.8699 22.2202H34.7399C33.1146 22.2189 31.505 22.5379 30.003 23.159C28.501 23.78 27.1362 24.691 25.9865 25.8398C24.8368 26.9886 23.9247 28.3527 23.3024 29.8541C22.6802 31.3556 22.3599 32.9649 22.3599 34.5902V54.7302C22.3599 56.3555 22.6802 57.9649 23.3024 59.4663C23.9247 60.9678 24.8368 62.3319 25.9865 63.4807C27.1362 64.6295 28.501 65.5404 30.003 66.1615C31.505 66.7825 33.1146 67.1015 34.7399 67.1002H54.8699C56.4952 67.1015 58.1048 66.7825 59.6067 66.1615C61.1087 65.5404 62.4735 64.6295 63.6232 63.4807C64.773 62.3319 65.685 60.9678 66.3073 59.4663C66.9296 57.9649 67.2499 56.3555 67.2499 54.7302V34.5902C67.2499 32.9649 66.9296 31.3556 66.3073 29.8541C65.685 28.3527 64.773 26.9886 63.6232 25.8398C62.4735 24.691 61.1087 23.78 59.6067 23.159C58.1048 22.5379 56.4952 22.2189 54.8699 22.2202V22.2202ZM63.6199 54.6802C63.6199 57.0141 62.6927 59.2524 61.0424 60.9028C59.3921 62.5531 57.1538 63.4802 54.8199 63.4802H34.8199C32.486 63.4802 30.2476 62.5531 28.5973 60.9028C26.947 59.2524 26.0199 57.0141 26.0199 54.6802V34.6802C26.0225 32.348 26.9508 30.1123 28.6009 28.4641C30.2509 26.816 32.4877 25.8902 34.8199 25.8902H54.8199C57.152 25.8902 59.3888 26.816 61.0389 28.4641C62.6889 30.1123 63.6172 32.348 63.6199 34.6802V54.6802Z" fill="white"/>
<path d="M44.8102 32.8301C42.47 32.8281 40.1819 33.5202 38.2351 34.8189C36.2884 36.1176 34.7705 37.9645 33.8736 40.126C32.9767 42.2875 32.741 44.6664 33.1963 46.9619C33.6516 49.2573 34.7776 51.3662 36.4316 53.0216C38.0857 54.6771 40.1936 55.8048 42.4886 56.262C44.7837 56.7193 47.1628 56.4856 49.3251 55.5905C51.4873 54.6954 53.3355 53.1792 54.6358 51.2335C55.9362 49.2879 56.6302 47.0003 56.6302 44.6601C56.6302 41.5243 55.3852 38.5168 53.1688 36.2985C50.9524 34.0803 47.946 32.8327 44.8102 32.8301V32.8301ZM44.8102 52.3801C43.2829 52.3821 41.7894 51.931 40.5185 51.0839C39.2476 50.2368 38.2566 49.0318 37.6707 47.6213C37.0849 46.2109 36.9306 44.6583 37.2273 43.1601C37.5241 41.6619 38.2586 40.2854 39.3378 39.2048C40.4171 38.1241 41.7926 37.3878 43.2904 37.0892C44.7882 36.7905 46.341 36.9428 47.7522 37.5268C49.1635 38.1108 50.3697 39.1003 51.2185 40.37C52.0672 41.6398 52.5202 43.1328 52.5202 44.6601C52.5202 46.7058 51.7082 48.6679 50.2626 50.1154C48.817 51.5629 46.856 52.3774 44.8102 52.3801V52.3801Z" fill="white"/>
<path d="M59.6901 32.4401C59.692 32.9653 59.5384 33.4794 59.2487 33.9175C58.9589 34.3555 58.5459 34.698 58.0618 34.9017C57.5777 35.1054 57.0441 35.1613 56.5283 35.0622C56.0125 34.9631 55.5375 34.7135 55.1634 34.3449C54.7892 33.9763 54.5325 33.5051 54.4257 32.9909C54.3189 32.4766 54.3667 31.9422 54.5631 31.4551C54.7596 30.968 55.0958 30.5499 55.5295 30.2536C55.9632 29.9573 56.4749 29.796 57.0001 29.7901C57.3515 29.7848 57.7004 29.8494 58.0265 29.9802C58.3526 30.111 58.6495 30.3054 58.8998 30.552C59.1502 30.7986 59.349 31.0925 59.4846 31.4167C59.6203 31.7408 59.6901 32.0887 59.6901 32.4401V32.4401Z" fill="white"/>
</g>
<defs>
<linearGradient id="paint0_linear" x1="121.931" y1="-211.387" x2="108.841" y2="124.441" gradientUnits="userSpaceOnUse">
<stop offset="0.11" stop-color="#A5CD39"/>
<stop offset="0.3" stop-color="#84C43F"/>
<stop offset="0.56" stop-color="#51B748"/>
<stop offset="0.66" stop-color="#379D43"/>
<stop offset="0.79" stop-color="#1B813D"/>
<stop offset="0.91" stop-color="#0A6F39"/>
<stop offset="1" stop-color="#046938"/>
</linearGradient>
<clipPath id="clip0">
<rect width="88.59" height="88.59" fill="white" transform="translate(0 0.590088)"/>
</clipPath>
</defs>
</svg>
