<svg width="56" height="56" viewBox="0 0 56 56" fill="none" xmlns="http://www.w3.org/2000/svg">
<path fill-rule="evenodd" clip-rule="evenodd" d="M18.3543 21.2301L30.483 23.6965C31.4023 23.8808 32.1186 24.5971 32.3053 25.5165L34.7693 37.6451L42.978 13.0215L18.3543 21.2301ZM34.2233 48.9991C34.1743 48.9991 34.1276 48.9968 34.081 48.9945C33.0263 48.9315 32.1466 48.1661 31.9343 47.1325L28.04 27.9595L8.86931 24.0628C7.83331 23.8528 7.06798 22.9731 7.00498 21.9185C6.93964 20.8638 7.59298 19.8978 8.59398 19.5641L45.9273 7.12046C46.7673 6.8358 47.6913 7.05746 48.3166 7.6828C48.942 8.30813 49.159 9.23213 48.8813 10.0721L36.4353 47.4055C36.1156 48.3621 35.222 48.9991 34.2233 48.9991V48.9991Z" fill="url(#paint0_linear)"/>
<mask id="mask0" mask-type="alpha" maskUnits="userSpaceOnUse" x="7" y="6" width="43" height="43">
<path fill-rule="evenodd" clip-rule="evenodd" d="M18.3543 21.2301L30.483 23.6965C31.4023 23.8808 32.1186 24.5971 32.3053 25.5165L34.7693 37.6451L42.978 13.0215L18.3543 21.2301ZM34.2233 48.9991C34.1743 48.9991 34.1276 48.9968 34.081 48.9945C33.0263 48.9315 32.1466 48.1661 31.9343 47.1325L28.04 27.9595L8.86931 24.0628C7.83331 23.8528 7.06798 22.9731 7.00498 21.9185C6.93964 20.8638 7.59298 19.8978 8.59398 19.5641L45.9273 7.12046C46.7673 6.8358 47.6913 7.05746 48.3166 7.6828C48.942 8.30813 49.159 9.23213 48.8813 10.0721L36.4353 47.4055C36.1156 48.3621 35.222 48.9991 34.2233 48.9991V48.9991Z" fill="white"/>
</mask>
<g mask="url(#mask0)">
</g>
<defs>
<linearGradient id="paint0_linear" x1="67.0469" y1="-102.113" x2="60.3826" y2="68.4017" gradientUnits="userSpaceOnUse">
<stop offset="0.11" stop-color="#A5CD39"/>
<stop offset="0.3" stop-color="#84C43F"/>
<stop offset="0.56" stop-color="#51B748"/>
<stop offset="0.66" stop-color="#379D43"/>
<stop offset="0.79" stop-color="#1B813D"/>
<stop offset="0.91" stop-color="#0A6F39"/>
<stop offset="1" stop-color="#046938"/>
</linearGradient>
</defs>
</svg>
