<svg width="24" height="24" viewBox="0 0 24 24" fill="none" xmlns="http://www.w3.org/2000/svg">
<path fill-rule="evenodd" clip-rule="evenodd" d="M17.4 4C18.834 4 20 5.166 20 6.6C20 13.988 13.989 20 6.6 20C5.167 20 4 18.834 4 17.4C4 17.289 4.007 17.18 4.021 17.072L8.641 16.012C8.733 16.188 8.834 16.379 8.926 16.557C9.382 17.427 9.712 18.059 10.554 17.72C13.86 16.56 16.559 13.86 17.734 10.514C18.091 9.729 17.411 9.373 16.549 8.923C16.374 8.831 16.185 8.732 16.012 8.642L17.072 4.021C17.183 4.007 17.291 4 17.4 4ZM6.6 22C15.092 22 22 15.092 22 6.6C22 4.063 19.937 2 17.4 2C17.14 2 16.883 2.022 16.634 2.065C16.391 2.104 16.147 2.166 15.909 2.248C15.584 2.361 15.339 2.634 15.262 2.97L13.893 8.934C13.817 9.262 13.912 9.606 14.146 9.85C14.282 9.992 14.285 9.995 15.525 10.644C14.521 12.818 12.776 14.557 10.646 15.527C9.996 14.286 9.992 14.282 9.85 14.146C9.606 13.912 9.26 13.821 8.934 13.893L2.969 15.262C2.634 15.339 2.361 15.583 2.249 15.908C2.167 16.144 2.105 16.388 2.064 16.639C2.022 16.886 2 17.142 2 17.4C2 19.937 4.064 22 6.6 22Z" fill="#609B48"/>
<mask id="mask0" mask-type="alpha" maskUnits="userSpaceOnUse" x="2" y="2" width="20" height="20">
<path fill-rule="evenodd" clip-rule="evenodd" d="M17.4 4C18.834 4 20 5.166 20 6.6C20 13.988 13.989 20 6.6 20C5.167 20 4 18.834 4 17.4C4 17.289 4.007 17.18 4.021 17.072L8.641 16.012C8.733 16.188 8.834 16.379 8.926 16.557C9.382 17.427 9.712 18.059 10.554 17.72C13.86 16.56 16.559 13.86 17.734 10.514C18.091 9.729 17.411 9.373 16.549 8.923C16.374 8.831 16.185 8.732 16.012 8.642L17.072 4.021C17.183 4.007 17.291 4 17.4 4ZM6.6 22C15.092 22 22 15.092 22 6.6C22 4.063 19.937 2 17.4 2C17.14 2 16.883 2.022 16.634 2.065C16.391 2.104 16.147 2.166 15.909 2.248C15.584 2.361 15.339 2.634 15.262 2.97L13.893 8.934C13.817 9.262 13.912 9.606 14.146 9.85C14.282 9.992 14.285 9.995 15.525 10.644C14.521 12.818 12.776 14.557 10.646 15.527C9.996 14.286 9.992 14.282 9.85 14.146C9.606 13.912 9.26 13.821 8.934 13.893L2.969 15.262C2.634 15.339 2.361 15.583 2.249 15.908C2.167 16.144 2.105 16.388 2.064 16.639C2.022 16.886 2 17.142 2 17.4C2 19.937 4.064 22 6.6 22Z" fill="white"/>
</mask>
<g mask="url(#mask0)">
</g>
</svg>
