<svg width="24" height="24" viewBox="0 0 24 24" fill="none" xmlns="http://www.w3.org/2000/svg">
<path fill-rule="evenodd" clip-rule="evenodd" d="M20 17.4C20 18.834 18.834 20 17.4 20C10.012 20 4 13.989 4 6.6C4 5.167 5.166 4 6.6 4C6.711 4 6.82 4.007 6.928 4.021L7.988 8.641C7.812 8.733 7.621 8.834 7.443 8.926C6.573 9.382 5.941 9.712 6.28 10.554C7.44 13.86 10.14 16.559 13.486 17.734C14.271 18.091 14.627 17.411 15.077 16.549C15.169 16.374 15.268 16.185 15.358 16.012L19.979 17.072C19.993 17.183 20 17.291 20 17.4M2 6.6C2 15.092 8.908 22 17.4 22C19.937 22 22 19.937 22 17.4C22 17.14 21.978 16.883 21.935 16.634C21.896 16.391 21.834 16.147 21.752 15.909C21.639 15.584 21.366 15.339 21.03 15.262L15.066 13.893C14.738 13.817 14.394 13.912 14.15 14.146C14.008 14.282 14.005 14.285 13.356 15.525C11.182 14.521 9.443 12.776 8.473 10.646C9.714 9.996 9.718 9.992 9.854 9.85C10.088 9.606 10.179 9.26 10.107 8.934L8.738 2.969C8.661 2.634 8.417 2.361 8.092 2.249C7.856 2.167 7.612 2.105 7.361 2.064C7.114 2.022 6.858 2 6.6 2C4.063 2 2 4.064 2 6.6" fill="#609B48"/>
<mask id="mask0" mask-type="alpha" maskUnits="userSpaceOnUse" x="2" y="2" width="20" height="20">
<path fill-rule="evenodd" clip-rule="evenodd" d="M20 17.4C20 18.834 18.834 20 17.4 20C10.012 20 4 13.989 4 6.6C4 5.167 5.166 4 6.6 4C6.711 4 6.82 4.007 6.928 4.021L7.988 8.641C7.812 8.733 7.621 8.834 7.443 8.926C6.573 9.382 5.941 9.712 6.28 10.554C7.44 13.86 10.14 16.559 13.486 17.734C14.271 18.091 14.627 17.411 15.077 16.549C15.169 16.374 15.268 16.185 15.358 16.012L19.979 17.072C19.993 17.183 20 17.291 20 17.4M2 6.6C2 15.092 8.908 22 17.4 22C19.937 22 22 19.937 22 17.4C22 17.14 21.978 16.883 21.935 16.634C21.896 16.391 21.834 16.147 21.752 15.909C21.639 15.584 21.366 15.339 21.03 15.262L15.066 13.893C14.738 13.817 14.394 13.912 14.15 14.146C14.008 14.282 14.005 14.285 13.356 15.525C11.182 14.521 9.443 12.776 8.473 10.646C9.714 9.996 9.718 9.992 9.854 9.85C10.088 9.606 10.179 9.26 10.107 8.934L8.738 2.969C8.661 2.634 8.417 2.361 8.092 2.249C7.856 2.167 7.612 2.105 7.361 2.064C7.114 2.022 6.858 2 6.6 2C4.063 2 2 4.064 2 6.6" fill="white"/>
</mask>
<g mask="url(#mask0)">
</g>
</svg>
