<svg width="36" height="36" viewBox="0 0 36 36" fill="none" xmlns="http://www.w3.org/2000/svg">
<path fill-rule="evenodd" clip-rule="evenodd" d="M7.5 26.1812L10.5 24.8342V9.81924L7.5 11.1662V26.1812ZM16.5 11.1662L13.5 9.81924V24.8342L16.5 26.1812V11.1662ZM22.5 9.81924L19.5 11.1662V26.1812L22.5 24.8342V9.81924ZM28.5 11.1662L25.5 9.81924V24.8342L28.5 26.1812V11.1662ZM5.385 8.82924L11.385 6.13224C11.4075 6.12174 11.4315 6.12024 11.454 6.11124C11.5155 6.08724 11.577 6.07074 11.64 6.05424C11.6985 6.03924 11.757 6.02574 11.817 6.01974C11.8755 6.01224 11.934 6.01074 11.994 6.01074C12.06 6.01074 12.1245 6.01224 12.1905 6.01974C12.246 6.02574 12.2985 6.03924 12.3525 6.05274C12.4185 6.06924 12.483 6.08724 12.5475 6.11124C12.5685 6.12024 12.594 6.12174 12.615 6.13224L18 8.55174L23.385 6.13224C23.4075 6.12174 23.4315 6.12024 23.454 6.11124C23.5155 6.08724 23.577 6.07074 23.64 6.05424C23.6985 6.03924 23.757 6.02574 23.817 6.01974C23.8755 6.01224 23.934 6.01074 23.994 6.01074C24.06 6.01074 24.1245 6.01224 24.1905 6.01974C24.246 6.02574 24.2985 6.03924 24.3525 6.05274C24.4185 6.06924 24.483 6.08724 24.5475 6.11124C24.5685 6.12024 24.594 6.12174 24.615 6.13224L30.615 8.82924C31.1535 9.07074 31.5 9.60624 31.5 10.1972V28.5002C31.5 29.0087 31.242 29.4827 30.8145 29.7602C30.5685 29.9192 30.285 30.0002 30 30.0002C29.7915 30.0002 29.5815 29.9567 29.385 29.8682L24 27.4487L18.615 29.8682C18.5925 29.8787 18.5685 29.8742 18.5445 29.8832C18.369 29.9537 18.1875 30.0002 18 30.0002C17.8125 30.0002 17.631 29.9537 17.4555 29.8832C17.433 29.8742 17.406 29.8787 17.385 29.8682L12 27.4487L6.615 29.8682C6.4185 29.9567 6.2085 30.0002 6 30.0002C5.715 30.0002 5.4315 29.9192 5.1855 29.7602C4.758 29.4827 4.5 29.0087 4.5 28.5002V10.1972C4.5 9.60624 4.8465 9.07074 5.385 8.82924V8.82924Z" fill="url(#paint0_linear)"/>
<mask id="mask0" mask-type="alpha" maskUnits="userSpaceOnUse" x="4" y="6" width="28" height="25">
<path fill-rule="evenodd" clip-rule="evenodd" d="M7.5 26.1812L10.5 24.8342V9.81924L7.5 11.1662V26.1812ZM16.5 11.1662L13.5 9.81924V24.8342L16.5 26.1812V11.1662ZM22.5 9.81924L19.5 11.1662V26.1812L22.5 24.8342V9.81924ZM28.5 11.1662L25.5 9.81924V24.8342L28.5 26.1812V11.1662ZM5.385 8.82924L11.385 6.13224C11.4075 6.12174 11.4315 6.12024 11.454 6.11124C11.5155 6.08724 11.577 6.07074 11.64 6.05424C11.6985 6.03924 11.757 6.02574 11.817 6.01974C11.8755 6.01224 11.934 6.01074 11.994 6.01074C12.06 6.01074 12.1245 6.01224 12.1905 6.01974C12.246 6.02574 12.2985 6.03924 12.3525 6.05274C12.4185 6.06924 12.483 6.08724 12.5475 6.11124C12.5685 6.12024 12.594 6.12174 12.615 6.13224L18 8.55174L23.385 6.13224C23.4075 6.12174 23.4315 6.12024 23.454 6.11124C23.5155 6.08724 23.577 6.07074 23.64 6.05424C23.6985 6.03924 23.757 6.02574 23.817 6.01974C23.8755 6.01224 23.934 6.01074 23.994 6.01074C24.06 6.01074 24.1245 6.01224 24.1905 6.01974C24.246 6.02574 24.2985 6.03924 24.3525 6.05274C24.4185 6.06924 24.483 6.08724 24.5475 6.11124C24.5685 6.12024 24.594 6.12174 24.615 6.13224L30.615 8.82924C31.1535 9.07074 31.5 9.60624 31.5 10.1972V28.5002C31.5 29.0087 31.242 29.4827 30.8145 29.7602C30.5685 29.9192 30.285 30.0002 30 30.0002C29.7915 30.0002 29.5815 29.9567 29.385 29.8682L24 27.4487L18.615 29.8682C18.5925 29.8787 18.5685 29.8742 18.5445 29.8832C18.369 29.9537 18.1875 30.0002 18 30.0002C17.8125 30.0002 17.631 29.9537 17.4555 29.8832C17.433 29.8742 17.406 29.8787 17.385 29.8682L12 27.4487L6.615 29.8682C6.4185 29.9567 6.2085 30.0002 6 30.0002C5.715 30.0002 5.4315 29.9192 5.1855 29.7602C4.758 29.4827 4.5 29.0087 4.5 28.5002V10.1972C4.5 9.60624 4.8465 9.07074 5.385 8.82924V8.82924Z" fill="white"/>
</mask>
<g mask="url(#mask0)">
</g>
<defs>
<linearGradient id="paint0_linear" x1="-7.10156" y1="-56.3098" x2="-3.71857" y2="41.1136" gradientUnits="userSpaceOnUse">
<stop offset="0.11" stop-color="#A5CD39"/>
<stop offset="0.3" stop-color="#84C43F"/>
<stop offset="0.56" stop-color="#51B748"/>
<stop offset="0.66" stop-color="#379D43"/>
<stop offset="0.79" stop-color="#1B813D"/>
<stop offset="0.91" stop-color="#0A6F39"/>
<stop offset="1" stop-color="#046938"/>
</linearGradient>
</defs>
</svg>
