<svg width="65" height="68" viewBox="0 0 65 68" fill="none" xmlns="http://www.w3.org/2000/svg">
<path d="M47.2998 27.718H44.2778L45.1883 17.264C45.19 17.245 45.1903 17.2264 45.1904 17.2077C45.1904 17.2061 45.1906 17.2046 45.1906 17.203C45.1906 17.2028 45.1906 17.2026 45.1906 17.2023C45.1906 16.9178 45.0189 16.667 44.7666 16.5579C44.7645 16.557 44.7624 16.5559 44.7603 16.5549C44.7446 16.5484 44.7284 16.5428 44.7121 16.5373C44.706 16.5353 44.7002 16.5329 44.6941 16.531C44.6808 16.527 44.6671 16.5238 44.6535 16.5205C44.6439 16.5183 44.6347 16.5156 44.6251 16.5137C44.6132 16.5113 44.6008 16.5098 44.5886 16.5081C44.5772 16.5064 44.5659 16.5044 44.5544 16.5034C44.5524 16.5032 44.5506 16.5028 44.5487 16.5026C44.5363 16.5015 44.5241 16.5017 44.5118 16.5012C44.5036 16.5009 44.4955 16.5 44.4873 16.5H44.4784C44.4777 16.5 44.4769 16.5 44.4763 16.5H30.0977C29.7096 16.5 29.3946 16.815 29.3946 17.2031C29.3946 17.5903 29.7096 17.9063 30.0977 17.9063H43.7209L42.3215 33.9727C42.3213 33.9739 42.3213 33.9752 42.3212 33.9764L41.9681 38.0302H17.5359L17.9446 33.8117H22.5965C22.985 33.8117 23.2997 33.4969 23.2997 33.1085C23.2997 32.7202 22.985 32.4054 22.5965 32.4054H18.0809L18.9438 23.4996H26.3477C26.7361 23.4996 27.0508 23.1848 27.0508 22.7965C27.0508 22.4081 26.7361 22.0933 26.3477 22.0933H19.0801L19.4858 17.9063H27.2852C27.6724 17.9063 27.9883 17.5903 27.9883 17.2031C27.9883 16.815 27.6724 16.5 27.2852 16.5H18.8477C18.8473 16.5 18.847 16.5001 18.8466 16.5001C18.5163 16.5 18.2298 16.7325 18.1606 17.0548C18.1601 17.0572 18.1592 17.0594 18.1588 17.0618C18.1552 17.0793 18.1529 17.0972 18.1505 17.1152C18.1499 17.1209 18.1487 17.1263 18.1481 17.1321C18.148 17.1332 18.1477 17.1342 18.1476 17.1353L17.6672 22.0933H9.14356C8.75515 22.0933 8.44043 22.4081 8.44043 22.7965C8.44043 23.1848 8.75515 23.4996 9.14356 23.4996H17.5309L16.6681 32.4054H14.1594C13.771 32.4054 13.4563 32.7202 13.4563 33.1085C13.4563 33.4969 13.771 33.8117 14.1594 33.8117H16.5318L16.062 38.6605C16.0619 38.6613 16.0619 38.662 16.0618 38.6627L15.3353 46.1607C15.3352 46.1616 15.3351 46.1625 15.335 46.1633L15.3347 46.166C15.3338 46.1757 15.3339 46.1853 15.3333 46.1951C15.3327 46.208 15.3314 46.2206 15.3314 46.2338C15.3314 46.2343 15.3315 46.2349 15.3315 46.2356C15.3315 46.2537 15.3328 46.2715 15.3341 46.2893C15.3346 46.295 15.3345 46.3008 15.3351 46.3064C15.337 46.3246 15.3401 46.3425 15.3434 46.3603C15.3443 46.3656 15.3448 46.3709 15.3458 46.3761C15.3485 46.3896 15.3524 46.4026 15.3559 46.4158C15.3584 46.4251 15.3603 46.4346 15.3631 46.4437C15.364 46.4462 15.3651 46.4487 15.3659 46.4513C15.3999 46.5559 15.4576 46.6498 15.533 46.7265C15.5344 46.7279 15.5356 46.7295 15.537 46.7308C15.5445 46.7383 15.5526 46.7451 15.5605 46.7522C15.609 46.7967 15.6637 46.8343 15.7236 46.8639C15.7361 46.8701 15.7484 46.8765 15.7611 46.8819C15.765 46.8836 15.7691 46.8847 15.773 46.8862C15.7906 46.8932 15.8084 46.9 15.8266 46.9057C15.8283 46.9062 15.8299 46.9064 15.8316 46.907C15.8524 46.9132 15.8734 46.9186 15.8949 46.923C15.8977 46.9236 15.9006 46.9238 15.9033 46.9243C15.9238 46.9282 15.9443 46.9315 15.9652 46.9335C15.9657 46.9335 15.9661 46.9336 15.9665 46.9337C15.9896 46.936 16.0125 46.9371 16.0351 46.9371C16.0354 46.9371 16.0358 46.937 16.0362 46.937H19.1663C19.512 49.5576 21.7587 51.5873 24.4723 51.5873C27.1857 51.5873 29.4325 49.5576 29.7781 46.937H41.0562C41.4019 49.5576 43.6486 51.5873 46.3621 51.5873C49.0755 51.5873 51.3224 49.5576 51.6682 46.937H54.7991C54.7995 46.937 54.8001 46.9371 54.8006 46.9371C54.824 46.9371 54.8471 46.9357 54.8699 46.9334C54.8741 46.9331 54.878 46.9322 54.8821 46.9317C54.9004 46.9296 54.9186 46.9271 54.9364 46.9235C54.9441 46.922 54.9515 46.9199 54.9591 46.9182C54.9729 46.915 54.9867 46.9116 55.0002 46.9076C55.0094 46.9048 55.0183 46.9017 55.0273 46.8986C55.0389 46.8946 55.0504 46.8905 55.0617 46.8859C55.0715 46.8821 55.0808 46.8778 55.0902 46.8736C55.1006 46.8688 55.1109 46.864 55.1209 46.8588C55.1305 46.8539 55.1396 46.8489 55.1488 46.8436C55.1585 46.838 55.1681 46.8322 55.1775 46.8262C55.1863 46.8206 55.1951 46.8148 55.2036 46.8088C55.2131 46.8022 55.2222 46.7952 55.2315 46.788C55.2392 46.7819 55.247 46.7759 55.2545 46.7696C55.2641 46.7614 55.2732 46.7529 55.2824 46.7442C55.2888 46.7381 55.2955 46.7321 55.3016 46.7257C55.3114 46.7157 55.3207 46.7052 55.33 46.6946C55.3349 46.6889 55.3401 46.6834 55.3449 46.6776C55.3552 46.6648 55.3646 46.6517 55.3739 46.6385C55.3771 46.6339 55.3807 46.6296 55.3838 46.6249C55.3952 46.6077 55.406 46.5901 55.4159 46.5719C55.4167 46.5708 55.4174 46.5698 55.4179 46.5686C55.4285 46.5491 55.4382 46.5291 55.447 46.5085C55.4494 46.5026 55.4513 46.4965 55.4536 46.4906C55.4593 46.476 55.465 46.4615 55.4697 46.4464C55.4728 46.4367 55.4751 46.4266 55.4778 46.4168C55.4809 46.4051 55.4842 46.3934 55.4868 46.3815C55.4891 46.3709 55.4906 46.3601 55.4924 46.3493C55.494 46.3398 55.4961 46.3305 55.4973 46.3209C55.5271 46.082 56.0777 41.6646 56.3236 38.8082C56.3239 38.8055 56.324 38.8027 56.3243 38.7999C56.3951 37.9765 56.4404 37.2831 56.4404 36.8586C56.4404 31.8185 52.34 27.718 47.2998 27.718ZM44.1553 29.1244H47.0318L46.6644 33.3428H43.7879L44.1553 29.1244ZM24.4725 50.1809C22.2959 50.1809 20.5251 48.4102 20.5251 46.2337C20.5251 44.0572 22.296 42.2864 24.4725 42.2864C26.649 42.2864 28.4198 44.0572 28.4198 46.2337C28.4198 48.4102 26.649 50.1809 24.4725 50.1809ZM46.3621 50.1809C44.1856 50.1809 42.4149 48.4102 42.4149 46.2337C42.4149 44.0572 44.1857 42.2864 46.3621 42.2864C48.5387 42.2864 50.3094 44.0572 50.3094 46.2337C50.3094 48.4102 48.5387 50.1809 46.3621 50.1809ZM54.1778 45.5303H51.6684C51.3228 42.9095 49.076 40.8797 46.3623 40.8797C43.6488 40.8797 41.4019 42.9096 41.0564 45.5303H29.7784C29.4328 42.9095 27.1861 40.8797 24.4725 40.8797C21.7589 40.8797 19.512 42.9096 19.1664 45.5303H16.8092L17.3997 39.4361H42.6124V39.4365C42.6128 39.4365 42.6131 39.4365 42.6135 39.4365C42.637 39.4365 42.6603 39.4352 42.6834 39.4328C42.6877 39.4325 42.6919 39.4315 42.6963 39.431C42.7146 39.4288 42.7329 39.4262 42.7509 39.4226C42.7587 39.421 42.7663 39.4189 42.774 39.417C42.788 39.4136 42.8021 39.4103 42.8158 39.4062C42.8252 39.4034 42.8341 39.4 42.8432 39.3968C42.855 39.3927 42.8668 39.3887 42.8782 39.384C42.8881 39.38 42.8975 39.3755 42.9071 39.371C42.9175 39.3662 42.9279 39.3614 42.9379 39.3562C42.9475 39.3511 42.9569 39.3457 42.9663 39.3402C42.976 39.3346 42.9856 39.3289 42.9949 39.3229C43.004 39.317 43.0127 39.3108 43.0214 39.3046C43.0307 39.298 43.0397 39.2913 43.0487 39.2842C43.0567 39.2778 43.0647 39.2711 43.0726 39.2643C43.0815 39.2566 43.0902 39.2487 43.0986 39.2406C43.1058 39.2337 43.1129 39.2267 43.1198 39.2195C43.1283 39.2107 43.1364 39.2016 43.1445 39.1923C43.1508 39.185 43.1569 39.1777 43.1629 39.1702C43.1707 39.1603 43.1781 39.1502 43.1854 39.14C43.191 39.1323 43.1963 39.1246 43.2016 39.1167C43.2084 39.1061 43.215 39.0952 43.2213 39.0842C43.226 39.0759 43.2309 39.0677 43.2352 39.0592C43.2411 39.0482 43.2462 39.0369 43.2515 39.0256C43.2557 39.0165 43.2599 39.0076 43.2636 38.9982C43.2682 38.9872 43.2721 38.9758 43.2761 38.9645C43.2796 38.9544 43.2832 38.9444 43.2863 38.9341C43.2894 38.9232 43.2919 38.9121 43.2948 38.901C43.2975 38.8898 43.3005 38.8788 43.3026 38.8674C43.3048 38.8564 43.3061 38.8451 43.3078 38.8339C43.3095 38.8222 43.3114 38.8108 43.3126 38.799C43.3128 38.7973 43.3131 38.7957 43.3132 38.794L43.6656 34.7487H47.2996C49.4539 34.7487 50.4255 35.8649 51.454 37.0467C52.3028 38.0218 53.2503 39.1098 54.8609 39.3752C54.6564 41.538 54.3257 44.3145 54.1778 45.5303ZM54.9811 37.9661C53.9363 37.7531 53.2934 37.0186 52.5146 36.1238C51.5407 35.0049 50.3516 33.6394 48.0723 33.385L48.436 29.2086C52.1639 29.76 55.0342 32.9801 55.0342 36.8588C55.0342 37.1224 55.0145 37.5052 54.9811 37.9661Z" fill="url(#paint0_linear)"/>
<path d="M24.4727 43.6558C23.0511 43.6558 21.8945 44.8123 21.8945 46.2339C21.8945 47.6555 23.0511 48.812 24.4727 48.812C25.8942 48.812 27.0508 47.6555 27.0508 46.2339C27.0508 44.8124 25.8942 43.6558 24.4727 43.6558ZM24.4727 47.4058C23.8264 47.4058 23.3008 46.8801 23.3008 46.2339C23.3008 45.5877 23.8264 45.062 24.4727 45.062C25.1189 45.062 25.6445 45.5877 25.6445 46.2339C25.6445 46.8801 25.1188 47.4058 24.4727 47.4058Z" fill="url(#paint1_linear)"/>
<path d="M46.3623 43.6558C44.9408 43.6558 43.7842 44.8123 43.7842 46.2339C43.7842 47.6555 44.9408 48.812 46.3623 48.812C47.7839 48.812 48.9404 47.6555 48.9404 46.2339C48.9404 44.8124 47.7839 43.6558 46.3623 43.6558ZM46.3623 47.4058C45.7161 47.4058 45.1904 46.8801 45.1904 46.2339C45.1904 45.5877 45.7161 45.062 46.3623 45.062C47.0085 45.062 47.5342 45.5877 47.5342 46.2339C47.5342 46.8801 47.0085 47.4058 46.3623 47.4058Z" fill="url(#paint2_linear)"/>
<path d="M15.0966 27.7183H11.6592C11.2708 27.7183 10.9561 28.0331 10.9561 28.4214C10.9561 28.8097 11.2708 29.1245 11.6592 29.1245H15.0966C15.485 29.1245 15.7998 28.8097 15.7998 28.4214C15.7998 28.0331 15.485 27.7183 15.0966 27.7183Z" fill="url(#paint3_linear)"/>
<defs>
<linearGradient id="paint0_linear" x1="77.0654" y1="-74.6507" x2="72.993" y2="67.8973" gradientUnits="userSpaceOnUse">
<stop offset="0.11" stop-color="#A5CD39"/>
<stop offset="0.3" stop-color="#84C43F"/>
<stop offset="0.56" stop-color="#51B748"/>
<stop offset="0.66" stop-color="#379D43"/>
<stop offset="0.79" stop-color="#1B813D"/>
<stop offset="0.91" stop-color="#0A6F39"/>
<stop offset="1" stop-color="#046938"/>
</linearGradient>
<linearGradient id="paint1_linear" x1="29.2664" y1="30.2607" x2="28.4483" y2="51.194" gradientUnits="userSpaceOnUse">
<stop offset="0.11" stop-color="#A5CD39"/>
<stop offset="0.3" stop-color="#84C43F"/>
<stop offset="0.56" stop-color="#51B748"/>
<stop offset="0.66" stop-color="#379D43"/>
<stop offset="0.79" stop-color="#1B813D"/>
<stop offset="0.91" stop-color="#0A6F39"/>
<stop offset="1" stop-color="#046938"/>
</linearGradient>
<linearGradient id="paint2_linear" x1="51.156" y1="30.2607" x2="50.3379" y2="51.194" gradientUnits="userSpaceOnUse">
<stop offset="0.11" stop-color="#A5CD39"/>
<stop offset="0.3" stop-color="#84C43F"/>
<stop offset="0.56" stop-color="#51B748"/>
<stop offset="0.66" stop-color="#379D43"/>
<stop offset="0.79" stop-color="#1B813D"/>
<stop offset="0.91" stop-color="#0A6F39"/>
<stop offset="1" stop-color="#046938"/>
</linearGradient>
<linearGradient id="paint3_linear" x1="17.881" y1="24.0651" x2="17.8162" y2="29.7821" gradientUnits="userSpaceOnUse">
<stop offset="0.11" stop-color="#A5CD39"/>
<stop offset="0.3" stop-color="#84C43F"/>
<stop offset="0.56" stop-color="#51B748"/>
<stop offset="0.66" stop-color="#379D43"/>
<stop offset="0.79" stop-color="#1B813D"/>
<stop offset="0.91" stop-color="#0A6F39"/>
<stop offset="1" stop-color="#046938"/>
</linearGradient>
</defs>
</svg>
