<svg width="89" height="89" viewBox="0 0 89 89" fill="none" xmlns="http://www.w3.org/2000/svg">
<g clip-path="url(#clip0)">
<path d="M44.2901 0.000352541H44.0601C32.4302 0.175119 21.3358 4.91773 13.1734 13.2038C5.01092 21.4898 0.435547 32.6542 0.435547 44.2854C0.435547 55.9165 5.01092 67.0809 13.1734 75.3669C21.3358 83.653 32.4302 88.3956 44.0601 88.5704H44.2901C50.2026 88.7243 56.0862 87.6926 61.5937 85.5363C67.1011 83.38 72.1211 80.1426 76.3574 76.0151C80.5937 71.8876 83.9606 66.9537 86.2595 61.5041C88.5584 56.0546 89.7428 50.1999 89.7428 44.2854C89.7428 38.3708 88.5584 32.5161 86.2595 27.0666C83.9606 21.617 80.5937 16.6831 76.3574 12.5556C72.1211 8.42812 67.1011 5.19076 61.5937 3.03442C56.0862 0.878088 50.2026 -0.15355 44.2901 0.000352541V0.000352541Z" fill="#7CAA6B"/>
<path d="M44.2896 2.94043H44.0596C36.6771 2.9822 29.4403 4.99922 23.1005 8.78211C16.7608 12.565 11.5491 17.9758 8.00649 24.453C4.4639 30.9301 2.71957 38.2374 2.95456 45.6163C3.18954 52.9951 5.39529 60.1766 9.34282 66.4152C13.2904 72.6538 18.8358 77.7221 25.4034 81.0939C31.971 84.4658 39.3215 86.0182 46.6917 85.5902C54.0619 85.1621 61.1832 82.7692 67.3163 78.6597C73.4494 74.5502 78.3708 68.8741 81.5696 62.2204C82.156 61.0114 82.6801 59.7731 83.1396 58.5104C85.4213 52.26 86.1621 45.5516 85.2992 38.9539C84.4363 32.3562 81.995 26.0639 78.1825 20.6106C74.37 15.1573 69.2987 10.7038 63.3985 7.62774C57.4984 4.55168 50.9434 2.94379 44.2896 2.94043V2.94043Z" fill="url(#paint0_linear)"/>
<path d="M43.8105 62.7501C42.2434 62.7582 40.709 62.3024 39.4005 61.4401C38.1194 60.5107 36.7373 59.7291 35.2805 59.1101C33.6784 58.71 32.0026 58.71 30.4005 59.1101C29.9105 59.1901 29.2205 59.4401 28.9105 58.8801C28.6625 58.1565 28.4588 57.4185 28.3005 56.6701C28.1305 56.2101 27.3005 56.2101 26.8505 56.1201C26.4005 56.0301 26.0605 55.9401 25.6705 55.8401C24.7905 55.6101 21.7505 54.8401 22.6705 53.3401C22.9802 52.9577 23.4165 52.6988 23.9005 52.6101C24.6693 52.3673 25.421 52.0733 26.1505 51.7301C27.519 50.9981 28.7343 50.0102 29.7305 48.8201C30.7967 47.683 31.5841 46.3137 32.0305 44.8201C32.4105 43.1801 30.8505 42.8201 29.6305 42.3201C28.7305 41.9901 27.0305 41.3201 26.8405 40.2301C26.6505 39.1401 28.2705 38.2301 29.1905 38.4801C29.8105 38.6001 30.3905 38.8601 31.0305 38.9401C31.3628 38.978 31.6982 38.978 32.0305 38.9401C32.3105 38.9401 32.2705 38.9402 32.3505 38.7402C32.4805 37.0802 32.2205 35.4102 32.1905 33.7402C32.1071 32.2528 32.3213 30.7637 32.8205 29.3601C33.6604 27.3451 35.052 25.608 36.8351 24.3484C38.6182 23.0889 40.7206 22.3582 42.9005 22.2401C45.8278 21.9037 48.7832 22.5624 51.2905 24.1101C52.5006 24.8805 53.5419 25.8883 54.3514 27.0726C55.161 28.2568 55.722 29.5929 56.0005 31.0001C56.1755 32.5638 56.2156 34.1396 56.1205 35.7101C56.1205 36.5001 56.0605 37.2902 56.0505 38.0802C56.0505 38.3502 56.0505 38.6101 56.0505 38.8801C56.0505 39.0001 56.5905 38.9902 56.6705 38.9902C57.8205 38.9902 58.9505 38.1601 60.0905 38.4601C61.0205 38.7101 62.0905 39.7201 61.4405 40.7201C60.8108 41.4935 59.9593 42.0554 59.0005 42.3302C58.0628 42.522 57.2112 43.0091 56.5705 43.7201C56.2105 44.2001 56.4605 44.9001 56.6605 45.3801C56.9359 46.0551 57.2706 46.7043 57.6605 47.3201C58.4051 48.4822 59.3223 49.5241 60.3805 50.4101C61.333 51.2135 62.4151 51.8493 63.5805 52.2901C64.2403 52.4458 64.8808 52.6738 65.4905 52.9701C65.6658 53.0829 65.8015 53.2476 65.8786 53.4412C65.9556 53.6349 65.9703 53.8478 65.9205 54.0501C65.8675 54.2304 65.7792 54.3984 65.6607 54.5443C65.5423 54.6902 65.396 54.8112 65.2305 54.9002C64.4117 55.3693 63.5242 55.7068 62.6005 55.9002C62.0595 56.0444 61.5077 56.1448 60.9505 56.2001C60.3105 56.2601 60.1305 56.8501 59.9505 57.3901C59.7705 57.9301 59.6805 59.0301 58.8505 59.0701C58.2005 59.0701 57.5205 58.9201 56.8505 58.8801C56.1805 58.8401 55.4805 58.8801 54.7905 58.8801C54.3705 58.8801 53.9505 58.8801 53.5305 58.9801C52.8528 59.1425 52.2117 59.4309 51.6405 59.8302C50.4005 60.5502 49.2405 61.4301 47.9505 62.0701C46.6427 62.6176 45.2247 62.8505 43.8105 62.7501V62.7501Z" fill="white"/>
</g>
<defs>
<linearGradient id="paint0_linear" x1="121.19" y1="-211.95" x2="108.065" y2="123.873" gradientUnits="userSpaceOnUse">
<stop offset="0.11" stop-color="#A5CD39"/>
<stop offset="0.3" stop-color="#84C43F"/>
<stop offset="0.56" stop-color="#51B748"/>
<stop offset="0.66" stop-color="#379D43"/>
<stop offset="0.79" stop-color="#1B813D"/>
<stop offset="0.91" stop-color="#0A6F39"/>
<stop offset="1" stop-color="#046938"/>
</linearGradient>
<clipPath id="clip0">
<rect width="88.59" height="88.59" fill="white"/>
</clipPath>
</defs>
</svg>
