<svg width="65" height="65" viewBox="0 0 65 65" fill="none" xmlns="http://www.w3.org/2000/svg">
<path d="M54.914 54.2153C54.7773 54.2153 54.627 54.2153 54.4426 54.2344H54.4043C54.3307 54.2363 54.2575 54.2232 54.189 54.1961C54.1206 54.1689 54.0583 54.1282 54.006 54.0764C53.9537 54.0246 53.9124 53.9627 53.8845 53.8945C53.8567 53.8264 53.843 53.7533 53.8441 53.6797V41.1225C53.8435 41.0487 53.8577 40.9756 53.8856 40.9074C53.9136 40.8392 53.9548 40.7772 54.0069 40.7251C54.0591 40.673 54.1211 40.6317 54.1893 40.6038C54.2575 40.5758 54.3306 40.5617 54.4043 40.5622C54.4397 40.5619 54.475 40.5656 54.5095 40.5732C54.627 40.595 54.7363 40.6224 54.8429 40.6511C54.995 40.6966 55.1518 40.7251 55.3102 40.7358H55.3266C55.4981 40.7417 55.6667 40.69 55.8053 40.589C55.944 40.4879 56.0449 40.3433 56.0918 40.1783C56.238 39.782 56.1601 39.476 55.8363 39.1835C55.0861 38.5126 54.3169 37.8294 53.5708 37.1749C53.2073 36.8525 52.8452 36.5327 52.4845 36.2103C52.2959 36.0422 52.1088 35.8741 51.9202 35.7033L51.6619 35.4724C51.6047 35.4205 51.5588 35.3573 51.5273 35.2867C51.4958 35.2161 51.4793 35.1398 51.4788 35.0625V30.6586C51.4788 30.3853 51.4788 30.1216 51.4788 29.8524C51.4788 29.1487 51.4788 28.4218 51.4706 27.7085C51.4638 27.1756 51.1045 26.8054 50.5975 26.8054C50.0906 26.8054 49.7189 27.1893 49.7148 27.729C49.7148 28.7251 49.7148 29.739 49.7148 30.7201V32.5128C49.7145 32.6197 49.6834 32.7242 49.6253 32.8138C49.5671 32.9035 49.4844 32.9745 49.3869 33.0184C49.2897 33.0634 49.1814 33.0788 49.0755 33.0628C48.9696 33.0467 48.8707 32.9999 48.7911 32.9282L47.8661 32.1083L41.3415 26.323C41.2835 26.2715 41.2368 26.2085 41.2046 26.1379C41.1723 26.0673 41.1552 25.9907 41.1544 25.9131V25.3665C41.1544 24.6505 41.1544 23.9359 41.1544 23.2213C41.1544 21.6732 41.1544 20.0786 41.1544 18.5004C41.1469 16.2207 40.3716 14.0101 38.9536 12.2251C37.5355 10.4402 35.5575 9.18509 33.3386 8.66234C32.5742 8.47553 31.7902 8.38103 31.0034 8.38086C28.6653 8.38938 26.4016 9.20346 24.5936 10.686C22.7553 12.1782 21.5144 14.2814 21.097 16.612C20.9453 17.4797 20.9344 18.3692 20.9235 19.3107C20.9235 19.7206 20.9139 20.1524 20.8962 20.576C20.8962 20.6306 20.8962 20.6853 20.8962 20.7413C20.898 21.007 20.8691 21.272 20.8101 21.5311C20.7836 21.6376 20.7256 21.7337 20.6437 21.8068C20.5618 21.8799 20.4598 21.9267 20.351 21.941C20.3246 21.943 20.2981 21.943 20.2717 21.941C20.1752 21.9416 20.0802 21.9166 19.9964 21.8686C19.9127 21.8206 19.8431 21.7513 19.7948 21.6677C19.6432 21.4122 19.4915 21.1539 19.3398 20.8957C19.0037 20.3232 18.6566 19.7302 18.2986 19.1617C17.7521 18.2831 17.2424 17.5221 16.7573 16.8512C16.6745 16.7187 16.561 16.6082 16.4263 16.529C16.2917 16.4498 16.1399 16.4042 15.984 16.3961C15.837 16.4028 15.6938 16.4454 15.5671 16.5202C15.4404 16.595 15.3339 16.6997 15.257 16.8252C12.296 21.0323 10.3175 24.999 9.20116 28.9615C8.57398 31.1901 8.42778 33.6073 8.75298 36.351C9.04539 38.8187 9.63157 40.923 10.5443 42.784C11.3013 44.328 12.1362 45.3938 13.1719 46.1399C13.5133 46.3719 13.8683 46.5831 14.235 46.7725C14.4181 46.8723 14.6066 46.9761 14.7993 47.0868C14.8829 47.136 14.9522 47.2064 15.0002 47.2908C15.0481 47.3752 15.0731 47.4707 15.0726 47.5678V53.6797C15.0722 53.8267 15.0136 53.9676 14.9097 54.0715C14.8057 54.1755 14.6648 54.234 14.5178 54.2344H12.6417C12.2018 54.2344 11.7591 54.2344 11.3163 54.2344C10.6017 54.2344 10.0183 54.2344 9.47717 54.2453C9.31004 54.2396 9.14407 54.2751 8.99394 54.3488C8.8438 54.4224 8.71411 54.5319 8.61634 54.6676C8.53957 54.7826 8.49316 54.9153 8.48146 55.0531C8.46975 55.191 8.49312 55.3296 8.54939 55.456C8.5951 55.5943 8.67832 55.7173 8.78977 55.8111C8.90123 55.905 9.03655 55.966 9.18066 55.9875C9.41735 56.021 9.65627 56.036 9.89529 56.0326C13.8633 56.0326 17.8313 56.0326 21.7993 56.0326C32.6294 56.0326 43.827 56.0326 54.8429 56.0435C55.5849 56.0435 55.9784 55.8755 56.2435 55.4314V54.8411C56.003 54.3874 55.6313 54.2153 54.914 54.2153ZM21.5807 53.6592C21.5804 53.8062 21.5218 53.9471 21.4178 54.051C21.3139 54.155 21.173 54.2136 21.026 54.2139H17.4733C17.3262 54.2139 17.1851 54.1555 17.0811 54.0514C16.977 53.9474 16.9186 53.8063 16.9186 53.6592V47.4899C16.9177 47.3756 16.9527 47.2638 17.0186 47.1705C17.0846 47.0771 17.1781 47.0067 17.2861 46.9693C18.5336 46.5225 19.5776 45.6671 20.5655 44.2747C20.6329 44.1778 20.7299 44.1053 20.842 44.0681C20.9541 44.0309 21.0752 44.031 21.1872 44.0684C21.2996 44.1031 21.3979 44.1732 21.4673 44.2682C21.5367 44.3633 21.5736 44.4782 21.5725 44.5958L21.5807 53.6592ZM21.5028 35.7088C21.4577 36.1296 21.4045 36.5478 21.3553 36.9509C21.3307 37.1326 21.3088 37.3116 21.2856 37.4878C21.2706 37.6223 21.2064 37.7465 21.1052 37.8363L20.683 38.2134C20.3906 38.4717 20.1091 38.7217 19.8304 38.9745C19.5516 39.2273 19.2373 39.5784 19.2537 39.9146C19.2701 40.2507 19.6227 40.5786 19.9164 40.7945C20.0173 40.87 20.0898 40.9773 20.122 41.0991C20.1543 41.2208 20.1444 41.3499 20.0941 41.4654C19.5134 42.7867 18.9012 43.7022 18.1087 44.4319C17.4351 45.0509 16.7232 45.3665 15.9935 45.3665C15.2639 45.3665 14.5793 45.0713 13.9207 44.4688C12.9027 43.5505 12.1444 42.329 11.5445 40.6251C10.5129 37.7726 10.1415 34.7233 10.4582 31.7066C10.6892 29.586 11.4147 27.6512 12.0979 26.0402C13.0528 23.793 14.2022 21.6337 15.533 19.5867C15.5822 19.5086 15.6503 19.4442 15.7311 19.3995C15.8118 19.3548 15.9026 19.3313 15.9949 19.3312V19.3312C16.0888 19.3318 16.181 19.3561 16.263 19.402C16.3449 19.4479 16.4139 19.5138 16.4636 19.5935C18.5623 22.9986 20.6174 26.748 21.4304 31.0863C21.7474 32.7314 21.6436 34.3465 21.5028 35.7088V35.7088ZM22.9321 29.5914C22.6779 28.7484 22.6465 27.9094 22.6479 27.1237C22.6561 25.372 22.6479 23.5875 22.6479 21.8631C22.6479 20.785 22.6479 19.711 22.6479 18.6329C22.6479 14.5337 25.3451 11.1997 29.3432 10.3239C29.8956 10.2022 30.4596 10.1413 31.0252 10.1421C35.011 10.1421 38.6019 13.1482 39.1977 16.9741C39.3149 17.866 39.3674 18.7651 39.3548 19.6646C39.3548 19.9583 39.3548 20.2644 39.3685 20.5623C39.3849 21.169 39.3808 21.7674 39.3753 22.3974C39.3753 22.6775 39.3753 22.963 39.3753 23.2527C39.3751 23.3446 39.3524 23.4351 39.309 23.5161C39.2656 23.5971 39.203 23.6662 39.1266 23.7173C39.0353 23.7762 38.9292 23.808 38.8205 23.8088C38.7449 23.8077 38.6702 23.7919 38.6006 23.7624L38.5172 23.7269C38.4514 23.7014 38.3874 23.6713 38.3259 23.6367C38.1364 23.5014 37.9142 23.4194 37.6823 23.3989C37.5566 23.3989 37.3476 23.4345 36.9991 23.7474C36.2025 24.4524 35.3909 25.1725 34.6079 25.868C34.198 26.2383 33.7772 26.6086 33.3632 26.9762C33.247 27.08 33.1281 27.1825 32.986 27.3041C32.9136 27.3656 32.8357 27.4312 32.7483 27.5077C32.6677 27.5772 32.5689 27.6222 32.4636 27.6373C32.3583 27.6524 32.2508 27.6369 32.154 27.5927C32.0572 27.5486 31.9751 27.4776 31.9174 27.3881C31.8598 27.2987 31.829 27.1946 31.8287 27.0882V26.4788C31.8287 25.827 31.8287 25.178 31.8287 24.5262C31.8287 22.8865 31.8287 21.184 31.8287 19.5129C31.8295 19.2925 31.7472 19.0798 31.5984 18.9173C31.4495 18.7548 31.2449 18.6542 31.0252 18.6357C30.9961 18.6336 30.9669 18.6336 30.9378 18.6357C30.7422 18.6438 30.5544 18.7146 30.4021 18.8376C30.2498 18.9606 30.1411 19.1293 30.092 19.3189C30.0686 19.444 30.0599 19.5715 30.066 19.6987C30.066 20.5996 30.066 21.5015 30.066 22.4042V23.8649C30.0669 23.9761 30.0342 24.085 29.9724 24.1774C29.9105 24.2699 29.8223 24.3416 29.7192 24.3833C29.6161 24.425 29.5028 24.4347 29.3941 24.4112C29.2854 24.3877 29.1863 24.3321 29.1096 24.2516L28.7816 23.9154C28.5849 23.7091 28.4127 23.5315 28.2351 23.3689C28.0471 23.1703 27.7895 23.0523 27.5163 23.0396C27.4054 23.0413 27.2959 23.0651 27.1943 23.1097C27.0927 23.1543 27.0011 23.2187 26.9247 23.2992C26.8402 23.3775 26.7724 23.4721 26.7255 23.5773C26.6785 23.6825 26.6533 23.7961 26.6514 23.9113C26.6601 24.1709 26.7711 24.4165 26.9602 24.5945C27.6434 25.2777 28.3498 25.9609 29.0289 26.6113L29.872 27.4243C29.9252 27.476 29.9675 27.5378 29.9964 27.6061C30.0253 27.6744 30.0401 27.7478 30.0401 27.822V29.6598C30.0398 29.7375 30.023 29.8142 29.9907 29.8849C29.9584 29.9556 29.9114 30.0186 29.8529 30.0697L25.3506 34.0637C25.2481 34.1521 25.1171 34.2006 24.9817 34.2003C24.9621 34.2017 24.9425 34.2017 24.9229 34.2003C24.8463 34.1928 24.7721 34.1692 24.7052 34.1311C24.6384 34.0929 24.5803 34.0411 24.5349 33.9789L24.4529 33.8669C23.8845 33.099 23.2983 32.3051 23.2231 31.1956C23.1851 30.6518 23.0875 30.1139 22.9321 29.5914V29.5914ZM33.0011 53.64C33.0011 53.7873 32.9427 53.9285 32.8387 54.0328C32.7347 54.137 32.5936 54.1958 32.4463 54.1961H29.7135C29.5664 54.1954 29.4255 54.1366 29.3216 54.0324C29.2176 53.9282 29.1591 53.7872 29.1588 53.64V43.1188C29.1588 42.9716 29.2172 42.8305 29.3212 42.7265C29.4253 42.6225 29.5664 42.564 29.7135 42.564H32.4463C32.5934 42.564 32.7345 42.6225 32.8386 42.7265C32.9426 42.8305 33.0011 42.9716 33.0011 43.1188V53.64ZM51.994 53.64C51.994 53.7875 51.9354 53.929 51.8311 54.0333C51.7268 54.1376 51.5853 54.1961 51.4379 54.1961H35.3882C35.2409 54.1958 35.0998 54.137 34.9958 54.0328C34.8918 53.9285 34.8334 53.7873 34.8334 53.64V42.0653C34.8334 41.0418 34.5601 40.7631 33.549 40.7631C31.8483 40.7631 30.1476 40.7631 28.4469 40.7631C27.6598 40.7631 27.325 41.102 27.325 41.8904C27.325 44.5685 27.325 47.2471 27.325 49.9262V53.64C27.3252 53.7129 27.311 53.7851 27.2832 53.8525C27.2554 53.9199 27.2145 53.9812 27.163 54.0327C27.1114 54.0843 27.0502 54.1251 26.9828 54.1529C26.9154 54.1807 26.8432 54.195 26.7703 54.1948H23.9746C23.8275 54.1948 23.6864 54.1363 23.5824 54.0323C23.4783 53.9283 23.4199 53.7872 23.4199 53.64V38.4074C23.4208 38.3298 23.4379 38.2533 23.4701 38.1827C23.5023 38.1121 23.549 38.049 23.6071 37.9975L31.7276 30.7952L37.3462 25.8052C37.4469 25.7134 37.5782 25.6625 37.7144 25.6625C37.8507 25.6625 37.982 25.7134 38.0827 25.8052L39.3124 26.8983L51.8081 37.9825C51.8667 38.0336 51.9137 38.0966 51.946 38.1673C51.9782 38.2379 51.9951 38.3147 51.9953 38.3924L51.994 53.64Z" fill="url(#paint0_linear)"/>
<path d="M52.0031 8.31537C51.7052 8.23339 51.4019 8.17873 51.0794 8.12134L50.6695 8.04346H50.2404L49.5108 8.1514C48.7332 8.26121 47.9856 8.52576 47.312 8.92943C46.6385 9.3331 46.0526 9.86769 45.5892 10.5016C45.1005 11.1717 44.7506 11.9326 44.5601 12.7398C44.3695 13.547 44.3422 14.3841 44.4797 15.202C44.9224 17.9785 47.5391 20.1538 50.4358 20.1538C50.7563 20.1527 51.0762 20.1258 51.3923 20.0732C54.0868 19.6237 56.2922 17.2202 56.4165 14.6076C56.5627 11.5947 54.7878 9.07235 52.0031 8.31537ZM50.4071 18.0742C49.8801 18.0738 49.3584 17.9686 48.8723 17.7647C48.3863 17.5609 47.9456 17.2625 47.576 16.8868C47.2092 16.5205 46.9189 16.0849 46.7218 15.6055C46.5248 15.126 46.425 14.6122 46.4282 14.0939C46.4436 13.0436 46.8719 12.0417 47.6203 11.3047C48.3688 10.5678 49.3773 10.1551 50.4276 10.1559H50.4454C51.4907 10.1634 52.4909 10.5826 53.2293 11.3225C53.9677 12.0625 54.3848 13.0636 54.3902 14.1089C54.393 14.628 54.2927 15.1424 54.0949 15.6224C53.8972 16.1023 53.606 16.5381 53.2383 16.9045C52.8672 17.2767 52.4261 17.5717 51.9404 17.7725C51.4547 17.9732 50.934 18.0758 50.4085 18.0742H50.4071Z" fill="url(#paint1_linear)"/>
<path d="M52.0031 8.31537C51.7052 8.23339 51.4019 8.17873 51.0794 8.12134L50.6695 8.04346H50.2404L49.5108 8.1514C48.7332 8.26121 47.9856 8.52576 47.312 8.92943C46.6385 9.3331 46.0526 9.86769 45.5892 10.5016C45.1005 11.1717 44.7506 11.9326 44.5601 12.7398C44.3695 13.547 44.3422 14.3841 44.4797 15.202C44.9224 17.9785 47.5391 20.1538 50.4358 20.1538C50.7563 20.1527 51.0762 20.1258 51.3923 20.0732C54.0868 19.6237 56.2922 17.2202 56.4165 14.6076C56.5627 11.5947 54.7878 9.07235 52.0031 8.31537ZM56.1446 14.5871C56.0257 17.0808 53.9201 19.3695 51.3499 19.7972C51.0478 19.8469 50.7421 19.8721 50.4358 19.8724C47.6702 19.8724 45.1766 17.7995 44.7543 15.1556C44.622 14.3742 44.6473 13.5743 44.829 12.8029C45.0106 12.0316 45.3448 11.3044 45.8119 10.6642C46.2536 10.0609 46.8113 9.55198 47.4524 9.16717C48.0934 8.78236 48.8048 8.52947 49.5449 8.42332L50.0806 8.34543L50.2541 8.31537H50.6353L51.0316 8.38916C51.3458 8.44654 51.6437 8.5012 51.9307 8.57772C54.5869 9.30601 56.2799 11.7177 56.1446 14.5858V14.5871Z" fill="url(#paint2_linear)"/>
<path d="M47.6542 41.8374C47.6542 41.1323 47.303 40.7743 46.6157 40.7729H43.2885H39.9887C39.326 40.7729 38.9598 41.1391 38.9584 41.7977C38.9475 43.9266 38.9475 46.0937 38.9584 48.4234C38.9584 49.1066 39.3314 49.4714 40.0228 49.4728H42.1407C43.6219 49.4728 45.1236 49.4728 46.602 49.4646C47.2962 49.4646 47.6501 49.1093 47.6514 48.4125C47.6514 47.6377 47.6514 46.8643 47.6514 46.0896V45.0716C47.65 45.0466 47.65 45.0215 47.6514 44.9965V44.0851C47.6555 43.3404 47.6583 42.5889 47.6542 41.8374ZM45.8437 47.0898C45.8437 47.2369 45.7852 47.378 45.6812 47.4821C45.5772 47.5861 45.4361 47.6445 45.2889 47.6445H41.3441C41.1969 47.6445 41.0556 47.5861 40.9514 47.4821C40.8471 47.3781 40.7884 47.237 40.788 47.0898V43.1272C40.788 42.9798 40.8466 42.8383 40.9509 42.734C41.0552 42.6297 41.1966 42.5711 41.3441 42.5711H45.2889C45.3619 42.5711 45.4341 42.5855 45.5015 42.6135C45.5689 42.6414 45.6301 42.6824 45.6817 42.7341C45.7332 42.7858 45.774 42.8471 45.8018 42.9145C45.8296 42.982 45.8439 43.0543 45.8437 43.1272V47.0898Z" fill="url(#paint3_linear)"/>
<defs>
<linearGradient id="paint0_linear" x1="76.7675" y1="-115.438" x2="69.2212" y2="78.0628" gradientUnits="userSpaceOnUse">
<stop offset="0.11" stop-color="#A5CD39"/>
<stop offset="0.3" stop-color="#84C43F"/>
<stop offset="0.56" stop-color="#51B748"/>
<stop offset="0.66" stop-color="#379D43"/>
<stop offset="0.79" stop-color="#1B813D"/>
<stop offset="0.91" stop-color="#0A6F39"/>
<stop offset="1" stop-color="#046938"/>
</linearGradient>
<linearGradient id="paint1_linear" x1="61.5947" y1="-23.4172" x2="59.6606" y2="25.7473" gradientUnits="userSpaceOnUse">
<stop offset="0.11" stop-color="#A5CD39"/>
<stop offset="0.3" stop-color="#84C43F"/>
<stop offset="0.56" stop-color="#51B748"/>
<stop offset="0.66" stop-color="#379D43"/>
<stop offset="0.79" stop-color="#1B813D"/>
<stop offset="0.91" stop-color="#0A6F39"/>
<stop offset="1" stop-color="#046938"/>
</linearGradient>
<linearGradient id="paint2_linear" x1="61.5947" y1="-23.4172" x2="59.6606" y2="25.7473" gradientUnits="userSpaceOnUse">
<stop offset="0.11" stop-color="#A5CD39"/>
<stop offset="0.3" stop-color="#84C43F"/>
<stop offset="0.56" stop-color="#51B748"/>
<stop offset="0.66" stop-color="#379D43"/>
<stop offset="0.79" stop-color="#1B813D"/>
<stop offset="0.91" stop-color="#0A6F39"/>
<stop offset="1" stop-color="#046938"/>
</linearGradient>
<linearGradient id="paint3_linear" x1="51.397" y1="18.1723" x2="50.0177" y2="53.4918" gradientUnits="userSpaceOnUse">
<stop offset="0.11" stop-color="#A5CD39"/>
<stop offset="0.3" stop-color="#84C43F"/>
<stop offset="0.56" stop-color="#51B748"/>
<stop offset="0.66" stop-color="#379D43"/>
<stop offset="0.79" stop-color="#1B813D"/>
<stop offset="0.91" stop-color="#0A6F39"/>
<stop offset="1" stop-color="#046938"/>
</linearGradient>
</defs>
</svg>
