<svg width="89" height="90" viewBox="0 0 89 90" fill="none" xmlns="http://www.w3.org/2000/svg">
<g clip-path="url(#clip0)">
<path d="M79.7901 18.3801C75.6682 12.8538 70.3117 8.36723 64.1481 5.27847C57.9845 2.18972 51.1843 0.584232 44.2901 0.590104H44.0601C32.4302 0.764871 21.3358 5.50748 13.1734 13.7935C5.01092 22.0796 0.435547 33.2439 0.435547 44.8751C0.435547 56.5063 5.01092 67.6706 13.1734 75.9567C21.3358 84.2427 32.4302 88.9853 44.0601 89.1601H44.2901C52.5086 89.1601 60.5652 86.8739 67.5587 82.5571C74.5523 78.2403 80.2072 72.0632 83.8909 64.7164C87.5747 57.3696 89.1421 49.143 88.4179 40.9564C87.6937 32.7698 84.7064 24.9461 79.7901 18.3601V18.3801Z" fill="#7CAA6B"/>
<path d="M62.22 7.59022C56.6269 4.89944 50.4967 3.51133 44.29 3.53022H44.06C33.206 3.69903 22.8537 8.12926 15.2377 15.8646C7.62174 23.5999 3.35303 34.0199 3.35303 44.8752C3.35303 55.7305 7.62174 66.1505 15.2377 73.8858C22.8537 81.6212 33.206 86.0514 44.06 86.2202H44.29C53.6607 86.2195 62.7534 83.0367 70.0789 77.1932C77.4044 71.3496 82.5285 63.1917 84.6118 54.0555C86.6951 44.9193 85.6142 35.3465 81.5462 26.9049C77.4781 18.4632 70.6641 11.6532 62.22 7.59022V7.59022Z" fill="url(#paint0_linear)"/>
<path d="M67.1402 31.89C65.5519 32.5993 63.8667 33.0678 62.1402 33.28C63.9708 32.1739 65.3413 30.4448 66.0002 28.41C64.2639 29.4572 62.3589 30.1948 60.3702 30.59C59.0441 29.1837 57.2923 28.2525 55.3848 27.9399C53.4773 27.6274 51.52 27.9508 49.8144 28.8605C48.1089 29.7701 46.7498 31.2154 45.9467 32.9736C45.1436 34.7318 44.941 36.7053 45.3702 38.59C41.8697 38.416 38.4449 37.5079 35.3181 35.9247C32.1913 34.3415 29.4323 32.1185 27.2202 29.4C26.1061 31.3424 25.7735 33.6361 26.2899 35.8149C26.8063 37.9938 28.1329 39.8942 30.0002 41.13C28.5983 41.087 27.227 40.7099 26.0002 40.03V40.14C25.9984 42.1636 26.6932 44.1262 27.968 45.6978C29.2428 47.2694 31.0197 48.3543 33.0002 48.77C32.2439 48.9752 31.4638 49.0794 30.6802 49.08C30.1164 49.079 29.554 49.0255 29.0002 48.92C29.5645 50.6689 30.661 52.1979 32.1365 53.2933C33.612 54.3887 35.3928 54.9959 37.2302 55.03C34.1115 57.4817 30.2572 58.81 26.2902 58.8C25.5918 58.8008 24.8939 58.7607 24.2002 58.68C28.2183 61.2836 32.9023 62.6725 37.6902 62.68C53.8802 62.68 62.7402 49.26 62.7402 37.68C62.7402 37.3 62.7402 36.92 62.7402 36.54C64.4643 35.2947 65.9512 33.7502 67.1302 31.98L67.1402 31.89Z" fill="white"/>
</g>
<defs>
<linearGradient id="paint0_linear" x1="121.008" y1="-211.285" x2="107.825" y2="124.414" gradientUnits="userSpaceOnUse">
<stop offset="0.11" stop-color="#A5CD39"/>
<stop offset="0.3" stop-color="#84C43F"/>
<stop offset="0.56" stop-color="#51B748"/>
<stop offset="0.66" stop-color="#379D43"/>
<stop offset="0.79" stop-color="#1B813D"/>
<stop offset="0.91" stop-color="#0A6F39"/>
<stop offset="1" stop-color="#046938"/>
</linearGradient>
<clipPath id="clip0">
<rect width="88.59" height="88.59" fill="white" transform="translate(0 0.590088)"/>
</clipPath>
</defs>
</svg>
