<svg width="26" height="27" viewBox="0 0 26 27" fill="none" xmlns="http://www.w3.org/2000/svg">
<path d="M19.3401 6.61644C17.6476 4.9302 15.3959 4.00096 12.9996 4C10.6086 4 8.3534 4.92841 6.6497 6.61424C4.94298 8.30295 4.0022 10.5471 4 12.9252V12.928V12.9296C4.00027 14.369 4.37843 15.821 5.09625 17.1464L4.02461 22.0173L8.95163 20.8966C10.1995 21.5255 11.5918 21.857 12.9962 21.8576H12.9997C15.3903 21.8576 17.6455 20.929 19.3495 19.2431C21.0577 17.553 21.9989 15.3117 22 12.9321C22.0007 10.5693 21.0562 8.32632 19.3401 6.61644V6.61644ZM12.9996 20.4514H12.9964C11.7355 20.4508 10.4861 20.1342 9.38353 19.5356L9.15054 19.4091L5.87428 20.1543L6.58592 16.9201L6.44873 16.6835C5.76665 15.5073 5.40623 14.2088 5.40623 12.9281C5.40884 8.78269 8.81486 5.40623 12.9993 5.40623C15.0208 5.40705 16.9203 6.19072 18.3477 7.61262C19.7966 9.05651 20.5943 10.9455 20.5936 12.9317C20.592 17.0781 17.1853 20.4514 12.9996 20.4514V20.4514Z" fill="#7CAA6B"/>
<path d="M10.5507 8.99219H10.1562C10.0188 8.99219 9.79589 9.0436 9.60729 9.24883C9.41856 9.45419 8.88672 9.95057 8.88672 10.9601C8.88672 11.9696 9.62447 12.945 9.72729 13.0821C9.83025 13.219 11.1514 15.3568 13.2438 16.1792C14.9829 16.8627 15.3368 16.7267 15.7141 16.6925C16.0916 16.6584 16.9322 16.1963 17.1037 15.7172C17.2753 15.2382 17.2753 14.8274 17.2239 14.7416C17.1723 14.6561 17.035 14.6049 16.8292 14.5023C16.6233 14.3996 15.6143 13.8949 15.4256 13.8263C15.2369 13.758 15.0997 13.7237 14.9624 13.9292C14.825 14.1343 14.4208 14.6089 14.3006 14.7458C14.1806 14.8828 14.0605 14.9 13.8546 14.7973C13.6487 14.6944 12.9924 14.4739 12.206 13.775C11.5939 13.2311 11.1691 12.5375 11.049 12.3321C10.929 12.1269 11.0362 12.0158 11.1394 11.9134C11.2319 11.8216 11.3569 11.6959 11.4599 11.5762C11.5627 11.4563 11.592 11.3708 11.6607 11.2339C11.7293 11.097 11.6949 10.9771 11.6435 10.8746C11.592 10.7719 11.1969 9.7573 11.0138 9.35151C10.8596 9.00978 10.6974 8.99824 10.5507 8.99219Z" fill="#7CAA6B"/>
</svg>
