<svg width="89" height="89" viewBox="0 0 89 89" fill="none" xmlns="http://www.w3.org/2000/svg">
<g clip-path="url(#clip0)">
<path d="M79.7901 17.79C78.9401 16.66 78.0401 15.56 77.0801 14.51C76.6101 13.99 76.0801 13.51 75.6201 12.97C71.509 8.85184 66.6251 5.58615 61.2486 3.3604C55.8721 1.13465 50.109 -0.00732438 44.2901 3.53481e-05H44.0601C32.4302 0.174802 21.3358 4.91741 13.1734 13.2035C5.01092 21.4895 0.435547 32.6539 0.435547 44.285C0.435547 55.9162 5.01092 67.0806 13.1734 75.3666C21.3358 83.6527 32.4302 88.3953 44.0601 88.57H44.2901C50.1111 88.5735 55.8755 87.4268 61.2521 85.1958C66.6286 82.9649 71.5115 79.6936 75.6201 75.57C76.1201 75.06 76.6201 74.57 77.0801 74.03C78.0801 73.03 78.9401 71.88 79.7901 70.75C85.5004 63.095 88.5853 53.8003 88.5853 44.25C88.5853 34.6998 85.5004 25.405 79.7901 17.75V17.79Z" fill="#7CAA6B"/>
<path d="M78.5896 21.1705C77.8396 20.0705 77.0496 19.0105 76.2096 17.9905C75.3696 16.9705 74.4696 15.9905 73.5396 15.0505C69.7011 11.2061 65.1414 8.1574 60.1219 6.07927C55.1025 4.00115 49.7222 2.93448 44.2896 2.94045H44.0596C37.0356 2.98033 30.1376 4.80882 24.0162 8.25344C17.8947 11.6981 12.7516 16.6453 9.07206 22.6284C5.39248 28.6116 3.29768 35.4335 2.98526 42.4506C2.67284 49.4677 4.1531 56.4488 7.28641 62.7353C10.4197 69.0217 15.1028 74.4065 20.8939 78.3815C26.685 82.3565 33.3932 84.7907 40.3859 85.4547C47.3785 86.1186 54.425 84.9903 60.8607 82.1762C67.2964 79.3621 72.9092 74.9549 77.1696 69.3705C77.6596 68.7305 78.1696 68.0805 78.5896 67.3705C79.7134 65.7115 80.716 63.9737 81.5896 62.1705C82.176 60.9615 82.7001 59.7232 83.1596 58.4605C85.4004 52.3188 86.1562 45.7341 85.3655 39.2444C84.5747 32.7548 82.2597 26.5443 78.6096 21.1205L78.5896 21.1705Z" fill="url(#paint0_linear)"/>
<path fill-rule="evenodd" clip-rule="evenodd" d="M66.2197 36.2798C66.2197 34.5629 65.5383 32.9162 64.3252 31.7013C63.1122 30.4863 61.4665 29.8025 59.7496 29.7998H29.3696C27.651 29.7998 26.0028 30.4825 24.7876 31.6978C23.5724 32.913 22.8896 34.5612 22.8896 36.2798V53.6498C22.8896 55.3684 23.5724 57.0166 24.7876 58.2319C26.0028 59.4471 27.651 60.1298 29.3696 60.1298H59.7496C61.4665 60.1272 63.1122 59.4433 64.3252 58.2283C65.5383 57.0134 66.2197 55.3667 66.2197 53.6498V36.2798ZM40.2197 52.2798V35.9998L52.5996 44.1398L40.2197 52.2798Z" fill="white"/>
</g>
<defs>
<linearGradient id="paint0_linear" x1="121.215" y1="-211.898" x2="108.098" y2="123.844" gradientUnits="userSpaceOnUse">
<stop offset="0.11" stop-color="#A5CD39"/>
<stop offset="0.3" stop-color="#84C43F"/>
<stop offset="0.56" stop-color="#51B748"/>
<stop offset="0.66" stop-color="#379D43"/>
<stop offset="0.79" stop-color="#1B813D"/>
<stop offset="0.91" stop-color="#0A6F39"/>
<stop offset="1" stop-color="#046938"/>
</linearGradient>
<clipPath id="clip0">
<rect width="88.59" height="88.59" fill="white"/>
</clipPath>
</defs>
</svg>
